%TF.GenerationSoftware,KiCad,Pcbnew,8.0.1*%
%TF.CreationDate,2024-04-27T19:13:13+09:00*%
%TF.ProjectId,sand-at,73616e64-2d61-4742-9e6b-696361645f70,rev?*%
%TF.SameCoordinates,Original*%
%TF.FileFunction,Legend,Top*%
%TF.FilePolarity,Positive*%
%FSLAX46Y46*%
G04 Gerber Fmt 4.6, Leading zero omitted, Abs format (unit mm)*
G04 Created by KiCad (PCBNEW 8.0.1) date 2024-04-27 19:13:13*
%MOMM*%
%LPD*%
G01*
G04 APERTURE LIST*
%ADD10C,1.750000*%
%ADD11C,3.987800*%
%ADD12C,3.300000*%
%ADD13O,1.800000X1.800000*%
%ADD14O,1.500000X1.500000*%
%ADD15O,1.700000X1.700000*%
%ADD16R,1.700000X1.700000*%
G04 APERTURE END LIST*
%LPC*%
D10*
%TO.C,SW52*%
X340113943Y-91140588D03*
D11*
X345116766Y-90258455D03*
D10*
X350119589Y-89376322D03*
D12*
X340923582Y-88418643D03*
X346736045Y-84814565D03*
%TD*%
D10*
%TO.C,SW60*%
X82495000Y-108793050D03*
D11*
X87575000Y-108793050D03*
D10*
X92655000Y-108793050D03*
D12*
X83765000Y-106253050D03*
X90115000Y-103713050D03*
%TD*%
D10*
%TO.C,SW27*%
X199306937Y-76404731D03*
D11*
X204309760Y-77286864D03*
D10*
X209312583Y-78168997D03*
D12*
X200998709Y-74123853D03*
X207693304Y-72725107D03*
%TD*%
D10*
%TO.C,SW7*%
X193234641Y-55990144D03*
D11*
X198237464Y-56872277D03*
D10*
X203240287Y-57754410D03*
D12*
X194926413Y-53709266D03*
X201621008Y-52310520D03*
%TD*%
D11*
%TO.C,S84*%
X316530238Y-125604438D03*
X293079503Y-129739436D03*
%TD*%
D10*
%TO.C,SW51*%
X321353355Y-94448586D03*
D11*
X326356178Y-93566453D03*
D10*
X331359001Y-92684320D03*
D12*
X322162994Y-91726641D03*
X327975457Y-88122563D03*
%TD*%
D10*
%TO.C,SW67*%
X276821854Y-121644568D03*
D11*
X281824677Y-120762435D03*
D10*
X286827500Y-119880302D03*
D12*
X277631493Y-118922623D03*
X283443956Y-115318545D03*
%TD*%
D10*
%TO.C,SW88*%
X482545000Y-127843050D03*
D11*
X487625000Y-127843050D03*
D10*
X492705000Y-127843050D03*
D12*
X483815000Y-125303050D03*
X490165000Y-122763050D03*
%TD*%
D10*
%TO.C,SW14*%
X358720000Y-50690550D03*
D11*
X363800000Y-50690550D03*
D10*
X368880000Y-50690550D03*
D12*
X359990000Y-48150550D03*
X366340000Y-45610550D03*
%TD*%
D10*
%TO.C,SW85*%
X337292168Y-131131509D03*
D11*
X342344339Y-130600504D03*
D10*
X347396510Y-130069499D03*
D12*
X338289708Y-128472672D03*
X344339420Y-125282830D03*
%TD*%
D10*
%TO.C,SW12*%
X319427507Y-56100411D03*
D11*
X324430330Y-55218278D03*
D10*
X329433153Y-54336145D03*
D12*
X320237146Y-53378466D03*
X326049609Y-49774388D03*
%TD*%
D10*
%TO.C,SW59*%
X63445000Y-108793050D03*
D11*
X68525000Y-108793050D03*
D10*
X73605000Y-108793050D03*
D12*
X64715000Y-106253050D03*
X71065000Y-103713050D03*
%TD*%
D10*
%TO.C,SW44*%
X142502500Y-89743050D03*
D11*
X147582500Y-89743050D03*
D10*
X152662500Y-89743050D03*
D12*
X143772500Y-87203050D03*
X150122500Y-84663050D03*
%TD*%
D10*
%TO.C,SW87*%
X453970000Y-127843050D03*
D11*
X459050000Y-127843050D03*
D10*
X464130000Y-127843050D03*
D12*
X455240000Y-125303050D03*
X461590000Y-122763050D03*
%TD*%
D10*
%TO.C,SW49*%
X283832180Y-101064582D03*
D11*
X288835003Y-100182449D03*
D10*
X293837826Y-99300316D03*
D12*
X284641819Y-98342637D03*
X290454282Y-94738559D03*
%TD*%
D10*
%TO.C,SW20*%
X501595000Y-51643050D03*
D11*
X506675000Y-51643050D03*
D10*
X511755000Y-51643050D03*
D12*
X502865000Y-49103050D03*
X509215000Y-46563050D03*
%TD*%
D10*
%TO.C,SW2*%
X82495000Y-51643050D03*
D11*
X87575000Y-51643050D03*
D10*
X92655000Y-51643050D03*
D12*
X83765000Y-49103050D03*
X90115000Y-46563050D03*
%TD*%
D10*
%TO.C,SW30*%
X294594623Y-79822996D03*
D11*
X299597446Y-78940863D03*
D10*
X304600269Y-78058730D03*
D12*
X295404262Y-77101051D03*
X301216725Y-73496973D03*
%TD*%
D10*
%TO.C,SW73*%
X399201250Y-108793050D03*
D11*
X404281250Y-108793050D03*
D10*
X409361250Y-108793050D03*
D12*
X400471250Y-106253050D03*
X406821250Y-103713050D03*
%TD*%
D10*
%TO.C,SW10*%
X281906331Y-62716407D03*
D11*
X286909154Y-61834274D03*
D10*
X291911977Y-60952141D03*
D12*
X282715970Y-59994462D03*
X288528433Y-56390384D03*
%TD*%
D10*
%TO.C,SW25*%
X161785762Y-69788735D03*
D11*
X166788585Y-70670868D03*
D10*
X171791408Y-71553001D03*
D12*
X163477534Y-67507857D03*
X170172129Y-66109111D03*
%TD*%
D10*
%TO.C,SW31*%
X313355211Y-76514998D03*
D11*
X318358034Y-75632865D03*
D10*
X323360857Y-74750732D03*
D12*
X314164850Y-73793053D03*
X319977313Y-70188975D03*
%TD*%
D10*
%TO.C,SW82*%
X206736487Y-135746392D03*
D11*
X211739310Y-136628525D03*
D10*
X216742133Y-137510658D03*
D12*
X208428259Y-133465514D03*
X215122854Y-132066768D03*
%TD*%
D10*
%TO.C,SW39*%
X482545000Y-70693050D03*
D11*
X487625000Y-70693050D03*
D10*
X492705000Y-70693050D03*
D12*
X483815000Y-68153050D03*
X490165000Y-65613050D03*
%TD*%
D10*
%TO.C,SW40*%
X501595000Y-80218050D03*
D11*
X506675000Y-80218050D03*
D10*
X511755000Y-80218050D03*
D12*
X502865000Y-77678050D03*
X509215000Y-75138050D03*
%TD*%
D10*
%TO.C,SW3*%
X115832500Y-51643050D03*
D11*
X120912500Y-51643050D03*
D10*
X125992500Y-51643050D03*
D12*
X117102500Y-49103050D03*
X123452500Y-46563050D03*
%TD*%
D10*
%TO.C,SW74*%
X444445000Y-108793050D03*
D11*
X449525000Y-108793050D03*
D10*
X454605000Y-108793050D03*
D12*
X445715000Y-106253050D03*
X452065000Y-103713050D03*
%TD*%
D10*
%TO.C,SW63*%
X170178236Y-109956309D03*
D11*
X175181059Y-110838442D03*
D10*
X180183882Y-111720575D03*
D12*
X171870008Y-107675431D03*
X178564603Y-106276685D03*
%TD*%
D11*
%TO.C,S61*%
X111387500Y-117048050D03*
X135200000Y-117048050D03*
%TD*%
D10*
%TO.C,SW65*%
X207699412Y-116572304D03*
D11*
X212702235Y-117454437D03*
D10*
X217705058Y-118336570D03*
D12*
X209391184Y-114291426D03*
X216085779Y-112892680D03*
%TD*%
D10*
%TO.C,SW84*%
X301235513Y-136683658D03*
D11*
X306238336Y-135801525D03*
D10*
X311241159Y-134919392D03*
D12*
X302045152Y-133961713D03*
X307857615Y-130357635D03*
%TD*%
D10*
%TO.C,SW1*%
X63445000Y-51643050D03*
D11*
X68525000Y-51643050D03*
D10*
X73605000Y-51643050D03*
D12*
X64715000Y-49103050D03*
X71065000Y-46563050D03*
%TD*%
D10*
%TO.C,SW81*%
X166203719Y-129245721D03*
D11*
X171227920Y-129996593D03*
D10*
X176252121Y-130747465D03*
D12*
X167835205Y-126921339D03*
X174490892Y-125347828D03*
%TD*%
D10*
%TO.C,SW50*%
X302592768Y-97756584D03*
D11*
X307595591Y-96874451D03*
D10*
X312598414Y-95992318D03*
D12*
X303402407Y-95034639D03*
X309214870Y-91430561D03*
%TD*%
D10*
%TO.C,SW24*%
X139645000Y-70693050D03*
D11*
X144725000Y-70693050D03*
D10*
X149805000Y-70693050D03*
D12*
X140915000Y-68153050D03*
X147265000Y-65613050D03*
%TD*%
D10*
%TO.C,SW48*%
X219449674Y-99300316D03*
D11*
X224452497Y-100182449D03*
D10*
X229455320Y-101064582D03*
D12*
X221141446Y-97019438D03*
X227836041Y-95620692D03*
%TD*%
D10*
%TO.C,SW56*%
X444445000Y-89743050D03*
D11*
X449525000Y-89743050D03*
D10*
X454605000Y-89743050D03*
D12*
X445715000Y-87203050D03*
X452065000Y-84663050D03*
%TD*%
D10*
%TO.C,SW5*%
X155713466Y-49374149D03*
D11*
X160716289Y-50256282D03*
D10*
X165719112Y-51138415D03*
D12*
X157405238Y-47093271D03*
X164099833Y-45694525D03*
%TD*%
D10*
%TO.C,SW26*%
X180546350Y-73096733D03*
D11*
X185549173Y-73978866D03*
D10*
X190551996Y-74860999D03*
D12*
X182238122Y-70815855D03*
X188932717Y-69417109D03*
%TD*%
D10*
%TO.C,SW61*%
X118213750Y-108793050D03*
D11*
X123293750Y-108793050D03*
D10*
X128373750Y-108793050D03*
D12*
X119483750Y-106253050D03*
X125833750Y-103713050D03*
%TD*%
D10*
%TO.C,SW8*%
X211995229Y-59298142D03*
D11*
X216998052Y-60180275D03*
D10*
X222000875Y-61062408D03*
D12*
X213687001Y-57017264D03*
X220381596Y-55618518D03*
%TD*%
D10*
%TO.C,SW23*%
X115832500Y-70693050D03*
D11*
X120912500Y-70693050D03*
D10*
X125992500Y-70693050D03*
D12*
X117102500Y-68153050D03*
X123452500Y-65613050D03*
%TD*%
D10*
%TO.C,SW86*%
X406345000Y-127843050D03*
D11*
X411425000Y-127843050D03*
D10*
X416505000Y-127843050D03*
D12*
X407615000Y-125303050D03*
X413965000Y-122763050D03*
%TD*%
D10*
%TO.C,SW33*%
X353957500Y-69740550D03*
D11*
X359037500Y-69740550D03*
D10*
X364117500Y-69740550D03*
D12*
X355227500Y-67200550D03*
X361577500Y-64660550D03*
%TD*%
D10*
%TO.C,SW13*%
X338188094Y-52792413D03*
D11*
X343190917Y-51910280D03*
D10*
X348193740Y-51028147D03*
D12*
X338997733Y-50070468D03*
X344810196Y-46466390D03*
%TD*%
D10*
%TO.C,SW55*%
X410631250Y-89743050D03*
D11*
X415711250Y-89743050D03*
D10*
X420791250Y-89743050D03*
D12*
X411901250Y-87203050D03*
X418251250Y-84663050D03*
%TD*%
D10*
%TO.C,SW71*%
X353957500Y-108793050D03*
D11*
X359037500Y-108793050D03*
D10*
X364117500Y-108793050D03*
D12*
X355227500Y-106253050D03*
X361577500Y-103713050D03*
%TD*%
D11*
%TO.C,S40*%
X498420000Y-68311800D03*
X498420000Y-92124300D03*
%TD*%
D10*
%TO.C,SW36*%
X415870000Y-70693050D03*
D11*
X420950000Y-70693050D03*
D10*
X426030000Y-70693050D03*
D12*
X417140000Y-68153050D03*
X423490000Y-65613050D03*
%TD*%
D10*
%TO.C,SW34*%
X373007500Y-70693050D03*
D11*
X378087500Y-70693050D03*
D10*
X383167500Y-70693050D03*
D12*
X374277500Y-68153050D03*
X380627500Y-65613050D03*
%TD*%
D10*
%TO.C,SW42*%
X82495000Y-89743050D03*
D11*
X87575000Y-89743050D03*
D10*
X92655000Y-89743050D03*
D12*
X83765000Y-87203050D03*
X90115000Y-84663050D03*
%TD*%
D11*
%TO.C,S55*%
X403805000Y-97998050D03*
X427617500Y-97998050D03*
%TD*%
D10*
%TO.C,SW46*%
X181928499Y-92684320D03*
D11*
X186931322Y-93566453D03*
D10*
X191934145Y-94448586D03*
D12*
X183620271Y-90403442D03*
X190314866Y-89004696D03*
%TD*%
D10*
%TO.C,SW21*%
X63445000Y-70693050D03*
D11*
X68525000Y-70693050D03*
D10*
X73605000Y-70693050D03*
D12*
X64715000Y-68153050D03*
X71065000Y-65613050D03*
%TD*%
D10*
%TO.C,SW35*%
X392057500Y-70693050D03*
D11*
X397137500Y-70693050D03*
D10*
X402217500Y-70693050D03*
D12*
X393327500Y-68153050D03*
X399677500Y-65613050D03*
%TD*%
D10*
%TO.C,SW45*%
X163167911Y-89376322D03*
D11*
X168170734Y-90258455D03*
D10*
X173173557Y-91140588D03*
D12*
X164859683Y-87095444D03*
X171554278Y-85696698D03*
%TD*%
D10*
%TO.C,SW64*%
X188938824Y-113264307D03*
D11*
X193941647Y-114146440D03*
D10*
X198944470Y-115028573D03*
D12*
X190630596Y-110983429D03*
X197325191Y-109584683D03*
%TD*%
D10*
%TO.C,SW70*%
X333103618Y-111720575D03*
D11*
X338106441Y-110838442D03*
D10*
X343109264Y-109956309D03*
D12*
X333913257Y-108998630D03*
X339725720Y-105394552D03*
%TD*%
D10*
%TO.C,SW9*%
X230755817Y-62606140D03*
D11*
X235758640Y-63488273D03*
D10*
X240761463Y-64370406D03*
D12*
X232447589Y-60325262D03*
X239142184Y-58926516D03*
%TD*%
D10*
%TO.C,SW41*%
X63445000Y-89743050D03*
D11*
X68525000Y-89743050D03*
D10*
X73605000Y-89743050D03*
D12*
X64715000Y-87203050D03*
X71065000Y-84663050D03*
%TD*%
D10*
%TO.C,SW11*%
X300666919Y-59408409D03*
D11*
X305669742Y-58526276D03*
D10*
X310672565Y-57644143D03*
D12*
X301476558Y-56686464D03*
X307289021Y-53082386D03*
%TD*%
D10*
%TO.C,SW37*%
X444445000Y-70693050D03*
D11*
X449525000Y-70693050D03*
D10*
X454605000Y-70693050D03*
D12*
X445715000Y-68153050D03*
X452065000Y-65613050D03*
%TD*%
D10*
%TO.C,SW78*%
X63445000Y-127843050D03*
D11*
X68525000Y-127843050D03*
D10*
X73605000Y-127843050D03*
D12*
X64715000Y-125303050D03*
X71065000Y-122763050D03*
%TD*%
D10*
%TO.C,SW54*%
X379675000Y-89743050D03*
D11*
X384755000Y-89743050D03*
D10*
X389835000Y-89743050D03*
D12*
X380945000Y-87203050D03*
X387295000Y-84663050D03*
%TD*%
D10*
%TO.C,SW53*%
X360625000Y-89743050D03*
D11*
X365705000Y-89743050D03*
D10*
X370785000Y-89743050D03*
D12*
X361895000Y-87203050D03*
X368245000Y-84663050D03*
%TD*%
D10*
%TO.C,SW75*%
X463495000Y-108793050D03*
D11*
X468575000Y-108793050D03*
D10*
X473655000Y-108793050D03*
D12*
X464765000Y-106253050D03*
X471115000Y-103713050D03*
%TD*%
D10*
%TO.C,SW47*%
X200689086Y-95992318D03*
D11*
X205691909Y-96874451D03*
D10*
X210694732Y-97756584D03*
D12*
X202380858Y-93711440D03*
X209075453Y-92312694D03*
%TD*%
D10*
%TO.C,SW17*%
X444445000Y-51643050D03*
D11*
X449525000Y-51643050D03*
D10*
X454605000Y-51643050D03*
D12*
X445715000Y-49103050D03*
X452065000Y-46563050D03*
%TD*%
D11*
%TO.C,S16*%
X399518750Y-59898050D03*
X423331250Y-59898050D03*
%TD*%
D10*
%TO.C,SW69*%
X314343030Y-115028573D03*
D11*
X319345853Y-114146440D03*
D10*
X324348676Y-113264307D03*
D12*
X315152669Y-112306628D03*
X320965132Y-108702550D03*
%TD*%
D11*
%TO.C,S87*%
X470956250Y-120220000D03*
X447143750Y-120220000D03*
%TD*%
D10*
%TO.C,SW77*%
X501595000Y-118318050D03*
D11*
X506675000Y-118318050D03*
D10*
X511755000Y-118318050D03*
D12*
X502865000Y-115778050D03*
X509215000Y-113238050D03*
%TD*%
D11*
%TO.C,S82*%
X224898143Y-130566436D03*
X201447408Y-126431438D03*
%TD*%
D10*
%TO.C,SW28*%
X218067525Y-79712728D03*
D11*
X223070348Y-80594861D03*
D10*
X228073171Y-81476994D03*
D12*
X219759297Y-77431850D03*
X226453892Y-76033104D03*
%TD*%
D10*
%TO.C,SW19*%
X482545000Y-51643050D03*
D11*
X487625000Y-51643050D03*
D10*
X492705000Y-51643050D03*
D12*
X483815000Y-49103050D03*
X490165000Y-46563050D03*
%TD*%
D10*
%TO.C,SW66*%
X226460000Y-119880302D03*
D11*
X231462823Y-120762435D03*
D10*
X236465646Y-121644568D03*
D12*
X228151772Y-117599424D03*
X234846367Y-116200678D03*
%TD*%
D10*
%TO.C,SW79*%
X82495000Y-127843050D03*
D11*
X87575000Y-127843050D03*
D10*
X92655000Y-127843050D03*
D12*
X83765000Y-125303050D03*
X90115000Y-122763050D03*
%TD*%
D10*
%TO.C,SW18*%
X463495000Y-51643050D03*
D11*
X468575000Y-51643050D03*
D10*
X473655000Y-51643050D03*
D12*
X464765000Y-49103050D03*
X471115000Y-46563050D03*
%TD*%
D10*
%TO.C,SW57*%
X463495000Y-89743050D03*
D11*
X468575000Y-89743050D03*
D10*
X473655000Y-89743050D03*
D12*
X464765000Y-87203050D03*
X471115000Y-84663050D03*
%TD*%
D10*
%TO.C,SW83*%
X270749558Y-142059155D03*
D11*
X275752381Y-141177022D03*
D10*
X280755204Y-140294889D03*
D12*
X271559197Y-139337210D03*
X277371660Y-135733132D03*
%TD*%
D10*
%TO.C,SW6*%
X174474053Y-52682146D03*
D11*
X179476876Y-53564279D03*
D10*
X184479699Y-54446412D03*
D12*
X176165825Y-50401268D03*
X182860420Y-49002522D03*
%TD*%
D10*
%TO.C,SW43*%
X116308750Y-89743050D03*
D11*
X121388750Y-89743050D03*
D10*
X126468750Y-89743050D03*
D12*
X117578750Y-87203050D03*
X123928750Y-84663050D03*
%TD*%
D10*
%TO.C,SW32*%
X332115798Y-73207000D03*
D11*
X337118621Y-72324867D03*
D10*
X342121444Y-71442734D03*
D12*
X332925437Y-70485055D03*
X338737900Y-66880977D03*
%TD*%
D10*
%TO.C,SW15*%
X377770000Y-51643050D03*
D11*
X382850000Y-51643050D03*
D10*
X387930000Y-51643050D03*
D12*
X379040000Y-49103050D03*
X385390000Y-46563050D03*
%TD*%
D10*
%TO.C,SW68*%
X295582442Y-118336570D03*
D11*
X300585265Y-117454437D03*
D10*
X305588088Y-116572304D03*
D12*
X296392081Y-115614625D03*
X302204544Y-112010547D03*
%TD*%
D11*
%TO.C,S77*%
X498420000Y-106411800D03*
X498420000Y-130224300D03*
%TD*%
D10*
%TO.C,SW76*%
X482545000Y-108793050D03*
D11*
X487625000Y-108793050D03*
D10*
X492705000Y-108793050D03*
D12*
X483815000Y-106253050D03*
X490165000Y-103713050D03*
%TD*%
D10*
%TO.C,SW58*%
X482545000Y-89743050D03*
D11*
X487625000Y-89743050D03*
D10*
X492705000Y-89743050D03*
D12*
X483815000Y-87203050D03*
X490165000Y-84663050D03*
%TD*%
D10*
%TO.C,SW29*%
X275834035Y-83130993D03*
D11*
X280836858Y-82248860D03*
D10*
X285839681Y-81366727D03*
D12*
X276643674Y-80409048D03*
X282456137Y-76804970D03*
%TD*%
D10*
%TO.C,SW16*%
X406345000Y-51643050D03*
D11*
X411425000Y-51643050D03*
D10*
X416505000Y-51643050D03*
D12*
X407615000Y-49103050D03*
X413965000Y-46563050D03*
%TD*%
D10*
%TO.C,SW72*%
X373007500Y-108793050D03*
D11*
X378087500Y-108793050D03*
D10*
X383167500Y-108793050D03*
D12*
X374277500Y-106253050D03*
X380627500Y-103713050D03*
%TD*%
D10*
%TO.C,SW80*%
X111070000Y-127843050D03*
D11*
X116150000Y-127843050D03*
D10*
X121230000Y-127843050D03*
D12*
X112340000Y-125303050D03*
X118690000Y-122763050D03*
%TD*%
D10*
%TO.C,SW38*%
X463495000Y-70693050D03*
D11*
X468575000Y-70693050D03*
D10*
X473655000Y-70693050D03*
D12*
X464765000Y-68153050D03*
X471115000Y-65613050D03*
%TD*%
D10*
%TO.C,SW4*%
X134882500Y-51643050D03*
D11*
X139962500Y-51643050D03*
D10*
X145042500Y-51643050D03*
D12*
X136152500Y-49103050D03*
X142502500Y-46563050D03*
%TD*%
D10*
%TO.C,SW62*%
X149170000Y-108793050D03*
D11*
X154250000Y-108793050D03*
D10*
X159330000Y-108793050D03*
D12*
X150440000Y-106253050D03*
X156790000Y-103713050D03*
%TD*%
D10*
%TO.C,SW22*%
X82495000Y-70693050D03*
D11*
X87575000Y-70693050D03*
D10*
X92655000Y-70693050D03*
D12*
X83765000Y-68153050D03*
X90115000Y-65613050D03*
%TD*%
D13*
%TO.C,U1*%
X260335000Y-41120550D03*
D14*
X260035000Y-44150550D03*
X255185000Y-44150550D03*
D13*
X254885000Y-41120550D03*
D15*
X266500000Y-40990550D03*
X266500000Y-43530550D03*
D16*
X266500000Y-46070550D03*
D15*
X266500000Y-48610550D03*
X266500000Y-51150550D03*
X266500000Y-53690550D03*
X266500000Y-56230550D03*
D16*
X266500000Y-58770550D03*
D15*
X266500000Y-61310550D03*
X266500000Y-63850550D03*
X266500000Y-66390550D03*
X266500000Y-68930550D03*
D16*
X266500000Y-71470550D03*
D15*
X266500000Y-74010550D03*
X266500000Y-76550550D03*
X266500000Y-79090550D03*
X266500000Y-81630550D03*
D16*
X266500000Y-84170550D03*
D15*
X266500000Y-86710550D03*
X266500000Y-89250550D03*
X248720000Y-89250550D03*
X248720000Y-86710550D03*
D16*
X248720000Y-84170550D03*
D15*
X248720000Y-81630550D03*
X248720000Y-79090550D03*
X248720000Y-76550550D03*
X248720000Y-74010550D03*
D16*
X248720000Y-71470550D03*
D15*
X248720000Y-68930550D03*
X248720000Y-66390550D03*
X248720000Y-63850550D03*
X248720000Y-61310550D03*
D16*
X248720000Y-58770550D03*
D15*
X248720000Y-56230550D03*
X248720000Y-53690550D03*
X248720000Y-51150550D03*
X248720000Y-48610550D03*
D16*
X248720000Y-46070550D03*
D15*
X248720000Y-43530550D03*
X248720000Y-40990550D03*
X260150000Y-89020550D03*
D16*
X257610000Y-89020550D03*
D15*
X255070000Y-89020550D03*
%TD*%
%LPD*%
M02*
