M48
; DRILL file {KiCad 8.0.1} date 2024-04-27T19:13:13+0900
; FORMAT={-:-/ absolute / inch / decimal}
; #@! TF.CreationDate,2024-04-27T19:13:13+09:00
; #@! TF.GenerationSoftware,Kicad,Pcbnew,8.0.1
; #@! TF.FileFunction,Plated,1,2,PTH
FMAT,2
INCH
; #@! TA.AperFunction,Plated,PTH,ViaDrill
T1C0.0118
; #@! TA.AperFunction,Plated,PTH,ComponentDrill
T2C0.0402
; #@! TA.AperFunction,Plated,PTH,ComponentDrill
T3C0.1181
; #@! TA.AperFunction,Plated,PTH,ComponentDrill
T4C0.1200
%
G90
G05
T1
X9.1339Y-3.3937
X9.1339Y-3.685
X9.1732Y-3.685
X9.4488Y-2.8189
X9.4488Y-3.7087
X9.8425Y-5.7049
X10.3622Y-4.9011
X10.3858Y-4.0909
X10.4094Y-3.7323
X10.4331Y-3.7087
X10.6457Y-3.7087
X10.6693Y-3.7323
X10.9213Y-3.3858
X11.1575Y-2.6457
T2
X9.7921Y-1.6138
X9.7921Y-1.7138
X9.7921Y-1.8138
X9.7921Y-1.9138
X9.7921Y-2.0138
X9.7921Y-2.1138
X9.7921Y-2.2138
X9.7921Y-2.3138
X9.7921Y-2.4138
X9.7921Y-2.5138
X9.7921Y-2.6138
X9.7921Y-2.7138
X9.7921Y-2.8138
X9.7921Y-2.9138
X9.7921Y-3.0138
X9.7921Y-3.1138
X9.7921Y-3.2138
X9.7921Y-3.3138
X9.7921Y-3.4138
X9.7921Y-3.5138
X10.0421Y-3.5047
X10.1421Y-3.5047
X10.2421Y-3.5047
X10.4921Y-1.6138
X10.4921Y-1.7138
X10.4921Y-1.8138
X10.4921Y-1.9138
X10.4921Y-2.0138
X10.4921Y-2.1138
X10.4921Y-2.2138
X10.4921Y-2.3138
X10.4921Y-2.4138
X10.4921Y-2.5138
X10.4921Y-2.6138
X10.4921Y-2.7138
X10.4921Y-2.8138
X10.4921Y-2.9138
X10.4921Y-3.0138
X10.4921Y-3.1138
X10.4921Y-3.2138
X10.4921Y-3.3138
X10.4921Y-3.4138
X10.4921Y-3.5138
T3
X2.5478Y-1.9332
X2.5478Y-2.6832
X2.5478Y-3.4332
X2.5478Y-4.1832
X2.5478Y-4.9332
X2.7978Y-1.8332
X2.7978Y-2.5832
X2.7978Y-3.3332
X2.7978Y-4.0832
X2.7978Y-4.8332
X3.2978Y-1.9332
X3.2978Y-2.6832
X3.2978Y-3.4332
X3.2978Y-4.1832
X3.2978Y-4.9332
X3.5478Y-1.8332
X3.5478Y-2.5832
X3.5478Y-3.3332
X3.5478Y-4.0832
X3.5478Y-4.8332
X4.4228Y-4.9332
X4.6103Y-1.9332
X4.6103Y-2.6832
X4.6291Y-3.4332
X4.6728Y-4.8332
X4.7041Y-4.1832
X4.8603Y-1.8332
X4.8603Y-2.5832
X4.8791Y-3.3332
X4.9541Y-4.0832
X5.3603Y-1.9332
X5.5478Y-2.6832
X5.6103Y-1.8332
X5.6603Y-3.4332
X5.7978Y-2.5832
X5.9103Y-3.3332
X5.9228Y-4.1832
X6.1728Y-4.0832
X6.1971Y-1.8541
X6.4361Y-2.6578
X6.4606Y-1.799
X6.4905Y-3.429
X6.6077Y-4.9969
X6.6997Y-2.6027
X6.7541Y-3.3739
X6.7665Y-4.2392
X6.8697Y-4.935
X6.9357Y-1.9843
X7.0301Y-4.1841
X7.1747Y-2.788
X7.1992Y-1.9292
X7.2291Y-3.5592
X7.4383Y-2.733
X7.4927Y-3.5041
X7.5051Y-4.3694
X7.6743Y-2.1145
X7.7687Y-4.3144
X7.9133Y-2.9183
X7.9378Y-2.0595
X7.9678Y-3.6894
X8.1769Y-2.8632
X8.2058Y-5.2545
X8.2313Y-3.6344
X8.2437Y-4.4997
X8.4129Y-2.2448
X8.4694Y-5.1995
X8.5073Y-4.4446
X8.6519Y-3.0485
X8.6764Y-2.1897
X8.7064Y-3.8197
X8.9155Y-2.9934
X8.9699Y-3.7646
X8.9824Y-4.6299
X9.1515Y-2.375
X9.2459Y-4.5748
X9.415Y-2.3199
X10.6913Y-5.4857
X10.8915Y-3.1657
X10.9201Y-5.3438
X10.9304Y-4.682
X11.1203Y-3.0238
X11.1305Y-2.362
X11.1592Y-4.5401
X11.2064Y-3.8718
X11.3594Y-2.2201
X11.4352Y-3.7299
X11.6301Y-3.0355
X11.669Y-4.5518
X11.8589Y-2.8936
X11.8692Y-2.2318
X11.8915Y-5.2741
X11.8978Y-4.4099
X11.945Y-3.7415
X12.098Y-2.0899
X12.1204Y-5.1322
X12.1738Y-3.5996
X12.3687Y-2.9052
X12.4076Y-4.4215
X12.5975Y-2.7633
X12.6078Y-2.1015
X12.6364Y-4.2796
X12.6836Y-3.6113
X12.8366Y-1.9596
X12.9124Y-3.4694
X13.1073Y-2.775
X13.1462Y-4.2913
X13.3185Y-5.058
X13.3361Y-2.6331
X13.3464Y-1.9713
X13.375Y-4.1494
X13.4222Y-3.481
X13.5567Y-4.9324
X13.5752Y-1.8294
X13.651Y-3.3392
X13.9853Y-2.6457
X13.9853Y-4.1832
X14.1728Y-1.8957
X14.2353Y-2.5457
X14.2353Y-4.0832
X14.2478Y-3.4332
X14.4228Y-1.7957
X14.4978Y-3.3332
X14.7353Y-2.6832
X14.7353Y-4.1832
X14.9228Y-1.9332
X14.9853Y-2.5832
X14.9853Y-4.0832
X14.9978Y-3.4332
X15.1728Y-1.8332
X15.2478Y-3.3332
X15.4853Y-2.6832
X15.7353Y-2.5832
X15.7666Y-4.1832
X16.0166Y-4.0832
X16.0478Y-1.9332
X16.0478Y-4.9332
X16.2166Y-3.4332
X16.2978Y-1.8332
X16.2978Y-4.8332
X16.4228Y-2.6832
X16.4666Y-3.3332
X16.6728Y-2.5832
X17.5478Y-1.9332
X17.5478Y-2.6832
X17.5478Y-3.4332
X17.5478Y-4.1832
X17.7978Y-1.8332
X17.7978Y-2.5832
X17.7978Y-3.3332
X17.7978Y-4.0832
X17.9228Y-4.9332
X18.1728Y-4.8332
X18.2978Y-1.9332
X18.2978Y-2.6832
X18.2978Y-3.4332
X18.2978Y-4.1832
X18.5478Y-1.8332
X18.5478Y-2.5832
X18.5478Y-3.3332
X18.5478Y-4.0832
X19.0478Y-1.9332
X19.0478Y-2.6832
X19.0478Y-3.4332
X19.0478Y-4.1832
X19.0478Y-4.9332
X19.2978Y-1.8332
X19.2978Y-2.5832
X19.2978Y-3.3332
X19.2978Y-4.0832
X19.2978Y-4.8332
X19.7978Y-1.9332
X19.7978Y-3.0582
X19.7978Y-4.5582
X20.0478Y-1.8332
X20.0478Y-2.9582
X20.0478Y-4.4582
T4
X4.3853Y-4.0082
X5.3228Y-4.0082
X7.8268Y-5.5685
X8.7501Y-5.7313
X11.6428Y-5.6987
X12.566Y-5.5359
X15.7291Y-1.7582
X15.8978Y-3.2582
X16.6666Y-1.7582
X16.8353Y-3.2582
X17.6041Y-5.3331
X18.5416Y-5.3331
X20.2228Y-2.6894
X20.2228Y-3.6269
X20.2228Y-4.1894
X20.2228Y-5.1269
M30
