%TF.GenerationSoftware,KiCad,Pcbnew,8.0.1*%
%TF.CreationDate,2024-04-27T19:13:13+09:00*%
%TF.ProjectId,sand-at,73616e64-2d61-4742-9e6b-696361645f70,rev?*%
%TF.SameCoordinates,Original*%
%TF.FileFunction,Paste,Bot*%
%TF.FilePolarity,Positive*%
%FSLAX46Y46*%
G04 Gerber Fmt 4.6, Leading zero omitted, Abs format (unit mm)*
G04 Created by KiCad (PCBNEW 8.0.1) date 2024-04-27 19:13:13*
%MOMM*%
%LPD*%
G01*
G04 APERTURE LIST*
G04 Aperture macros list*
%AMRoundRect*
0 Rectangle with rounded corners*
0 $1 Rounding radius*
0 $2 $3 $4 $5 $6 $7 $8 $9 X,Y pos of 4 corners*
0 Add a 4 corners polygon primitive as box body*
4,1,4,$2,$3,$4,$5,$6,$7,$8,$9,$2,$3,0*
0 Add four circle primitives for the rounded corners*
1,1,$1+$1,$2,$3*
1,1,$1+$1,$4,$5*
1,1,$1+$1,$6,$7*
1,1,$1+$1,$8,$9*
0 Add four rect primitives between the rounded corners*
20,1,$1+$1,$2,$3,$4,$5,0*
20,1,$1+$1,$4,$5,$6,$7,0*
20,1,$1+$1,$6,$7,$8,$9,0*
20,1,$1+$1,$8,$9,$2,$3,0*%
G04 Aperture macros list end*
%ADD10RoundRect,0.250000X-0.835780X-1.162797X1.183076X-0.806818X0.835780X1.162797X-1.183076X0.806818X0*%
%ADD11RoundRect,0.250000X-1.025000X-1.000000X1.025000X-1.000000X1.025000X1.000000X-1.025000X1.000000X0*%
%ADD12RoundRect,0.250000X-1.183076X-0.806818X0.835780X-1.162797X1.183076X0.806818X-0.835780X1.162797X0*%
%ADD13RoundRect,0.250000X-0.914856X-1.101664X1.123913X-0.887380X0.914856X1.101664X-1.123913X0.887380X0*%
%ADD14RoundRect,0.250000X-1.161551X-0.837511X0.865932X-1.140521X1.161551X0.837511X-0.865932X1.140521X0*%
%ADD15RoundRect,0.225000X0.330232X-0.286700X0.408374X0.156464X-0.330232X0.286700X-0.408374X-0.156464X0*%
%ADD16RoundRect,0.225000X0.396465X-0.184569X0.349427X0.262966X-0.396465X0.184569X-0.349427X-0.262966X0*%
%ADD17RoundRect,0.225000X0.408374X-0.156464X0.330232X0.286700X-0.408374X0.156464X-0.330232X-0.286700X0*%
%ADD18RoundRect,0.225000X0.375000X-0.225000X0.375000X0.225000X-0.375000X0.225000X-0.375000X-0.225000X0*%
%ADD19RoundRect,0.225000X0.337624X-0.277957X0.404138X0.167100X-0.337624X0.277957X-0.404138X-0.167100X0*%
G04 APERTURE END LIST*
D10*
%TO.C,SW52*%
X337427515Y-89035094D03*
X350232112Y-84198114D03*
%TD*%
D11*
%TO.C,SW60*%
X80215000Y-106253050D03*
X93665000Y-103713050D03*
%TD*%
D12*
%TO.C,SW27*%
X197502641Y-73507402D03*
X211189372Y-73341558D03*
%TD*%
%TO.C,SW7*%
X191430345Y-53092815D03*
X205117076Y-52926971D03*
%TD*%
D10*
%TO.C,SW51*%
X318666927Y-92343092D03*
X331471524Y-87506112D03*
%TD*%
%TO.C,SW67*%
X274135426Y-119539074D03*
X286940023Y-114702094D03*
%TD*%
D11*
%TO.C,SW88*%
X480265000Y-125303050D03*
X493715000Y-122763050D03*
%TD*%
%TO.C,SW14*%
X356440000Y-48150550D03*
X369890000Y-45610550D03*
%TD*%
D13*
%TO.C,SW85*%
X334759156Y-128843748D03*
X347869973Y-124911754D03*
%TD*%
D10*
%TO.C,SW12*%
X316741079Y-53994917D03*
X329545676Y-49157937D03*
%TD*%
D11*
%TO.C,SW59*%
X61165000Y-106253050D03*
X74615000Y-103713050D03*
%TD*%
%TO.C,SW44*%
X140222500Y-87203050D03*
X153672500Y-84663050D03*
%TD*%
%TO.C,SW87*%
X451690000Y-125303050D03*
X465140000Y-122763050D03*
%TD*%
D10*
%TO.C,SW49*%
X281145752Y-98959088D03*
X293950349Y-94122108D03*
%TD*%
D11*
%TO.C,SW20*%
X499315000Y-49103050D03*
X512765000Y-46563050D03*
%TD*%
%TO.C,SW2*%
X80215000Y-49103050D03*
X93665000Y-46563050D03*
%TD*%
D10*
%TO.C,SW30*%
X291908195Y-77717502D03*
X304712792Y-72880522D03*
%TD*%
D11*
%TO.C,SW73*%
X396921250Y-106253050D03*
X410371250Y-103713050D03*
%TD*%
D10*
%TO.C,SW10*%
X279219903Y-60610913D03*
X292024500Y-55773933D03*
%TD*%
D12*
%TO.C,SW25*%
X159981466Y-66891406D03*
X173668197Y-66725562D03*
%TD*%
D10*
%TO.C,SW31*%
X310668783Y-74409504D03*
X323473380Y-69572524D03*
%TD*%
D12*
%TO.C,SW82*%
X204932191Y-132849063D03*
X218618922Y-132683219D03*
%TD*%
D11*
%TO.C,SW39*%
X480265000Y-68153050D03*
X493715000Y-65613050D03*
%TD*%
%TO.C,SW40*%
X499315000Y-77678050D03*
X512765000Y-75138050D03*
%TD*%
%TO.C,SW3*%
X113552500Y-49103050D03*
X127002500Y-46563050D03*
%TD*%
%TO.C,SW74*%
X442165000Y-106253050D03*
X455615000Y-103713050D03*
%TD*%
D12*
%TO.C,SW63*%
X168373940Y-107058980D03*
X182060671Y-106893136D03*
%TD*%
%TO.C,SW65*%
X205895116Y-113674975D03*
X219581847Y-113509131D03*
%TD*%
D10*
%TO.C,SW84*%
X298549085Y-134578164D03*
X311353682Y-129741184D03*
%TD*%
D11*
%TO.C,SW1*%
X61165000Y-49103050D03*
X74615000Y-46563050D03*
%TD*%
D14*
%TO.C,SW81*%
X164324199Y-126396615D03*
X178001898Y-125872552D03*
%TD*%
D10*
%TO.C,SW50*%
X299906340Y-95651090D03*
X312710937Y-90814110D03*
%TD*%
D11*
%TO.C,SW24*%
X137365000Y-68153050D03*
X150815000Y-65613050D03*
%TD*%
D12*
%TO.C,SW48*%
X217645378Y-96402987D03*
X231332109Y-96237143D03*
%TD*%
D11*
%TO.C,SW56*%
X442165000Y-87203050D03*
X455615000Y-84663050D03*
%TD*%
D12*
%TO.C,SW5*%
X153909170Y-46476820D03*
X167595901Y-46310976D03*
%TD*%
%TO.C,SW26*%
X178742054Y-70199404D03*
X192428785Y-70033560D03*
%TD*%
D11*
%TO.C,SW61*%
X115933750Y-106253050D03*
X129383750Y-103713050D03*
%TD*%
D12*
%TO.C,SW8*%
X210190933Y-56400813D03*
X223877664Y-56234969D03*
%TD*%
D11*
%TO.C,SW23*%
X113552500Y-68153050D03*
X127002500Y-65613050D03*
%TD*%
%TO.C,SW86*%
X404065000Y-125303050D03*
X417515000Y-122763050D03*
%TD*%
%TO.C,SW33*%
X351677500Y-67200550D03*
X365127500Y-64660550D03*
%TD*%
D10*
%TO.C,SW13*%
X335501666Y-50686919D03*
X348306263Y-45849939D03*
%TD*%
D11*
%TO.C,SW55*%
X408351250Y-87203050D03*
X421801250Y-84663050D03*
%TD*%
%TO.C,SW71*%
X351677500Y-106253050D03*
X365127500Y-103713050D03*
%TD*%
%TO.C,SW36*%
X413590000Y-68153050D03*
X427040000Y-65613050D03*
%TD*%
%TO.C,SW34*%
X370727500Y-68153050D03*
X384177500Y-65613050D03*
%TD*%
%TO.C,SW42*%
X80215000Y-87203050D03*
X93665000Y-84663050D03*
%TD*%
D12*
%TO.C,SW46*%
X180124203Y-89786991D03*
X193810934Y-89621147D03*
%TD*%
D11*
%TO.C,SW21*%
X61165000Y-68153050D03*
X74615000Y-65613050D03*
%TD*%
%TO.C,SW35*%
X389777500Y-68153050D03*
X403227500Y-65613050D03*
%TD*%
D12*
%TO.C,SW45*%
X161363615Y-86478993D03*
X175050346Y-86313149D03*
%TD*%
%TO.C,SW64*%
X187134528Y-110366978D03*
X200821259Y-110201134D03*
%TD*%
D10*
%TO.C,SW70*%
X330417190Y-109615081D03*
X343221787Y-104778101D03*
%TD*%
D12*
%TO.C,SW9*%
X228951521Y-59708811D03*
X242638252Y-59542967D03*
%TD*%
D11*
%TO.C,SW41*%
X61165000Y-87203050D03*
X74615000Y-84663050D03*
%TD*%
D10*
%TO.C,SW11*%
X297980491Y-57302915D03*
X310785088Y-52465935D03*
%TD*%
D11*
%TO.C,SW37*%
X442165000Y-68153050D03*
X455615000Y-65613050D03*
%TD*%
%TO.C,SW78*%
X61165000Y-125303050D03*
X74615000Y-122763050D03*
%TD*%
%TO.C,SW54*%
X377395000Y-87203050D03*
X390845000Y-84663050D03*
%TD*%
%TO.C,SW53*%
X358345000Y-87203050D03*
X371795000Y-84663050D03*
%TD*%
%TO.C,SW75*%
X461215000Y-106253050D03*
X474665000Y-103713050D03*
%TD*%
D12*
%TO.C,SW47*%
X198884790Y-93094989D03*
X212571521Y-92929145D03*
%TD*%
D11*
%TO.C,SW17*%
X442165000Y-49103050D03*
X455615000Y-46563050D03*
%TD*%
D10*
%TO.C,SW69*%
X311656602Y-112923079D03*
X324461199Y-108086099D03*
%TD*%
D11*
%TO.C,SW77*%
X499315000Y-115778050D03*
X512765000Y-113238050D03*
%TD*%
D12*
%TO.C,SW28*%
X216263229Y-76815399D03*
X229949960Y-76649555D03*
%TD*%
D11*
%TO.C,SW19*%
X480265000Y-49103050D03*
X493715000Y-46563050D03*
%TD*%
D12*
%TO.C,SW66*%
X224655704Y-116982973D03*
X238342435Y-116817129D03*
%TD*%
D11*
%TO.C,SW79*%
X80215000Y-125303050D03*
X93665000Y-122763050D03*
%TD*%
%TO.C,SW18*%
X461215000Y-49103050D03*
X474665000Y-46563050D03*
%TD*%
%TO.C,SW57*%
X461215000Y-87203050D03*
X474665000Y-84663050D03*
%TD*%
D10*
%TO.C,SW83*%
X268063130Y-139953661D03*
X280867727Y-135116681D03*
%TD*%
D12*
%TO.C,SW6*%
X172669757Y-49784817D03*
X186356488Y-49618973D03*
%TD*%
D11*
%TO.C,SW43*%
X114028750Y-87203050D03*
X127478750Y-84663050D03*
%TD*%
D10*
%TO.C,SW32*%
X329429370Y-71101506D03*
X342233967Y-66264526D03*
%TD*%
D11*
%TO.C,SW15*%
X375490000Y-49103050D03*
X388940000Y-46563050D03*
%TD*%
D10*
%TO.C,SW68*%
X292896014Y-116231076D03*
X305700611Y-111394096D03*
%TD*%
D11*
%TO.C,SW76*%
X480265000Y-106253050D03*
X493715000Y-103713050D03*
%TD*%
%TO.C,SW58*%
X480265000Y-87203050D03*
X493715000Y-84663050D03*
%TD*%
D10*
%TO.C,SW29*%
X273147607Y-81025499D03*
X285952204Y-76188519D03*
%TD*%
D11*
%TO.C,SW16*%
X404065000Y-49103050D03*
X417515000Y-46563050D03*
%TD*%
%TO.C,SW72*%
X370727500Y-106253050D03*
X384177500Y-103713050D03*
%TD*%
%TO.C,SW80*%
X108790000Y-125303050D03*
X122240000Y-122763050D03*
%TD*%
%TO.C,SW38*%
X461215000Y-68153050D03*
X474665000Y-65613050D03*
%TD*%
%TO.C,SW4*%
X132602500Y-49103050D03*
X146052500Y-46563050D03*
%TD*%
%TO.C,SW62*%
X146890000Y-106253050D03*
X160340000Y-103713050D03*
%TD*%
%TO.C,SW22*%
X80215000Y-68153050D03*
X93665000Y-65613050D03*
%TD*%
D15*
%TO.C,D7*%
X202427614Y-62363310D03*
X203000652Y-59113444D03*
%TD*%
D16*
%TO.C,D85*%
X347885703Y-134723861D03*
X347540759Y-131441939D03*
%TD*%
D17*
%TO.C,D30*%
X305412942Y-82667630D03*
X304839904Y-79417764D03*
%TD*%
%TO.C,D52*%
X350932262Y-93985222D03*
X350359224Y-90735356D03*
%TD*%
%TO.C,D12*%
X330245826Y-58945045D03*
X329672788Y-55695179D03*
%TD*%
%TO.C,D11*%
X311485238Y-62253043D03*
X310912200Y-59003177D03*
%TD*%
D18*
%TO.C,D15*%
X387930000Y-56323050D03*
X387930000Y-53023050D03*
%TD*%
%TO.C,D38*%
X473655000Y-75373050D03*
X473655000Y-72073050D03*
%TD*%
D17*
%TO.C,D50*%
X313411087Y-100601218D03*
X312838049Y-97351352D03*
%TD*%
D19*
%TO.C,D81*%
X175560372Y-135376058D03*
X176048144Y-132112306D03*
%TD*%
D18*
%TO.C,D72*%
X383167500Y-113473050D03*
X383167500Y-110173050D03*
%TD*%
%TO.C,D56*%
X454605000Y-94423050D03*
X454605000Y-91123050D03*
%TD*%
%TO.C,D58*%
X492705000Y-94423050D03*
X492705000Y-91123050D03*
%TD*%
%TO.C,D3*%
X125992500Y-56323050D03*
X125992500Y-53023050D03*
%TD*%
D15*
%TO.C,D66*%
X235652973Y-126253468D03*
X236226011Y-123003602D03*
%TD*%
D18*
%TO.C,D77*%
X511755000Y-122998050D03*
X511755000Y-119698050D03*
%TD*%
D17*
%TO.C,D10*%
X292724650Y-65561041D03*
X292151612Y-62311175D03*
%TD*%
D18*
%TO.C,D60*%
X92655000Y-113473050D03*
X92655000Y-110173050D03*
%TD*%
%TO.C,D78*%
X73605000Y-132523050D03*
X73605000Y-129223050D03*
%TD*%
%TO.C,D76*%
X492705000Y-113473050D03*
X492705000Y-110173050D03*
%TD*%
%TO.C,D16*%
X416505000Y-56323050D03*
X416505000Y-53023050D03*
%TD*%
D17*
%TO.C,D69*%
X325161349Y-117873207D03*
X324588311Y-114623341D03*
%TD*%
%TO.C,D31*%
X324173530Y-79359632D03*
X323600492Y-76109766D03*
%TD*%
D18*
%TO.C,D20*%
X511755000Y-56323050D03*
X511755000Y-53023050D03*
%TD*%
%TO.C,D61*%
X128373750Y-113473050D03*
X128373750Y-110173050D03*
%TD*%
D15*
%TO.C,D47*%
X209882059Y-102365484D03*
X210455097Y-99115618D03*
%TD*%
D18*
%TO.C,D14*%
X368880000Y-55370550D03*
X368880000Y-52070550D03*
%TD*%
%TO.C,D24*%
X149805000Y-75373050D03*
X149805000Y-72073050D03*
%TD*%
%TO.C,D79*%
X92655000Y-132523050D03*
X92655000Y-129223050D03*
%TD*%
%TO.C,D42*%
X92655000Y-94423050D03*
X92655000Y-91123050D03*
%TD*%
%TO.C,D34*%
X383167500Y-75373050D03*
X383167500Y-72073050D03*
%TD*%
D17*
%TO.C,D70*%
X343921937Y-114565209D03*
X343348899Y-111315343D03*
%TD*%
D18*
%TO.C,D59*%
X73605000Y-113473050D03*
X73605000Y-110173050D03*
%TD*%
%TO.C,D36*%
X426030000Y-75373050D03*
X426030000Y-72073050D03*
%TD*%
%TO.C,D53*%
X370785000Y-94423050D03*
X370785000Y-91123050D03*
%TD*%
D17*
%TO.C,D29*%
X286652354Y-85975627D03*
X286079316Y-82725761D03*
%TD*%
%TO.C,D67*%
X287640173Y-124489202D03*
X287067135Y-121239336D03*
%TD*%
%TO.C,D13*%
X349006413Y-55637047D03*
X348433375Y-52387181D03*
%TD*%
%TO.C,D32*%
X342934117Y-76051634D03*
X342361079Y-72801768D03*
%TD*%
D18*
%TO.C,D17*%
X454605000Y-56323050D03*
X454605000Y-53023050D03*
%TD*%
D15*
%TO.C,D5*%
X164906439Y-55747315D03*
X165479477Y-52497449D03*
%TD*%
D18*
%TO.C,D87*%
X464130000Y-132523050D03*
X464130000Y-129223050D03*
%TD*%
%TO.C,D18*%
X473655000Y-56323050D03*
X473655000Y-53023050D03*
%TD*%
%TO.C,D22*%
X92655000Y-75373050D03*
X92655000Y-72073050D03*
%TD*%
D15*
%TO.C,D45*%
X172360884Y-95749488D03*
X172933922Y-92499622D03*
%TD*%
D18*
%TO.C,D35*%
X402217500Y-75373050D03*
X402217500Y-72073050D03*
%TD*%
%TO.C,D33*%
X364117500Y-74420550D03*
X364117500Y-71120550D03*
%TD*%
%TO.C,D55*%
X420791250Y-94423050D03*
X420791250Y-91123050D03*
%TD*%
D15*
%TO.C,D46*%
X191121472Y-99057486D03*
X191694510Y-95807620D03*
%TD*%
%TO.C,D25*%
X170978735Y-76161901D03*
X171551773Y-72912035D03*
%TD*%
D18*
%TO.C,D37*%
X454605000Y-75373050D03*
X454605000Y-72073050D03*
%TD*%
%TO.C,D57*%
X473655000Y-94423050D03*
X473655000Y-91123050D03*
%TD*%
D15*
%TO.C,D9*%
X239948790Y-68979306D03*
X240521828Y-65729440D03*
%TD*%
D18*
%TO.C,D2*%
X92655000Y-56323050D03*
X92655000Y-53023050D03*
%TD*%
%TO.C,D21*%
X73605000Y-75373050D03*
X73605000Y-72073050D03*
%TD*%
D17*
%TO.C,D68*%
X306400761Y-121181204D03*
X305827723Y-117931338D03*
%TD*%
D18*
%TO.C,D75*%
X473655000Y-113473050D03*
X473655000Y-110173050D03*
%TD*%
D17*
%TO.C,D51*%
X332171674Y-97293220D03*
X331598636Y-94043354D03*
%TD*%
D15*
%TO.C,D27*%
X208499910Y-82777897D03*
X209072948Y-79528031D03*
%TD*%
D18*
%TO.C,D73*%
X409361250Y-113473050D03*
X409361250Y-110173050D03*
%TD*%
%TO.C,D54*%
X389835000Y-94423050D03*
X389835000Y-91123050D03*
%TD*%
D15*
%TO.C,D28*%
X227260498Y-86085894D03*
X227833536Y-82836028D03*
%TD*%
D17*
%TO.C,D84*%
X312053832Y-139528292D03*
X311480794Y-136278426D03*
%TD*%
D15*
%TO.C,D8*%
X221188202Y-65671308D03*
X221761240Y-62421442D03*
%TD*%
D18*
%TO.C,D4*%
X145042500Y-56323050D03*
X145042500Y-53023050D03*
%TD*%
%TO.C,D40*%
X511755000Y-84898050D03*
X511755000Y-81598050D03*
%TD*%
%TO.C,D88*%
X492705000Y-132523050D03*
X492705000Y-129223050D03*
%TD*%
%TO.C,D41*%
X73605000Y-94423050D03*
X73605000Y-91123050D03*
%TD*%
%TO.C,D44*%
X152662500Y-94423050D03*
X152662500Y-91123050D03*
%TD*%
D15*
%TO.C,D6*%
X183667026Y-59055312D03*
X184240064Y-55805446D03*
%TD*%
%TO.C,D65*%
X216892385Y-122945470D03*
X217465423Y-119695604D03*
%TD*%
D18*
%TO.C,D1*%
X73605000Y-56323050D03*
X73605000Y-53023050D03*
%TD*%
%TO.C,D39*%
X492705000Y-75373050D03*
X492705000Y-72073050D03*
%TD*%
D15*
%TO.C,D64*%
X198131797Y-119637473D03*
X198704835Y-116387607D03*
%TD*%
D17*
%TO.C,D49*%
X294650499Y-103909216D03*
X294077461Y-100659350D03*
%TD*%
D18*
%TO.C,D43*%
X126468750Y-94423050D03*
X126468750Y-91123050D03*
%TD*%
%TO.C,D80*%
X121230000Y-132523050D03*
X121230000Y-129223050D03*
%TD*%
%TO.C,D71*%
X364117500Y-113473050D03*
X364117500Y-110173050D03*
%TD*%
D17*
%TO.C,D83*%
X281567877Y-144903789D03*
X280994839Y-141653923D03*
%TD*%
D18*
%TO.C,D19*%
X492705000Y-56323050D03*
X492705000Y-53023050D03*
%TD*%
D15*
%TO.C,D26*%
X189739323Y-79469899D03*
X190312361Y-76220033D03*
%TD*%
D18*
%TO.C,D74*%
X454605000Y-113473050D03*
X454605000Y-110173050D03*
%TD*%
D15*
%TO.C,D48*%
X228642647Y-105673482D03*
X229215685Y-102423616D03*
%TD*%
D18*
%TO.C,D62*%
X159330000Y-113473050D03*
X159330000Y-110173050D03*
%TD*%
D15*
%TO.C,D63*%
X179371209Y-116329475D03*
X179944247Y-113079609D03*
%TD*%
%TO.C,D82*%
X215929460Y-142119558D03*
X216502498Y-138869692D03*
%TD*%
D18*
%TO.C,D23*%
X125992500Y-75373050D03*
X125992500Y-72073050D03*
%TD*%
%TO.C,D86*%
X416505000Y-132523050D03*
X416505000Y-129223050D03*
%TD*%
M02*
