%TF.GenerationSoftware,KiCad,Pcbnew,8.0.1*%
%TF.CreationDate,2024-04-27T19:13:13+09:00*%
%TF.ProjectId,sand-at,73616e64-2d61-4742-9e6b-696361645f70,rev?*%
%TF.SameCoordinates,Original*%
%TF.FileFunction,Soldermask,Bot*%
%TF.FilePolarity,Negative*%
%FSLAX46Y46*%
G04 Gerber Fmt 4.6, Leading zero omitted, Abs format (unit mm)*
G04 Created by KiCad (PCBNEW 8.0.1) date 2024-04-27 19:13:13*
%MOMM*%
%LPD*%
G01*
G04 APERTURE LIST*
G04 Aperture macros list*
%AMRoundRect*
0 Rectangle with rounded corners*
0 $1 Rounding radius*
0 $2 $3 $4 $5 $6 $7 $8 $9 X,Y pos of 4 corners*
0 Add a 4 corners polygon primitive as box body*
4,1,4,$2,$3,$4,$5,$6,$7,$8,$9,$2,$3,0*
0 Add four circle primitives for the rounded corners*
1,1,$1+$1,$2,$3*
1,1,$1+$1,$4,$5*
1,1,$1+$1,$6,$7*
1,1,$1+$1,$8,$9*
0 Add four rect primitives between the rounded corners*
20,1,$1+$1,$2,$3,$4,$5,0*
20,1,$1+$1,$4,$5,$6,$7,0*
20,1,$1+$1,$6,$7,$8,$9,0*
20,1,$1+$1,$8,$9,$2,$3,0*%
G04 Aperture macros list end*
%ADD10C,1.750000*%
%ADD11C,3.987800*%
%ADD12RoundRect,0.250000X-0.835780X-1.162797X1.183076X-0.806818X0.835780X1.162797X-1.183076X0.806818X0*%
%ADD13C,3.300000*%
%ADD14RoundRect,0.250000X-1.025000X-1.000000X1.025000X-1.000000X1.025000X1.000000X-1.025000X1.000000X0*%
%ADD15RoundRect,0.250000X-1.183076X-0.806818X0.835780X-1.162797X1.183076X0.806818X-0.835780X1.162797X0*%
%ADD16C,4.000000*%
%ADD17RoundRect,0.250000X-0.914856X-1.101664X1.123913X-0.887380X0.914856X1.101664X-1.123913X0.887380X0*%
%ADD18RoundRect,0.250000X-1.161551X-0.837511X0.865932X-1.140521X1.161551X0.837511X-0.865932X1.140521X0*%
%ADD19RoundRect,0.225000X0.330232X-0.286700X0.408374X0.156464X-0.330232X0.286700X-0.408374X-0.156464X0*%
%ADD20RoundRect,0.225000X0.396465X-0.184569X0.349427X0.262966X-0.396465X0.184569X-0.349427X-0.262966X0*%
%ADD21RoundRect,0.225000X0.408374X-0.156464X0.330232X0.286700X-0.408374X0.156464X-0.330232X-0.286700X0*%
%ADD22RoundRect,0.225000X0.375000X-0.225000X0.375000X0.225000X-0.375000X0.225000X-0.375000X-0.225000X0*%
%ADD23RoundRect,0.225000X0.337624X-0.277957X0.404138X0.167100X-0.337624X0.277957X-0.404138X-0.167100X0*%
%ADD24O,1.800000X1.800000*%
%ADD25O,1.500000X1.500000*%
%ADD26O,1.700000X1.700000*%
%ADD27R,3.500000X1.700000*%
%ADD28R,1.700000X1.700000*%
%ADD29R,1.700000X3.500000*%
G04 APERTURE END LIST*
D10*
%TO.C,SW52*%
X340113943Y-91140588D03*
D11*
X345116766Y-90258455D03*
D10*
X350119589Y-89376322D03*
D12*
X337427515Y-89035094D03*
D13*
X340923582Y-88418643D03*
X346736045Y-84814565D03*
D12*
X350232112Y-84198114D03*
%TD*%
D10*
%TO.C,SW60*%
X82495000Y-108793050D03*
D11*
X87575000Y-108793050D03*
D10*
X92655000Y-108793050D03*
D14*
X80215000Y-106253050D03*
D13*
X83765000Y-106253050D03*
X90115000Y-103713050D03*
D14*
X93665000Y-103713050D03*
%TD*%
D10*
%TO.C,SW27*%
X199306937Y-76404731D03*
D11*
X204309760Y-77286864D03*
D10*
X209312583Y-78168997D03*
D15*
X197502641Y-73507402D03*
D13*
X200998709Y-74123853D03*
X207693304Y-72725107D03*
D15*
X211189372Y-73341558D03*
%TD*%
D10*
%TO.C,SW7*%
X193234641Y-55990144D03*
D11*
X198237464Y-56872277D03*
D10*
X203240287Y-57754410D03*
D15*
X191430345Y-53092815D03*
D13*
X194926413Y-53709266D03*
X201621008Y-52310520D03*
D15*
X205117076Y-52926971D03*
%TD*%
D16*
%TO.C,S84*%
X319176636Y-140612909D03*
D11*
X316530238Y-125604438D03*
D16*
X295725901Y-144747906D03*
D11*
X293079503Y-129739436D03*
%TD*%
D10*
%TO.C,SW51*%
X321353355Y-94448586D03*
D11*
X326356178Y-93566453D03*
D10*
X331359001Y-92684320D03*
D12*
X318666927Y-92343092D03*
D13*
X322162994Y-91726641D03*
X327975457Y-88122563D03*
D12*
X331471524Y-87506112D03*
%TD*%
D10*
%TO.C,SW67*%
X276821854Y-121644568D03*
D11*
X281824677Y-120762435D03*
D10*
X286827500Y-119880302D03*
D12*
X274135426Y-119539074D03*
D13*
X277631493Y-118922623D03*
X283443956Y-115318545D03*
D12*
X286940023Y-114702094D03*
%TD*%
D10*
%TO.C,SW88*%
X482545000Y-127843050D03*
D11*
X487625000Y-127843050D03*
D10*
X492705000Y-127843050D03*
D14*
X480265000Y-125303050D03*
D13*
X483815000Y-125303050D03*
X490165000Y-122763050D03*
D14*
X493715000Y-122763050D03*
%TD*%
D10*
%TO.C,SW14*%
X358720000Y-50690550D03*
D11*
X363800000Y-50690550D03*
D10*
X368880000Y-50690550D03*
D14*
X356440000Y-48150550D03*
D13*
X359990000Y-48150550D03*
X366340000Y-45610550D03*
D14*
X369890000Y-45610550D03*
%TD*%
D10*
%TO.C,SW85*%
X337292168Y-131131509D03*
D11*
X342344339Y-130600504D03*
D10*
X347396510Y-130069499D03*
D17*
X334759156Y-128843748D03*
D13*
X338289708Y-128472672D03*
X344339420Y-125282830D03*
D17*
X347869973Y-124911754D03*
%TD*%
D10*
%TO.C,SW12*%
X319427507Y-56100411D03*
D11*
X324430330Y-55218278D03*
D10*
X329433153Y-54336145D03*
D12*
X316741079Y-53994917D03*
D13*
X320237146Y-53378466D03*
X326049609Y-49774388D03*
D12*
X329545676Y-49157937D03*
%TD*%
D10*
%TO.C,SW59*%
X63445000Y-108793050D03*
D11*
X68525000Y-108793050D03*
D10*
X73605000Y-108793050D03*
D14*
X61165000Y-106253050D03*
D13*
X64715000Y-106253050D03*
X71065000Y-103713050D03*
D14*
X74615000Y-103713050D03*
%TD*%
D10*
%TO.C,SW44*%
X142502500Y-89743050D03*
D11*
X147582500Y-89743050D03*
D10*
X152662500Y-89743050D03*
D14*
X140222500Y-87203050D03*
D13*
X143772500Y-87203050D03*
X150122500Y-84663050D03*
D14*
X153672500Y-84663050D03*
%TD*%
D10*
%TO.C,SW87*%
X453970000Y-127843050D03*
D11*
X459050000Y-127843050D03*
D10*
X464130000Y-127843050D03*
D14*
X451690000Y-125303050D03*
D13*
X455240000Y-125303050D03*
X461590000Y-122763050D03*
D14*
X465140000Y-122763050D03*
%TD*%
D10*
%TO.C,SW49*%
X283832180Y-101064582D03*
D11*
X288835003Y-100182449D03*
D10*
X293837826Y-99300316D03*
D12*
X281145752Y-98959088D03*
D13*
X284641819Y-98342637D03*
X290454282Y-94738559D03*
D12*
X293950349Y-94122108D03*
%TD*%
D10*
%TO.C,SW20*%
X501595000Y-51643050D03*
D11*
X506675000Y-51643050D03*
D10*
X511755000Y-51643050D03*
D14*
X499315000Y-49103050D03*
D13*
X502865000Y-49103050D03*
X509215000Y-46563050D03*
D14*
X512765000Y-46563050D03*
%TD*%
D10*
%TO.C,SW2*%
X82495000Y-51643050D03*
D11*
X87575000Y-51643050D03*
D10*
X92655000Y-51643050D03*
D14*
X80215000Y-49103050D03*
D13*
X83765000Y-49103050D03*
X90115000Y-46563050D03*
D14*
X93665000Y-46563050D03*
%TD*%
D10*
%TO.C,SW30*%
X294594623Y-79822996D03*
D11*
X299597446Y-78940863D03*
D10*
X304600269Y-78058730D03*
D12*
X291908195Y-77717502D03*
D13*
X295404262Y-77101051D03*
X301216725Y-73496973D03*
D12*
X304712792Y-72880522D03*
%TD*%
D10*
%TO.C,SW73*%
X399201250Y-108793050D03*
D11*
X404281250Y-108793050D03*
D10*
X409361250Y-108793050D03*
D14*
X396921250Y-106253050D03*
D13*
X400471250Y-106253050D03*
X406821250Y-103713050D03*
D14*
X410371250Y-103713050D03*
%TD*%
D10*
%TO.C,SW10*%
X281906331Y-62716407D03*
D11*
X286909154Y-61834274D03*
D10*
X291911977Y-60952141D03*
D12*
X279219903Y-60610913D03*
D13*
X282715970Y-59994462D03*
X288528433Y-56390384D03*
D12*
X292024500Y-55773933D03*
%TD*%
D10*
%TO.C,SW25*%
X161785762Y-69788735D03*
D11*
X166788585Y-70670868D03*
D10*
X171791408Y-71553001D03*
D15*
X159981466Y-66891406D03*
D13*
X163477534Y-67507857D03*
X170172129Y-66109111D03*
D15*
X173668197Y-66725562D03*
%TD*%
D10*
%TO.C,SW31*%
X313355211Y-76514998D03*
D11*
X318358034Y-75632865D03*
D10*
X323360857Y-74750732D03*
D12*
X310668783Y-74409504D03*
D13*
X314164850Y-73793053D03*
X319977313Y-70188975D03*
D12*
X323473380Y-69572524D03*
%TD*%
D10*
%TO.C,SW82*%
X206736487Y-135746392D03*
D11*
X211739310Y-136628525D03*
D10*
X216742133Y-137510658D03*
D15*
X204932191Y-132849063D03*
D13*
X208428259Y-133465514D03*
X215122854Y-132066768D03*
D15*
X218618922Y-132683219D03*
%TD*%
D10*
%TO.C,SW39*%
X482545000Y-70693050D03*
D11*
X487625000Y-70693050D03*
D10*
X492705000Y-70693050D03*
D14*
X480265000Y-68153050D03*
D13*
X483815000Y-68153050D03*
X490165000Y-65613050D03*
D14*
X493715000Y-65613050D03*
%TD*%
D10*
%TO.C,SW40*%
X501595000Y-80218050D03*
D11*
X506675000Y-80218050D03*
D10*
X511755000Y-80218050D03*
D14*
X499315000Y-77678050D03*
D13*
X502865000Y-77678050D03*
X509215000Y-75138050D03*
D14*
X512765000Y-75138050D03*
%TD*%
D10*
%TO.C,SW3*%
X115832500Y-51643050D03*
D11*
X120912500Y-51643050D03*
D10*
X125992500Y-51643050D03*
D14*
X113552500Y-49103050D03*
D13*
X117102500Y-49103050D03*
X123452500Y-46563050D03*
D14*
X127002500Y-46563050D03*
%TD*%
D10*
%TO.C,SW74*%
X444445000Y-108793050D03*
D11*
X449525000Y-108793050D03*
D10*
X454605000Y-108793050D03*
D14*
X442165000Y-106253050D03*
D13*
X445715000Y-106253050D03*
X452065000Y-103713050D03*
D14*
X455615000Y-103713050D03*
%TD*%
D10*
%TO.C,SW63*%
X170178236Y-109956309D03*
D11*
X175181059Y-110838442D03*
D10*
X180183882Y-111720575D03*
D15*
X168373940Y-107058980D03*
D13*
X171870008Y-107675431D03*
X178564603Y-106276685D03*
D15*
X182060671Y-106893136D03*
%TD*%
D16*
%TO.C,S61*%
X111387500Y-101808050D03*
D11*
X111387500Y-117048050D03*
D16*
X135200000Y-101808050D03*
D11*
X135200000Y-117048050D03*
%TD*%
D10*
%TO.C,SW65*%
X207699412Y-116572304D03*
D11*
X212702235Y-117454437D03*
D10*
X217705058Y-118336570D03*
D15*
X205895116Y-113674975D03*
D13*
X209391184Y-114291426D03*
X216085779Y-112892680D03*
D15*
X219581847Y-113509131D03*
%TD*%
D10*
%TO.C,SW84*%
X301235513Y-136683658D03*
D11*
X306238336Y-135801525D03*
D10*
X311241159Y-134919392D03*
D12*
X298549085Y-134578164D03*
D13*
X302045152Y-133961713D03*
X307857615Y-130357635D03*
D12*
X311353682Y-129741184D03*
%TD*%
D10*
%TO.C,SW1*%
X63445000Y-51643050D03*
D11*
X68525000Y-51643050D03*
D10*
X73605000Y-51643050D03*
D14*
X61165000Y-49103050D03*
D13*
X64715000Y-49103050D03*
X71065000Y-46563050D03*
D14*
X74615000Y-46563050D03*
%TD*%
D10*
%TO.C,SW81*%
X166203719Y-129245721D03*
D11*
X171227920Y-129996593D03*
D10*
X176252121Y-130747465D03*
D18*
X164324199Y-126396615D03*
D13*
X167835205Y-126921339D03*
X174490892Y-125347828D03*
D18*
X178001898Y-125872552D03*
%TD*%
D10*
%TO.C,SW50*%
X302592768Y-97756584D03*
D11*
X307595591Y-96874451D03*
D10*
X312598414Y-95992318D03*
D12*
X299906340Y-95651090D03*
D13*
X303402407Y-95034639D03*
X309214870Y-91430561D03*
D12*
X312710937Y-90814110D03*
%TD*%
D10*
%TO.C,SW24*%
X139645000Y-70693050D03*
D11*
X144725000Y-70693050D03*
D10*
X149805000Y-70693050D03*
D14*
X137365000Y-68153050D03*
D13*
X140915000Y-68153050D03*
X147265000Y-65613050D03*
D14*
X150815000Y-65613050D03*
%TD*%
D10*
%TO.C,SW48*%
X219449674Y-99300316D03*
D11*
X224452497Y-100182449D03*
D10*
X229455320Y-101064582D03*
D15*
X217645378Y-96402987D03*
D13*
X221141446Y-97019438D03*
X227836041Y-95620692D03*
D15*
X231332109Y-96237143D03*
%TD*%
D10*
%TO.C,SW56*%
X444445000Y-89743050D03*
D11*
X449525000Y-89743050D03*
D10*
X454605000Y-89743050D03*
D14*
X442165000Y-87203050D03*
D13*
X445715000Y-87203050D03*
X452065000Y-84663050D03*
D14*
X455615000Y-84663050D03*
%TD*%
D10*
%TO.C,SW5*%
X155713466Y-49374149D03*
D11*
X160716289Y-50256282D03*
D10*
X165719112Y-51138415D03*
D15*
X153909170Y-46476820D03*
D13*
X157405238Y-47093271D03*
X164099833Y-45694525D03*
D15*
X167595901Y-46310976D03*
%TD*%
D10*
%TO.C,SW26*%
X180546350Y-73096733D03*
D11*
X185549173Y-73978866D03*
D10*
X190551996Y-74860999D03*
D15*
X178742054Y-70199404D03*
D13*
X182238122Y-70815855D03*
X188932717Y-69417109D03*
D15*
X192428785Y-70033560D03*
%TD*%
D10*
%TO.C,SW61*%
X118213750Y-108793050D03*
D11*
X123293750Y-108793050D03*
D10*
X128373750Y-108793050D03*
D14*
X115933750Y-106253050D03*
D13*
X119483750Y-106253050D03*
X125833750Y-103713050D03*
D14*
X129383750Y-103713050D03*
%TD*%
D10*
%TO.C,SW8*%
X211995229Y-59298142D03*
D11*
X216998052Y-60180275D03*
D10*
X222000875Y-61062408D03*
D15*
X210190933Y-56400813D03*
D13*
X213687001Y-57017264D03*
X220381596Y-55618518D03*
D15*
X223877664Y-56234969D03*
%TD*%
D10*
%TO.C,SW23*%
X115832500Y-70693050D03*
D11*
X120912500Y-70693050D03*
D10*
X125992500Y-70693050D03*
D14*
X113552500Y-68153050D03*
D13*
X117102500Y-68153050D03*
X123452500Y-65613050D03*
D14*
X127002500Y-65613050D03*
%TD*%
D10*
%TO.C,SW86*%
X406345000Y-127843050D03*
D11*
X411425000Y-127843050D03*
D10*
X416505000Y-127843050D03*
D14*
X404065000Y-125303050D03*
D13*
X407615000Y-125303050D03*
X413965000Y-122763050D03*
D14*
X417515000Y-122763050D03*
%TD*%
D10*
%TO.C,SW33*%
X353957500Y-69740550D03*
D11*
X359037500Y-69740550D03*
D10*
X364117500Y-69740550D03*
D14*
X351677500Y-67200550D03*
D13*
X355227500Y-67200550D03*
X361577500Y-64660550D03*
D14*
X365127500Y-64660550D03*
%TD*%
D10*
%TO.C,SW13*%
X338188094Y-52792413D03*
D11*
X343190917Y-51910280D03*
D10*
X348193740Y-51028147D03*
D12*
X335501666Y-50686919D03*
D13*
X338997733Y-50070468D03*
X344810196Y-46466390D03*
D12*
X348306263Y-45849939D03*
%TD*%
D10*
%TO.C,SW55*%
X410631250Y-89743050D03*
D11*
X415711250Y-89743050D03*
D10*
X420791250Y-89743050D03*
D14*
X408351250Y-87203050D03*
D13*
X411901250Y-87203050D03*
X418251250Y-84663050D03*
D14*
X421801250Y-84663050D03*
%TD*%
D10*
%TO.C,SW71*%
X353957500Y-108793050D03*
D11*
X359037500Y-108793050D03*
D10*
X364117500Y-108793050D03*
D14*
X351677500Y-106253050D03*
D13*
X355227500Y-106253050D03*
X361577500Y-103713050D03*
D14*
X365127500Y-103713050D03*
%TD*%
D16*
%TO.C,S40*%
X513660000Y-68311800D03*
D11*
X498420000Y-68311800D03*
D16*
X513660000Y-92124300D03*
D11*
X498420000Y-92124300D03*
%TD*%
D10*
%TO.C,SW36*%
X415870000Y-70693050D03*
D11*
X420950000Y-70693050D03*
D10*
X426030000Y-70693050D03*
D14*
X413590000Y-68153050D03*
D13*
X417140000Y-68153050D03*
X423490000Y-65613050D03*
D14*
X427040000Y-65613050D03*
%TD*%
D10*
%TO.C,SW34*%
X373007500Y-70693050D03*
D11*
X378087500Y-70693050D03*
D10*
X383167500Y-70693050D03*
D14*
X370727500Y-68153050D03*
D13*
X374277500Y-68153050D03*
X380627500Y-65613050D03*
D14*
X384177500Y-65613050D03*
%TD*%
D10*
%TO.C,SW42*%
X82495000Y-89743050D03*
D11*
X87575000Y-89743050D03*
D10*
X92655000Y-89743050D03*
D14*
X80215000Y-87203050D03*
D13*
X83765000Y-87203050D03*
X90115000Y-84663050D03*
D14*
X93665000Y-84663050D03*
%TD*%
D16*
%TO.C,S55*%
X403805000Y-82758050D03*
D11*
X403805000Y-97998050D03*
D16*
X427617500Y-82758050D03*
D11*
X427617500Y-97998050D03*
%TD*%
D10*
%TO.C,SW46*%
X181928499Y-92684320D03*
D11*
X186931322Y-93566453D03*
D10*
X191934145Y-94448586D03*
D15*
X180124203Y-89786991D03*
D13*
X183620271Y-90403442D03*
X190314866Y-89004696D03*
D15*
X193810934Y-89621147D03*
%TD*%
D10*
%TO.C,SW21*%
X63445000Y-70693050D03*
D11*
X68525000Y-70693050D03*
D10*
X73605000Y-70693050D03*
D14*
X61165000Y-68153050D03*
D13*
X64715000Y-68153050D03*
X71065000Y-65613050D03*
D14*
X74615000Y-65613050D03*
%TD*%
D10*
%TO.C,SW35*%
X392057500Y-70693050D03*
D11*
X397137500Y-70693050D03*
D10*
X402217500Y-70693050D03*
D14*
X389777500Y-68153050D03*
D13*
X393327500Y-68153050D03*
X399677500Y-65613050D03*
D14*
X403227500Y-65613050D03*
%TD*%
D10*
%TO.C,SW45*%
X163167911Y-89376322D03*
D11*
X168170734Y-90258455D03*
D10*
X173173557Y-91140588D03*
D15*
X161363615Y-86478993D03*
D13*
X164859683Y-87095444D03*
X171554278Y-85696698D03*
D15*
X175050346Y-86313149D03*
%TD*%
D10*
%TO.C,SW64*%
X188938824Y-113264307D03*
D11*
X193941647Y-114146440D03*
D10*
X198944470Y-115028573D03*
D15*
X187134528Y-110366978D03*
D13*
X190630596Y-110983429D03*
X197325191Y-109584683D03*
D15*
X200821259Y-110201134D03*
%TD*%
D10*
%TO.C,SW70*%
X333103618Y-111720575D03*
D11*
X338106441Y-110838442D03*
D10*
X343109264Y-109956309D03*
D12*
X330417190Y-109615081D03*
D13*
X333913257Y-108998630D03*
X339725720Y-105394552D03*
D12*
X343221787Y-104778101D03*
%TD*%
D10*
%TO.C,SW9*%
X230755817Y-62606140D03*
D11*
X235758640Y-63488273D03*
D10*
X240761463Y-64370406D03*
D15*
X228951521Y-59708811D03*
D13*
X232447589Y-60325262D03*
X239142184Y-58926516D03*
D15*
X242638252Y-59542967D03*
%TD*%
D10*
%TO.C,SW41*%
X63445000Y-89743050D03*
D11*
X68525000Y-89743050D03*
D10*
X73605000Y-89743050D03*
D14*
X61165000Y-87203050D03*
D13*
X64715000Y-87203050D03*
X71065000Y-84663050D03*
D14*
X74615000Y-84663050D03*
%TD*%
D10*
%TO.C,SW11*%
X300666919Y-59408409D03*
D11*
X305669742Y-58526276D03*
D10*
X310672565Y-57644143D03*
D12*
X297980491Y-57302915D03*
D13*
X301476558Y-56686464D03*
X307289021Y-53082386D03*
D12*
X310785088Y-52465935D03*
%TD*%
D10*
%TO.C,SW37*%
X444445000Y-70693050D03*
D11*
X449525000Y-70693050D03*
D10*
X454605000Y-70693050D03*
D14*
X442165000Y-68153050D03*
D13*
X445715000Y-68153050D03*
X452065000Y-65613050D03*
D14*
X455615000Y-65613050D03*
%TD*%
D10*
%TO.C,SW78*%
X63445000Y-127843050D03*
D11*
X68525000Y-127843050D03*
D10*
X73605000Y-127843050D03*
D14*
X61165000Y-125303050D03*
D13*
X64715000Y-125303050D03*
X71065000Y-122763050D03*
D14*
X74615000Y-122763050D03*
%TD*%
D10*
%TO.C,SW54*%
X379675000Y-89743050D03*
D11*
X384755000Y-89743050D03*
D10*
X389835000Y-89743050D03*
D14*
X377395000Y-87203050D03*
D13*
X380945000Y-87203050D03*
X387295000Y-84663050D03*
D14*
X390845000Y-84663050D03*
%TD*%
D10*
%TO.C,SW53*%
X360625000Y-89743050D03*
D11*
X365705000Y-89743050D03*
D10*
X370785000Y-89743050D03*
D14*
X358345000Y-87203050D03*
D13*
X361895000Y-87203050D03*
X368245000Y-84663050D03*
D14*
X371795000Y-84663050D03*
%TD*%
D10*
%TO.C,SW75*%
X463495000Y-108793050D03*
D11*
X468575000Y-108793050D03*
D10*
X473655000Y-108793050D03*
D14*
X461215000Y-106253050D03*
D13*
X464765000Y-106253050D03*
X471115000Y-103713050D03*
D14*
X474665000Y-103713050D03*
%TD*%
D10*
%TO.C,SW47*%
X200689086Y-95992318D03*
D11*
X205691909Y-96874451D03*
D10*
X210694732Y-97756584D03*
D15*
X198884790Y-93094989D03*
D13*
X202380858Y-93711440D03*
X209075453Y-92312694D03*
D15*
X212571521Y-92929145D03*
%TD*%
D10*
%TO.C,SW17*%
X444445000Y-51643050D03*
D11*
X449525000Y-51643050D03*
D10*
X454605000Y-51643050D03*
D14*
X442165000Y-49103050D03*
D13*
X445715000Y-49103050D03*
X452065000Y-46563050D03*
D14*
X455615000Y-46563050D03*
%TD*%
D16*
%TO.C,S16*%
X399518750Y-44658050D03*
D11*
X399518750Y-59898050D03*
D16*
X423331250Y-44658050D03*
D11*
X423331250Y-59898050D03*
%TD*%
D10*
%TO.C,SW69*%
X314343030Y-115028573D03*
D11*
X319345853Y-114146440D03*
D10*
X324348676Y-113264307D03*
D12*
X311656602Y-112923079D03*
D13*
X315152669Y-112306628D03*
X320965132Y-108702550D03*
D12*
X324461199Y-108086099D03*
%TD*%
D16*
%TO.C,S87*%
X470956250Y-135460000D03*
D11*
X470956250Y-120220000D03*
D16*
X447143750Y-135460000D03*
D11*
X447143750Y-120220000D03*
%TD*%
D10*
%TO.C,SW77*%
X501595000Y-118318050D03*
D11*
X506675000Y-118318050D03*
D10*
X511755000Y-118318050D03*
D14*
X499315000Y-115778050D03*
D13*
X502865000Y-115778050D03*
X509215000Y-113238050D03*
D14*
X512765000Y-113238050D03*
%TD*%
D16*
%TO.C,S82*%
X222251745Y-145574906D03*
D11*
X224898143Y-130566436D03*
D16*
X198801010Y-141439909D03*
D11*
X201447408Y-126431438D03*
%TD*%
D10*
%TO.C,SW28*%
X218067525Y-79712728D03*
D11*
X223070348Y-80594861D03*
D10*
X228073171Y-81476994D03*
D15*
X216263229Y-76815399D03*
D13*
X219759297Y-77431850D03*
X226453892Y-76033104D03*
D15*
X229949960Y-76649555D03*
%TD*%
D10*
%TO.C,SW19*%
X482545000Y-51643050D03*
D11*
X487625000Y-51643050D03*
D10*
X492705000Y-51643050D03*
D14*
X480265000Y-49103050D03*
D13*
X483815000Y-49103050D03*
X490165000Y-46563050D03*
D14*
X493715000Y-46563050D03*
%TD*%
D10*
%TO.C,SW66*%
X226460000Y-119880302D03*
D11*
X231462823Y-120762435D03*
D10*
X236465646Y-121644568D03*
D15*
X224655704Y-116982973D03*
D13*
X228151772Y-117599424D03*
X234846367Y-116200678D03*
D15*
X238342435Y-116817129D03*
%TD*%
D10*
%TO.C,SW79*%
X82495000Y-127843050D03*
D11*
X87575000Y-127843050D03*
D10*
X92655000Y-127843050D03*
D14*
X80215000Y-125303050D03*
D13*
X83765000Y-125303050D03*
X90115000Y-122763050D03*
D14*
X93665000Y-122763050D03*
%TD*%
D10*
%TO.C,SW18*%
X463495000Y-51643050D03*
D11*
X468575000Y-51643050D03*
D10*
X473655000Y-51643050D03*
D14*
X461215000Y-49103050D03*
D13*
X464765000Y-49103050D03*
X471115000Y-46563050D03*
D14*
X474665000Y-46563050D03*
%TD*%
D10*
%TO.C,SW57*%
X463495000Y-89743050D03*
D11*
X468575000Y-89743050D03*
D10*
X473655000Y-89743050D03*
D14*
X461215000Y-87203050D03*
D13*
X464765000Y-87203050D03*
X471115000Y-84663050D03*
D14*
X474665000Y-84663050D03*
%TD*%
D10*
%TO.C,SW83*%
X270749558Y-142059155D03*
D11*
X275752381Y-141177022D03*
D10*
X280755204Y-140294889D03*
D12*
X268063130Y-139953661D03*
D13*
X271559197Y-139337210D03*
X277371660Y-135733132D03*
D12*
X280867727Y-135116681D03*
%TD*%
D10*
%TO.C,SW6*%
X174474053Y-52682146D03*
D11*
X179476876Y-53564279D03*
D10*
X184479699Y-54446412D03*
D15*
X172669757Y-49784817D03*
D13*
X176165825Y-50401268D03*
X182860420Y-49002522D03*
D15*
X186356488Y-49618973D03*
%TD*%
D10*
%TO.C,SW43*%
X116308750Y-89743050D03*
D11*
X121388750Y-89743050D03*
D10*
X126468750Y-89743050D03*
D14*
X114028750Y-87203050D03*
D13*
X117578750Y-87203050D03*
X123928750Y-84663050D03*
D14*
X127478750Y-84663050D03*
%TD*%
D10*
%TO.C,SW32*%
X332115798Y-73207000D03*
D11*
X337118621Y-72324867D03*
D10*
X342121444Y-71442734D03*
D12*
X329429370Y-71101506D03*
D13*
X332925437Y-70485055D03*
X338737900Y-66880977D03*
D12*
X342233967Y-66264526D03*
%TD*%
D10*
%TO.C,SW15*%
X377770000Y-51643050D03*
D11*
X382850000Y-51643050D03*
D10*
X387930000Y-51643050D03*
D14*
X375490000Y-49103050D03*
D13*
X379040000Y-49103050D03*
X385390000Y-46563050D03*
D14*
X388940000Y-46563050D03*
%TD*%
D10*
%TO.C,SW68*%
X295582442Y-118336570D03*
D11*
X300585265Y-117454437D03*
D10*
X305588088Y-116572304D03*
D12*
X292896014Y-116231076D03*
D13*
X296392081Y-115614625D03*
X302204544Y-112010547D03*
D12*
X305700611Y-111394096D03*
%TD*%
D16*
%TO.C,S77*%
X513660000Y-106411800D03*
D11*
X498420000Y-106411800D03*
D16*
X513660000Y-130224300D03*
D11*
X498420000Y-130224300D03*
%TD*%
D10*
%TO.C,SW76*%
X482545000Y-108793050D03*
D11*
X487625000Y-108793050D03*
D10*
X492705000Y-108793050D03*
D14*
X480265000Y-106253050D03*
D13*
X483815000Y-106253050D03*
X490165000Y-103713050D03*
D14*
X493715000Y-103713050D03*
%TD*%
D10*
%TO.C,SW58*%
X482545000Y-89743050D03*
D11*
X487625000Y-89743050D03*
D10*
X492705000Y-89743050D03*
D14*
X480265000Y-87203050D03*
D13*
X483815000Y-87203050D03*
X490165000Y-84663050D03*
D14*
X493715000Y-84663050D03*
%TD*%
D10*
%TO.C,SW29*%
X275834035Y-83130993D03*
D11*
X280836858Y-82248860D03*
D10*
X285839681Y-81366727D03*
D12*
X273147607Y-81025499D03*
D13*
X276643674Y-80409048D03*
X282456137Y-76804970D03*
D12*
X285952204Y-76188519D03*
%TD*%
D10*
%TO.C,SW16*%
X406345000Y-51643050D03*
D11*
X411425000Y-51643050D03*
D10*
X416505000Y-51643050D03*
D14*
X404065000Y-49103050D03*
D13*
X407615000Y-49103050D03*
X413965000Y-46563050D03*
D14*
X417515000Y-46563050D03*
%TD*%
D10*
%TO.C,SW72*%
X373007500Y-108793050D03*
D11*
X378087500Y-108793050D03*
D10*
X383167500Y-108793050D03*
D14*
X370727500Y-106253050D03*
D13*
X374277500Y-106253050D03*
X380627500Y-103713050D03*
D14*
X384177500Y-103713050D03*
%TD*%
D10*
%TO.C,SW80*%
X111070000Y-127843050D03*
D11*
X116150000Y-127843050D03*
D10*
X121230000Y-127843050D03*
D14*
X108790000Y-125303050D03*
D13*
X112340000Y-125303050D03*
X118690000Y-122763050D03*
D14*
X122240000Y-122763050D03*
%TD*%
D10*
%TO.C,SW38*%
X463495000Y-70693050D03*
D11*
X468575000Y-70693050D03*
D10*
X473655000Y-70693050D03*
D14*
X461215000Y-68153050D03*
D13*
X464765000Y-68153050D03*
X471115000Y-65613050D03*
D14*
X474665000Y-65613050D03*
%TD*%
D10*
%TO.C,SW4*%
X134882500Y-51643050D03*
D11*
X139962500Y-51643050D03*
D10*
X145042500Y-51643050D03*
D14*
X132602500Y-49103050D03*
D13*
X136152500Y-49103050D03*
X142502500Y-46563050D03*
D14*
X146052500Y-46563050D03*
%TD*%
D10*
%TO.C,SW62*%
X149170000Y-108793050D03*
D11*
X154250000Y-108793050D03*
D10*
X159330000Y-108793050D03*
D14*
X146890000Y-106253050D03*
D13*
X150440000Y-106253050D03*
X156790000Y-103713050D03*
D14*
X160340000Y-103713050D03*
%TD*%
D10*
%TO.C,SW22*%
X82495000Y-70693050D03*
D11*
X87575000Y-70693050D03*
D10*
X92655000Y-70693050D03*
D14*
X80215000Y-68153050D03*
D13*
X83765000Y-68153050D03*
X90115000Y-65613050D03*
D14*
X93665000Y-65613050D03*
%TD*%
D19*
%TO.C,D7*%
X202427614Y-62363310D03*
X203000652Y-59113444D03*
%TD*%
D20*
%TO.C,D85*%
X347885703Y-134723861D03*
X347540759Y-131441939D03*
%TD*%
D21*
%TO.C,D30*%
X305412942Y-82667630D03*
X304839904Y-79417764D03*
%TD*%
%TO.C,D52*%
X350932262Y-93985222D03*
X350359224Y-90735356D03*
%TD*%
%TO.C,D12*%
X330245826Y-58945045D03*
X329672788Y-55695179D03*
%TD*%
%TO.C,D11*%
X311485238Y-62253043D03*
X310912200Y-59003177D03*
%TD*%
D22*
%TO.C,D15*%
X387930000Y-56323050D03*
X387930000Y-53023050D03*
%TD*%
%TO.C,D38*%
X473655000Y-75373050D03*
X473655000Y-72073050D03*
%TD*%
D21*
%TO.C,D50*%
X313411087Y-100601218D03*
X312838049Y-97351352D03*
%TD*%
D23*
%TO.C,D81*%
X175560372Y-135376058D03*
X176048144Y-132112306D03*
%TD*%
D22*
%TO.C,D72*%
X383167500Y-113473050D03*
X383167500Y-110173050D03*
%TD*%
%TO.C,D56*%
X454605000Y-94423050D03*
X454605000Y-91123050D03*
%TD*%
%TO.C,D58*%
X492705000Y-94423050D03*
X492705000Y-91123050D03*
%TD*%
%TO.C,D3*%
X125992500Y-56323050D03*
X125992500Y-53023050D03*
%TD*%
D19*
%TO.C,D66*%
X235652973Y-126253468D03*
X236226011Y-123003602D03*
%TD*%
D22*
%TO.C,D77*%
X511755000Y-122998050D03*
X511755000Y-119698050D03*
%TD*%
D21*
%TO.C,D10*%
X292724650Y-65561041D03*
X292151612Y-62311175D03*
%TD*%
D22*
%TO.C,D60*%
X92655000Y-113473050D03*
X92655000Y-110173050D03*
%TD*%
%TO.C,D78*%
X73605000Y-132523050D03*
X73605000Y-129223050D03*
%TD*%
%TO.C,D76*%
X492705000Y-113473050D03*
X492705000Y-110173050D03*
%TD*%
%TO.C,D16*%
X416505000Y-56323050D03*
X416505000Y-53023050D03*
%TD*%
D21*
%TO.C,D69*%
X325161349Y-117873207D03*
X324588311Y-114623341D03*
%TD*%
%TO.C,D31*%
X324173530Y-79359632D03*
X323600492Y-76109766D03*
%TD*%
D24*
%TO.C,U1*%
X260335000Y-41120550D03*
D25*
X260035000Y-44150550D03*
X255185000Y-44150550D03*
D24*
X254885000Y-41120550D03*
D26*
X266500000Y-40990550D03*
D27*
X267400000Y-40990550D03*
D26*
X266500000Y-43530550D03*
D27*
X267400000Y-43530550D03*
D28*
X266500000Y-46070550D03*
D27*
X267400000Y-46070550D03*
D26*
X266500000Y-48610550D03*
D27*
X267400000Y-48610550D03*
D26*
X266500000Y-51150550D03*
D27*
X267400000Y-51150550D03*
D26*
X266500000Y-53690550D03*
D27*
X267400000Y-53690550D03*
D26*
X266500000Y-56230550D03*
D27*
X267400000Y-56230550D03*
D28*
X266500000Y-58770550D03*
D27*
X267400000Y-58770550D03*
D26*
X266500000Y-61310550D03*
D27*
X267400000Y-61310550D03*
D26*
X266500000Y-63850550D03*
D27*
X267400000Y-63850550D03*
D26*
X266500000Y-66390550D03*
D27*
X267400000Y-66390550D03*
D26*
X266500000Y-68930550D03*
D27*
X267400000Y-68930550D03*
D28*
X266500000Y-71470550D03*
D27*
X267400000Y-71470550D03*
D26*
X266500000Y-74010550D03*
D27*
X267400000Y-74010550D03*
D26*
X266500000Y-76550550D03*
D27*
X267400000Y-76550550D03*
D26*
X266500000Y-79090550D03*
D27*
X267400000Y-79090550D03*
D26*
X266500000Y-81630550D03*
D27*
X267400000Y-81630550D03*
D28*
X266500000Y-84170550D03*
D27*
X267400000Y-84170550D03*
D26*
X266500000Y-86710550D03*
D27*
X267400000Y-86710550D03*
D26*
X266500000Y-89250550D03*
D27*
X267400000Y-89250550D03*
D26*
X248720000Y-89250550D03*
D27*
X247820000Y-89250550D03*
D26*
X248720000Y-86710550D03*
D27*
X247820000Y-86710550D03*
D28*
X248720000Y-84170550D03*
D27*
X247820000Y-84170550D03*
D26*
X248720000Y-81630550D03*
D27*
X247820000Y-81630550D03*
D26*
X248720000Y-79090550D03*
D27*
X247820000Y-79090550D03*
D26*
X248720000Y-76550550D03*
D27*
X247820000Y-76550550D03*
D26*
X248720000Y-74010550D03*
D27*
X247820000Y-74010550D03*
D28*
X248720000Y-71470550D03*
D27*
X247820000Y-71470550D03*
D26*
X248720000Y-68930550D03*
D27*
X247820000Y-68930550D03*
D26*
X248720000Y-66390550D03*
D27*
X247820000Y-66390550D03*
D26*
X248720000Y-63850550D03*
D27*
X247820000Y-63850550D03*
D26*
X248720000Y-61310550D03*
D27*
X247820000Y-61310550D03*
D28*
X248720000Y-58770550D03*
D27*
X247820000Y-58770550D03*
D26*
X248720000Y-56230550D03*
D27*
X247820000Y-56230550D03*
D26*
X248720000Y-53690550D03*
D27*
X247820000Y-53690550D03*
D26*
X248720000Y-51150550D03*
D27*
X247820000Y-51150550D03*
D26*
X248720000Y-48610550D03*
D27*
X247820000Y-48610550D03*
D28*
X248720000Y-46070550D03*
D27*
X247820000Y-46070550D03*
D26*
X248720000Y-43530550D03*
D27*
X247820000Y-43530550D03*
D26*
X248720000Y-40990550D03*
D27*
X247820000Y-40990550D03*
D26*
X260150000Y-89020550D03*
D29*
X260150000Y-89920550D03*
D28*
X257610000Y-89020550D03*
D29*
X257610000Y-89920550D03*
D26*
X255070000Y-89020550D03*
D29*
X255070000Y-89920550D03*
%TD*%
D22*
%TO.C,D20*%
X511755000Y-56323050D03*
X511755000Y-53023050D03*
%TD*%
%TO.C,D61*%
X128373750Y-113473050D03*
X128373750Y-110173050D03*
%TD*%
D19*
%TO.C,D47*%
X209882059Y-102365484D03*
X210455097Y-99115618D03*
%TD*%
D22*
%TO.C,D14*%
X368880000Y-55370550D03*
X368880000Y-52070550D03*
%TD*%
%TO.C,D24*%
X149805000Y-75373050D03*
X149805000Y-72073050D03*
%TD*%
%TO.C,D79*%
X92655000Y-132523050D03*
X92655000Y-129223050D03*
%TD*%
%TO.C,D42*%
X92655000Y-94423050D03*
X92655000Y-91123050D03*
%TD*%
%TO.C,D34*%
X383167500Y-75373050D03*
X383167500Y-72073050D03*
%TD*%
D21*
%TO.C,D70*%
X343921937Y-114565209D03*
X343348899Y-111315343D03*
%TD*%
D22*
%TO.C,D59*%
X73605000Y-113473050D03*
X73605000Y-110173050D03*
%TD*%
%TO.C,D36*%
X426030000Y-75373050D03*
X426030000Y-72073050D03*
%TD*%
%TO.C,D53*%
X370785000Y-94423050D03*
X370785000Y-91123050D03*
%TD*%
D21*
%TO.C,D29*%
X286652354Y-85975627D03*
X286079316Y-82725761D03*
%TD*%
%TO.C,D67*%
X287640173Y-124489202D03*
X287067135Y-121239336D03*
%TD*%
%TO.C,D13*%
X349006413Y-55637047D03*
X348433375Y-52387181D03*
%TD*%
%TO.C,D32*%
X342934117Y-76051634D03*
X342361079Y-72801768D03*
%TD*%
D22*
%TO.C,D17*%
X454605000Y-56323050D03*
X454605000Y-53023050D03*
%TD*%
D19*
%TO.C,D5*%
X164906439Y-55747315D03*
X165479477Y-52497449D03*
%TD*%
D22*
%TO.C,D87*%
X464130000Y-132523050D03*
X464130000Y-129223050D03*
%TD*%
%TO.C,D18*%
X473655000Y-56323050D03*
X473655000Y-53023050D03*
%TD*%
%TO.C,D22*%
X92655000Y-75373050D03*
X92655000Y-72073050D03*
%TD*%
D19*
%TO.C,D45*%
X172360884Y-95749488D03*
X172933922Y-92499622D03*
%TD*%
D22*
%TO.C,D35*%
X402217500Y-75373050D03*
X402217500Y-72073050D03*
%TD*%
%TO.C,D33*%
X364117500Y-74420550D03*
X364117500Y-71120550D03*
%TD*%
%TO.C,D55*%
X420791250Y-94423050D03*
X420791250Y-91123050D03*
%TD*%
D19*
%TO.C,D46*%
X191121472Y-99057486D03*
X191694510Y-95807620D03*
%TD*%
%TO.C,D25*%
X170978735Y-76161901D03*
X171551773Y-72912035D03*
%TD*%
D22*
%TO.C,D37*%
X454605000Y-75373050D03*
X454605000Y-72073050D03*
%TD*%
%TO.C,D57*%
X473655000Y-94423050D03*
X473655000Y-91123050D03*
%TD*%
D19*
%TO.C,D9*%
X239948790Y-68979306D03*
X240521828Y-65729440D03*
%TD*%
D22*
%TO.C,D2*%
X92655000Y-56323050D03*
X92655000Y-53023050D03*
%TD*%
%TO.C,D21*%
X73605000Y-75373050D03*
X73605000Y-72073050D03*
%TD*%
D21*
%TO.C,D68*%
X306400761Y-121181204D03*
X305827723Y-117931338D03*
%TD*%
D22*
%TO.C,D75*%
X473655000Y-113473050D03*
X473655000Y-110173050D03*
%TD*%
D21*
%TO.C,D51*%
X332171674Y-97293220D03*
X331598636Y-94043354D03*
%TD*%
D19*
%TO.C,D27*%
X208499910Y-82777897D03*
X209072948Y-79528031D03*
%TD*%
D22*
%TO.C,D73*%
X409361250Y-113473050D03*
X409361250Y-110173050D03*
%TD*%
%TO.C,D54*%
X389835000Y-94423050D03*
X389835000Y-91123050D03*
%TD*%
D19*
%TO.C,D28*%
X227260498Y-86085894D03*
X227833536Y-82836028D03*
%TD*%
D21*
%TO.C,D84*%
X312053832Y-139528292D03*
X311480794Y-136278426D03*
%TD*%
D19*
%TO.C,D8*%
X221188202Y-65671308D03*
X221761240Y-62421442D03*
%TD*%
D22*
%TO.C,D4*%
X145042500Y-56323050D03*
X145042500Y-53023050D03*
%TD*%
%TO.C,D40*%
X511755000Y-84898050D03*
X511755000Y-81598050D03*
%TD*%
%TO.C,D88*%
X492705000Y-132523050D03*
X492705000Y-129223050D03*
%TD*%
%TO.C,D41*%
X73605000Y-94423050D03*
X73605000Y-91123050D03*
%TD*%
%TO.C,D44*%
X152662500Y-94423050D03*
X152662500Y-91123050D03*
%TD*%
D19*
%TO.C,D6*%
X183667026Y-59055312D03*
X184240064Y-55805446D03*
%TD*%
%TO.C,D65*%
X216892385Y-122945470D03*
X217465423Y-119695604D03*
%TD*%
D22*
%TO.C,D1*%
X73605000Y-56323050D03*
X73605000Y-53023050D03*
%TD*%
%TO.C,D39*%
X492705000Y-75373050D03*
X492705000Y-72073050D03*
%TD*%
D19*
%TO.C,D64*%
X198131797Y-119637473D03*
X198704835Y-116387607D03*
%TD*%
D21*
%TO.C,D49*%
X294650499Y-103909216D03*
X294077461Y-100659350D03*
%TD*%
D22*
%TO.C,D43*%
X126468750Y-94423050D03*
X126468750Y-91123050D03*
%TD*%
%TO.C,D80*%
X121230000Y-132523050D03*
X121230000Y-129223050D03*
%TD*%
%TO.C,D71*%
X364117500Y-113473050D03*
X364117500Y-110173050D03*
%TD*%
D21*
%TO.C,D83*%
X281567877Y-144903789D03*
X280994839Y-141653923D03*
%TD*%
D22*
%TO.C,D19*%
X492705000Y-56323050D03*
X492705000Y-53023050D03*
%TD*%
D19*
%TO.C,D26*%
X189739323Y-79469899D03*
X190312361Y-76220033D03*
%TD*%
D22*
%TO.C,D74*%
X454605000Y-113473050D03*
X454605000Y-110173050D03*
%TD*%
D19*
%TO.C,D48*%
X228642647Y-105673482D03*
X229215685Y-102423616D03*
%TD*%
D22*
%TO.C,D62*%
X159330000Y-113473050D03*
X159330000Y-110173050D03*
%TD*%
D19*
%TO.C,D63*%
X179371209Y-116329475D03*
X179944247Y-113079609D03*
%TD*%
%TO.C,D82*%
X215929460Y-142119558D03*
X216502498Y-138869692D03*
%TD*%
D22*
%TO.C,D23*%
X125992500Y-75373050D03*
X125992500Y-72073050D03*
%TD*%
%TO.C,D86*%
X416505000Y-132523050D03*
X416505000Y-129223050D03*
%TD*%
M02*
