M48
; DRILL file {KiCad 8.0.1} date 2024-04-27T19:13:13+0900
; FORMAT={-:-/ absolute / inch / decimal}
; #@! TF.CreationDate,2024-04-27T19:13:13+09:00
; #@! TF.GenerationSoftware,Kicad,Pcbnew,8.0.1
; #@! TF.FileFunction,NonPlated,1,2,NPTH
FMAT,2
INCH
; #@! TA.AperFunction,NonPlated,NPTH,ComponentDrill
T1C0.0591
; #@! TA.AperFunction,NonPlated,NPTH,ComponentDrill
T2C0.0689
; #@! TA.AperFunction,NonPlated,NPTH,ComponentDrill
T3C0.0709
; #@! TA.AperFunction,NonPlated,NPTH,ComponentDrill
T4C0.1570
%
G90
G05
T1
X10.0467Y-1.7382
X10.2376Y-1.7382
T2
X2.4978Y-2.0332
X2.4978Y-2.7832
X2.4978Y-3.5332
X2.4978Y-4.2832
X2.4978Y-5.0332
X2.8978Y-2.0332
X2.8978Y-2.7832
X2.8978Y-3.5332
X2.8978Y-4.2832
X2.8978Y-5.0332
X3.2478Y-2.0332
X3.2478Y-2.7832
X3.2478Y-3.5332
X3.2478Y-4.2832
X3.2478Y-5.0332
X3.6478Y-2.0332
X3.6478Y-2.7832
X3.6478Y-3.5332
X3.6478Y-4.2832
X3.6478Y-5.0332
X4.3728Y-5.0332
X4.5603Y-2.0332
X4.5603Y-2.7832
X4.5791Y-3.5332
X4.6541Y-4.2832
X4.7728Y-5.0332
X4.9603Y-2.0332
X4.9603Y-2.7832
X4.9791Y-3.5332
X5.0541Y-4.2832
X5.3103Y-2.0332
X5.4978Y-2.7832
X5.6103Y-3.5332
X5.7103Y-2.0332
X5.8728Y-4.2832
X5.8978Y-2.7832
X6.0103Y-3.5332
X6.1305Y-1.9439
X6.2728Y-4.2832
X6.3695Y-2.7476
X6.4239Y-3.5188
X6.5244Y-2.0133
X6.5435Y-5.0884
X6.6999Y-4.329
X6.7634Y-2.817
X6.8179Y-3.5882
X6.8691Y-2.0741
X6.9391Y-5.1475
X7.0939Y-4.3984
X7.1081Y-2.8778
X7.1625Y-3.649
X7.263Y-2.1436
X7.4385Y-4.4592
X7.502Y-2.9473
X7.5565Y-3.7184
X7.6077Y-2.2043
X7.8325Y-4.5287
X7.8467Y-3.0081
X7.9011Y-3.7792
X8.0016Y-2.2738
X8.1392Y-5.3443
X8.1771Y-4.5895
X8.2407Y-3.0775
X8.2951Y-3.8487
X8.3463Y-2.3346
X8.5332Y-5.4138
X8.5711Y-4.6589
X8.5853Y-3.1383
X8.6398Y-3.9095
X8.7402Y-2.404
X8.9157Y-4.7197
X8.9793Y-3.2078
X9.0337Y-3.9789
X9.0849Y-2.4648
X9.3097Y-4.7892
X9.4788Y-2.5343
X10.6594Y-5.5929
X10.8596Y-3.2729
X10.8985Y-4.7892
X11.0534Y-5.5234
X11.0987Y-2.4691
X11.1745Y-3.9789
X11.2535Y-3.2034
X11.2924Y-4.7197
X11.4926Y-2.3997
X11.5684Y-3.9095
X11.5982Y-3.1426
X11.6371Y-4.6589
X11.8373Y-2.3389
X11.8597Y-5.3812
X11.9131Y-3.8487
X11.9921Y-3.0732
X12.031Y-4.5895
X12.2312Y-2.2695
X12.2536Y-5.3118
X12.307Y-3.7792
X12.3368Y-3.0124
X12.3757Y-4.5287
X12.5759Y-2.2087
X12.6517Y-3.7184
X12.7307Y-2.9429
X12.7696Y-4.4592
X12.9698Y-2.1392
X13.0456Y-3.649
X13.0754Y-2.8822
X13.1143Y-4.3984
X13.2792Y-5.1627
X13.3145Y-2.0784
X13.3903Y-3.5882
X13.4693Y-2.8127
X13.5082Y-4.329
X13.677Y-5.1208
X13.7084Y-2.009
X13.7842Y-3.5188
X13.9353Y-2.7457
X13.9353Y-4.2832
X14.1228Y-1.9957
X14.1978Y-3.5332
X14.3353Y-2.7457
X14.3353Y-4.2832
X14.5228Y-1.9957
X14.5978Y-3.5332
X14.6853Y-2.7832
X14.6853Y-4.2832
X14.8728Y-2.0332
X14.9478Y-3.5332
X15.0853Y-2.7832
X15.0853Y-4.2832
X15.2728Y-2.0332
X15.3478Y-3.5332
X15.4353Y-2.7832
X15.7166Y-4.2832
X15.8353Y-2.7832
X15.9978Y-2.0332
X15.9978Y-5.0332
X16.1166Y-4.2832
X16.1666Y-3.5332
X16.3728Y-2.7832
X16.3978Y-2.0332
X16.3978Y-5.0332
X16.5666Y-3.5332
X16.7728Y-2.7832
X17.4978Y-2.0332
X17.4978Y-2.7832
X17.4978Y-3.5332
X17.4978Y-4.2832
X17.8728Y-5.0332
X17.8978Y-2.0332
X17.8978Y-2.7832
X17.8978Y-3.5332
X17.8978Y-4.2832
X18.2478Y-2.0332
X18.2478Y-2.7832
X18.2478Y-3.5332
X18.2478Y-4.2832
X18.2728Y-5.0332
X18.6478Y-2.0332
X18.6478Y-2.7832
X18.6478Y-3.5332
X18.6478Y-4.2832
X18.9978Y-2.0332
X18.9978Y-2.7832
X18.9978Y-3.5332
X18.9978Y-4.2832
X18.9978Y-5.0332
X19.3978Y-2.0332
X19.3978Y-2.7832
X19.3978Y-3.5332
X19.3978Y-4.2832
X19.3978Y-5.0332
X19.7478Y-2.0332
X19.7478Y-3.1582
X19.7478Y-4.6582
X20.1478Y-2.0332
X20.1478Y-3.1582
X20.1478Y-4.6582
T3
X10.0348Y-1.6189
X10.2494Y-1.6189
T4
X2.6978Y-2.0332
X2.6978Y-2.7832
X2.6978Y-3.5332
X2.6978Y-4.2832
X2.6978Y-5.0332
X3.4478Y-2.0332
X3.4478Y-2.7832
X3.4478Y-3.5332
X3.4478Y-4.2832
X3.4478Y-5.0332
X4.3853Y-4.6082
X4.5728Y-5.0332
X4.7603Y-2.0332
X4.7603Y-2.7832
X4.7791Y-3.5332
X4.8541Y-4.2832
X5.3228Y-4.6082
X5.5103Y-2.0332
X5.6978Y-2.7832
X5.8103Y-3.5332
X6.0728Y-4.2832
X6.3274Y-1.9786
X6.5665Y-2.7823
X6.6209Y-3.5535
X6.7413Y-5.118
X6.8969Y-4.3637
X7.066Y-2.1088
X7.3051Y-2.9126
X7.3595Y-3.6837
X7.6355Y-4.494
X7.8046Y-2.2391
X7.931Y-4.9776
X8.0437Y-3.0428
X8.0981Y-3.814
X8.3362Y-5.3791
X8.3741Y-4.6242
X8.5432Y-2.3693
X8.7823Y-3.173
X8.8367Y-3.9442
X8.8543Y-5.1404
X9.1127Y-4.7544
X9.2818Y-2.4995
X10.8564Y-5.5582
X11.0566Y-3.2381
X11.0955Y-4.7544
X11.2956Y-2.4344
X11.3715Y-3.9442
X11.5386Y-5.1079
X11.7952Y-3.1079
X11.8341Y-4.6242
X12.0342Y-2.3042
X12.0566Y-5.3465
X12.1101Y-3.814
X12.4618Y-4.9451
X12.5338Y-2.9777
X12.5727Y-4.494
X12.7728Y-2.1739
X12.8487Y-3.6837
X13.2724Y-2.8474
X13.3113Y-4.3637
X13.4781Y-5.1418
X13.5115Y-2.0437
X13.5873Y-3.5535
X14.1353Y-2.7457
X14.1353Y-4.2832
X14.3228Y-1.9957
X14.3978Y-3.5332
X14.8853Y-2.7832
X14.8853Y-4.2832
X15.0728Y-2.0332
X15.1478Y-3.5332
X15.6353Y-2.7832
X15.7291Y-2.3582
X15.8978Y-3.8582
X15.9166Y-4.2832
X16.1978Y-2.0332
X16.1978Y-5.0332
X16.3666Y-3.5332
X16.5728Y-2.7832
X16.6666Y-2.3582
X16.8353Y-3.8582
X17.6041Y-4.7331
X17.6978Y-2.0332
X17.6978Y-2.7832
X17.6978Y-3.5332
X17.6978Y-4.2832
X18.0728Y-5.0332
X18.4478Y-2.0332
X18.4478Y-2.7832
X18.4478Y-3.5332
X18.4478Y-4.2832
X18.5416Y-4.7331
X19.1978Y-2.0332
X19.1978Y-2.7832
X19.1978Y-3.5332
X19.1978Y-4.2832
X19.1978Y-5.0332
X19.6228Y-2.6894
X19.6228Y-3.6269
X19.6228Y-4.1894
X19.6228Y-5.1269
X19.9478Y-2.0332
X19.9478Y-3.1582
X19.9478Y-4.6582
M30
