0
SECTION
2
HEADER
9
$INSUNITS
70
4
0
ENDSEC
0
SECTION
2
TABLES
0
TABLE
2
LTYPE
0
LTYPE
72
65
70
64
2
CONTINUOUS
3
______
73
0
40
0
0
ENDTAB
0
TABLE
2
LAYER
0
ENDTAB
0
ENDSEC
0
SECTION
2
ENTITIES
0
LINE
8
0
10
298.3
20
-2.525
11
311.3
21
-2.525
0
LINE
8
0
10
298.3
20
-16.525
11
311.3
21
-16.525
0
LINE
8
0
10
297.8
20
-3.025
11
297.8
21
-16.025
0
LINE
8
0
10
311.8
20
-3.025
11
311.8
21
-16.025
0
ARC
8
0
10
298.3
20
-3.025
40
0.5
50
90
51
180
0
ARC
8
0
10
311.3
20
-3.025
40
0.5
50
0
51
90
0
ARC
8
0
10
298.3
20
-16.025
40
0.5
50
180
51
270
0
ARC
8
0
10
311.3
20
-16.025
40
0.5
50
270
51
0
0
LINE
8
0
10
3.025
20
-3.4775
11
16.025
21
-3.4775
0
LINE
8
0
10
3.025
20
-17.4775
11
16.025
21
-17.4775
0
LINE
8
0
10
2.525
20
-3.9775
11
2.525
21
-16.9775
0
LINE
8
0
10
16.525
20
-3.9775
11
16.525
21
-16.9775
0
ARC
8
0
10
3.025
20
-3.9775
40
0.5
50
90
51
180
0
ARC
8
0
10
16.025
20
-3.9775
40
0.5
50
0
51
90
0
ARC
8
0
10
3.025
20
-16.9775
40
0.5
50
180
51
270
0
ARC
8
0
10
16.025
20
-16.9775
40
0.5
50
270
51
0
0
LINE
8
0
10
22.075
20
-3.4775
11
35.075
21
-3.4775
0
LINE
8
0
10
22.075
20
-17.4775
11
35.075
21
-17.4775
0
LINE
8
0
10
21.575
20
-3.9775
11
21.575
21
-16.9775
0
LINE
8
0
10
35.575
20
-3.9775
11
35.575
21
-16.9775
0
ARC
8
0
10
22.075
20
-3.9775
40
0.5
50
90
51
180
0
ARC
8
0
10
35.075
20
-3.9775
40
0.5
50
0
51
90
0
ARC
8
0
10
22.075
20
-16.9775
40
0.5
50
180
51
270
0
ARC
8
0
10
35.075
20
-16.9775
40
0.5
50
270
51
0
0
LINE
8
0
10
55.4125
20
-3.4775
11
68.4125
21
-3.4775
0
LINE
8
0
10
55.4125
20
-17.4775
11
68.4125
21
-17.4775
0
LINE
8
0
10
54.9125
20
-3.9775
11
54.9125
21
-16.9775
0
LINE
8
0
10
68.9125
20
-3.9775
11
68.9125
21
-16.9775
0
ARC
8
0
10
55.4125
20
-3.9775
40
0.5
50
90
51
180
0
ARC
8
0
10
68.4125
20
-3.9775
40
0.5
50
0
51
90
0
ARC
8
0
10
55.4125
20
-16.9775
40
0.5
50
180
51
270
0
ARC
8
0
10
68.4125
20
-16.9775
40
0.5
50
270
51
0
0
LINE
8
0
10
74.4625
20
-3.4775
11
87.4625
21
-3.4775
0
LINE
8
0
10
74.4625
20
-17.4775
11
87.4625
21
-17.4775
0
LINE
8
0
10
73.9625
20
-3.9775
11
73.9625
21
-16.9775
0
LINE
8
0
10
87.9625
20
-3.9775
11
87.9625
21
-16.9775
0
ARC
8
0
10
74.4625
20
-3.9775
40
0.5
50
90
51
180
0
ARC
8
0
10
87.4625
20
-3.9775
40
0.5
50
0
51
90
0
ARC
8
0
10
74.4625
20
-16.9775
40
0.5
50
180
51
270
0
ARC
8
0
10
87.4625
20
-16.9775
40
0.5
50
270
51
0
0
LINE
8
0
10
317.35
20
-3.4775
11
330.35
21
-3.4775
0
LINE
8
0
10
317.35
20
-17.4775
11
330.35
21
-17.4775
0
LINE
8
0
10
316.85
20
-3.9775
11
316.85
21
-16.9775
0
LINE
8
0
10
330.85
20
-3.9775
11
330.85
21
-16.9775
0
ARC
8
0
10
317.35
20
-3.9775
40
0.5
50
90
51
180
0
ARC
8
0
10
330.35
20
-3.9775
40
0.5
50
0
51
90
0
ARC
8
0
10
317.35
20
-16.9775
40
0.5
50
180
51
270
0
ARC
8
0
10
330.35
20
-16.9775
40
0.5
50
270
51
0
0
LINE
8
0
10
345.925
20
-3.4775
11
358.925
21
-3.4775
0
LINE
8
0
10
345.925
20
-17.4775
11
358.925
21
-17.4775
0
LINE
8
0
10
345.425
20
-3.9775
11
345.425
21
-16.9775
0
LINE
8
0
10
359.425
20
-3.9775
11
359.425
21
-16.9775
0
ARC
8
0
10
345.925
20
-3.9775
40
0.5
50
90
51
180
0
ARC
8
0
10
358.925
20
-3.9775
40
0.5
50
0
51
90
0
ARC
8
0
10
345.925
20
-16.9775
40
0.5
50
180
51
270
0
ARC
8
0
10
358.925
20
-16.9775
40
0.5
50
270
51
0
0
LINE
8
0
10
337.487
20
-4.4775
11
343.487
21
-4.4775
0
LINE
8
0
10
337.487
20
-19.4775
11
343.487
21
-19.4775
0
LINE
8
0
10
336.987
20
-4.9775
11
336.987
21
-18.9775
0
LINE
8
0
10
343.987
20
-4.9775
11
343.987
21
-18.9775
0
ARC
8
0
10
337.487
20
-4.9775
40
0.5
50
90
51
180
0
ARC
8
0
10
343.487
20
-4.9775
40
0.5
50
0
51
90
0
ARC
8
0
10
337.487
20
-18.9775
40
0.5
50
180
51
270
0
ARC
8
0
10
343.487
20
-18.9775
40
0.5
50
270
51
0
0
LINE
8
0
10
361.363
20
-4.4775
11
367.363
21
-4.4775
0
LINE
8
0
10
361.363
20
-19.4775
11
367.363
21
-19.4775
0
LINE
8
0
10
360.863
20
-4.9775
11
360.863
21
-18.9775
0
LINE
8
0
10
367.863
20
-4.9775
11
367.863
21
-18.9775
0
ARC
8
0
10
361.363
20
-4.9775
40
0.5
50
90
51
180
0
ARC
8
0
10
367.363
20
-4.9775
40
0.5
50
0
51
90
0
ARC
8
0
10
361.363
20
-18.9775
40
0.5
50
180
51
270
0
ARC
8
0
10
367.363
20
-18.9775
40
0.5
50
270
51
0
0
LINE
8
0
10
384.025
20
-3.4775
11
397.025
21
-3.4775
0
LINE
8
0
10
384.025
20
-17.4775
11
397.025
21
-17.4775
0
LINE
8
0
10
383.525
20
-3.9775
11
383.525
21
-16.9775
0
LINE
8
0
10
397.525
20
-3.9775
11
397.525
21
-16.9775
0
ARC
8
0
10
384.025
20
-3.9775
40
0.5
50
90
51
180
0
ARC
8
0
10
397.025
20
-3.9775
40
0.5
50
0
51
90
0
ARC
8
0
10
384.025
20
-16.9775
40
0.5
50
180
51
270
0
ARC
8
0
10
397.025
20
-16.9775
40
0.5
50
270
51
0
0
LINE
8
0
10
403.075
20
-3.4775
11
416.075
21
-3.4775
0
LINE
8
0
10
403.075
20
-17.4775
11
416.075
21
-17.4775
0
LINE
8
0
10
402.575
20
-3.9775
11
402.575
21
-16.9775
0
LINE
8
0
10
416.575
20
-3.9775
11
416.575
21
-16.9775
0
ARC
8
0
10
403.075
20
-3.9775
40
0.5
50
90
51
180
0
ARC
8
0
10
416.075
20
-3.9775
40
0.5
50
0
51
90
0
ARC
8
0
10
403.075
20
-16.9775
40
0.5
50
180
51
270
0
ARC
8
0
10
416.075
20
-16.9775
40
0.5
50
270
51
0
0
LINE
8
0
10
422.125
20
-3.4775
11
435.125
21
-3.4775
0
LINE
8
0
10
422.125
20
-17.4775
11
435.125
21
-17.4775
0
LINE
8
0
10
421.625
20
-3.9775
11
421.625
21
-16.9775
0
LINE
8
0
10
435.625
20
-3.9775
11
435.625
21
-16.9775
0
ARC
8
0
10
422.125
20
-3.9775
40
0.5
50
90
51
180
0
ARC
8
0
10
435.125
20
-3.9775
40
0.5
50
0
51
90
0
ARC
8
0
10
422.125
20
-16.9775
40
0.5
50
180
51
270
0
ARC
8
0
10
435.125
20
-16.9775
40
0.5
50
270
51
0
0
LINE
8
0
10
441.175
20
-3.4775
11
454.175
21
-3.4775
0
LINE
8
0
10
441.175
20
-17.4775
11
454.175
21
-17.4775
0
LINE
8
0
10
440.675
20
-3.9775
11
440.675
21
-16.9775
0
LINE
8
0
10
454.675
20
-3.9775
11
454.675
21
-16.9775
0
ARC
8
0
10
441.175
20
-3.9775
40
0.5
50
90
51
180
0
ARC
8
0
10
454.175
20
-3.9775
40
0.5
50
0
51
90
0
ARC
8
0
10
441.175
20
-16.9775
40
0.5
50
180
51
270
0
ARC
8
0
10
454.175
20
-16.9775
40
0.5
50
270
51
0
0
LINE
8
0
10
293.5375
20
-21.575
11
306.5375
21
-21.575
0
LINE
8
0
10
293.5375
20
-35.575
11
306.5375
21
-35.575
0
LINE
8
0
10
293.0375
20
-22.075
11
293.0375
21
-35.075
0
LINE
8
0
10
307.0375
20
-22.075
11
307.0375
21
-35.075
0
ARC
8
0
10
293.5375
20
-22.075
40
0.5
50
90
51
180
0
ARC
8
0
10
306.5375
20
-22.075
40
0.5
50
0
51
90
0
ARC
8
0
10
293.5375
20
-35.075
40
0.5
50
180
51
270
0
ARC
8
0
10
306.5375
20
-35.075
40
0.5
50
270
51
0
0
LINE
8
0
10
3.025
20
-22.5275
11
16.025
21
-22.5275
0
LINE
8
0
10
3.025
20
-36.5275
11
16.025
21
-36.5275
0
LINE
8
0
10
2.525
20
-23.0275
11
2.525
21
-36.0275
0
LINE
8
0
10
16.525
20
-23.0275
11
16.525
21
-36.0275
0
ARC
8
0
10
3.025
20
-23.0275
40
0.5
50
90
51
180
0
ARC
8
0
10
16.025
20
-23.0275
40
0.5
50
0
51
90
0
ARC
8
0
10
3.025
20
-36.0275
40
0.5
50
180
51
270
0
ARC
8
0
10
16.025
20
-36.0275
40
0.5
50
270
51
0
0
LINE
8
0
10
22.075
20
-22.5275
11
35.075
21
-22.5275
0
LINE
8
0
10
22.075
20
-36.5275
11
35.075
21
-36.5275
0
LINE
8
0
10
21.575
20
-23.0275
11
21.575
21
-36.0275
0
LINE
8
0
10
35.575
20
-23.0275
11
35.575
21
-36.0275
0
ARC
8
0
10
22.075
20
-23.0275
40
0.5
50
90
51
180
0
ARC
8
0
10
35.075
20
-23.0275
40
0.5
50
0
51
90
0
ARC
8
0
10
22.075
20
-36.0275
40
0.5
50
180
51
270
0
ARC
8
0
10
35.075
20
-36.0275
40
0.5
50
270
51
0
0
LINE
8
0
10
55.4125
20
-22.5275
11
68.4125
21
-22.5275
0
LINE
8
0
10
55.4125
20
-36.5275
11
68.4125
21
-36.5275
0
LINE
8
0
10
54.9125
20
-23.0275
11
54.9125
21
-36.0275
0
LINE
8
0
10
68.9125
20
-23.0275
11
68.9125
21
-36.0275
0
ARC
8
0
10
55.4125
20
-23.0275
40
0.5
50
90
51
180
0
ARC
8
0
10
68.4125
20
-23.0275
40
0.5
50
0
51
90
0
ARC
8
0
10
55.4125
20
-36.0275
40
0.5
50
180
51
270
0
ARC
8
0
10
68.4125
20
-36.0275
40
0.5
50
270
51
0
0
LINE
8
0
10
79.225
20
-22.5275
11
92.225
21
-22.5275
0
LINE
8
0
10
79.225
20
-36.5275
11
92.225
21
-36.5275
0
LINE
8
0
10
78.725
20
-23.0275
11
78.725
21
-36.0275
0
LINE
8
0
10
92.725
20
-23.0275
11
92.725
21
-36.0275
0
ARC
8
0
10
79.225
20
-23.0275
40
0.5
50
90
51
180
0
ARC
8
0
10
92.225
20
-23.0275
40
0.5
50
0
51
90
0
ARC
8
0
10
79.225
20
-36.0275
40
0.5
50
180
51
270
0
ARC
8
0
10
92.225
20
-36.0275
40
0.5
50
270
51
0
0
LINE
8
0
10
312.5875
20
-22.5275
11
325.5875
21
-22.5275
0
LINE
8
0
10
312.5875
20
-36.5275
11
325.5875
21
-36.5275
0
LINE
8
0
10
312.0875
20
-23.0275
11
312.0875
21
-36.0275
0
LINE
8
0
10
326.0875
20
-23.0275
11
326.0875
21
-36.0275
0
ARC
8
0
10
312.5875
20
-23.0275
40
0.5
50
90
51
180
0
ARC
8
0
10
325.5875
20
-23.0275
40
0.5
50
0
51
90
0
ARC
8
0
10
312.5875
20
-36.0275
40
0.5
50
180
51
270
0
ARC
8
0
10
325.5875
20
-36.0275
40
0.5
50
270
51
0
0
LINE
8
0
10
331.6375
20
-22.5275
11
344.6375
21
-22.5275
0
LINE
8
0
10
331.6375
20
-36.5275
11
344.6375
21
-36.5275
0
LINE
8
0
10
331.1375
20
-23.0275
11
331.1375
21
-36.0275
0
LINE
8
0
10
345.1375
20
-23.0275
11
345.1375
21
-36.0275
0
ARC
8
0
10
331.6375
20
-23.0275
40
0.5
50
90
51
180
0
ARC
8
0
10
344.6375
20
-23.0275
40
0.5
50
0
51
90
0
ARC
8
0
10
331.6375
20
-36.0275
40
0.5
50
180
51
270
0
ARC
8
0
10
344.6375
20
-36.0275
40
0.5
50
270
51
0
0
LINE
8
0
10
355.45
20
-22.5275
11
368.45
21
-22.5275
0
LINE
8
0
10
355.45
20
-36.5275
11
368.45
21
-36.5275
0
LINE
8
0
10
354.95
20
-23.0275
11
354.95
21
-36.0275
0
LINE
8
0
10
368.95
20
-23.0275
11
368.95
21
-36.0275
0
ARC
8
0
10
355.45
20
-23.0275
40
0.5
50
90
51
180
0
ARC
8
0
10
368.45
20
-23.0275
40
0.5
50
0
51
90
0
ARC
8
0
10
355.45
20
-36.0275
40
0.5
50
180
51
270
0
ARC
8
0
10
368.45
20
-36.0275
40
0.5
50
270
51
0
0
LINE
8
0
10
384.025
20
-22.5275
11
397.025
21
-22.5275
0
LINE
8
0
10
384.025
20
-36.5275
11
397.025
21
-36.5275
0
LINE
8
0
10
383.525
20
-23.0275
11
383.525
21
-36.0275
0
LINE
8
0
10
397.525
20
-23.0275
11
397.525
21
-36.0275
0
ARC
8
0
10
384.025
20
-23.0275
40
0.5
50
90
51
180
0
ARC
8
0
10
397.025
20
-23.0275
40
0.5
50
0
51
90
0
ARC
8
0
10
384.025
20
-36.0275
40
0.5
50
180
51
270
0
ARC
8
0
10
397.025
20
-36.0275
40
0.5
50
270
51
0
0
LINE
8
0
10
403.075
20
-22.5275
11
416.075
21
-22.5275
0
LINE
8
0
10
403.075
20
-36.5275
11
416.075
21
-36.5275
0
LINE
8
0
10
402.575
20
-23.0275
11
402.575
21
-36.0275
0
LINE
8
0
10
416.575
20
-23.0275
11
416.575
21
-36.0275
0
ARC
8
0
10
403.075
20
-23.0275
40
0.5
50
90
51
180
0
ARC
8
0
10
416.075
20
-23.0275
40
0.5
50
0
51
90
0
ARC
8
0
10
403.075
20
-36.0275
40
0.5
50
180
51
270
0
ARC
8
0
10
416.075
20
-36.0275
40
0.5
50
270
51
0
0
LINE
8
0
10
422.125
20
-22.5275
11
435.125
21
-22.5275
0
LINE
8
0
10
422.125
20
-36.5275
11
435.125
21
-36.5275
0
LINE
8
0
10
421.625
20
-23.0275
11
421.625
21
-36.0275
0
LINE
8
0
10
435.625
20
-23.0275
11
435.625
21
-36.0275
0
ARC
8
0
10
422.125
20
-23.0275
40
0.5
50
90
51
180
0
ARC
8
0
10
435.125
20
-23.0275
40
0.5
50
0
51
90
0
ARC
8
0
10
422.125
20
-36.0275
40
0.5
50
180
51
270
0
ARC
8
0
10
435.125
20
-36.0275
40
0.5
50
270
51
0
0
LINE
8
0
10
454.675
20
-32.5525
11
454.675
21
-45.5525
0
LINE
8
0
10
440.675
20
-32.5525
11
440.675
21
-45.5525
0
LINE
8
0
10
454.175
20
-32.0525
11
441.175
21
-32.0525
0
LINE
8
0
10
454.175
20
-46.0525
11
441.175
21
-46.0525
0
ARC
8
0
10
454.175
20
-32.5525
40
0.5
50
0
51
90
0
ARC
8
0
10
454.175
20
-45.5525
40
0.5
50
270
51
0
0
ARC
8
0
10
441.175
20
-32.5525
40
0.5
50
90
51
180
0
ARC
8
0
10
441.175
20
-45.5525
40
0.5
50
180
51
270
0
LINE
8
0
10
453.675
20
-24.1145
11
453.675
21
-30.1145
0
LINE
8
0
10
438.675
20
-24.1145
11
438.675
21
-30.1145
0
LINE
8
0
10
453.175
20
-23.6145
11
439.175
21
-23.6145
0
LINE
8
0
10
453.175
20
-30.6145
11
439.175
21
-30.6145
0
ARC
8
0
10
453.175
20
-24.1145
40
0.5
50
0
51
90
0
ARC
8
0
10
453.175
20
-30.1145
40
0.5
50
270
51
0
0
ARC
8
0
10
439.175
20
-24.1145
40
0.5
50
90
51
180
0
ARC
8
0
10
439.175
20
-30.1145
40
0.5
50
180
51
270
0
LINE
8
0
10
453.675
20
-47.9905
11
453.675
21
-53.9905
0
LINE
8
0
10
438.675
20
-47.9905
11
438.675
21
-53.9905
0
LINE
8
0
10
453.175
20
-47.4905
11
439.175
21
-47.4905
0
LINE
8
0
10
453.175
20
-54.4905
11
439.175
21
-54.4905
0
ARC
8
0
10
453.175
20
-47.9905
40
0.5
50
0
51
90
0
ARC
8
0
10
453.175
20
-53.9905
40
0.5
50
270
51
0
0
ARC
8
0
10
439.175
20
-47.9905
40
0.5
50
90
51
180
0
ARC
8
0
10
439.175
20
-53.9905
40
0.5
50
180
51
270
0
LINE
8
0
10
3.025
20
-41.5775
11
16.025
21
-41.5775
0
LINE
8
0
10
3.025
20
-55.5775
11
16.025
21
-55.5775
0
LINE
8
0
10
2.525
20
-42.0775
11
2.525
21
-55.0775
0
LINE
8
0
10
16.525
20
-42.0775
11
16.525
21
-55.0775
0
ARC
8
0
10
3.025
20
-42.0775
40
0.5
50
90
51
180
0
ARC
8
0
10
16.025
20
-42.0775
40
0.5
50
0
51
90
0
ARC
8
0
10
3.025
20
-55.0775
40
0.5
50
180
51
270
0
ARC
8
0
10
16.025
20
-55.0775
40
0.5
50
270
51
0
0
LINE
8
0
10
22.075
20
-41.5775
11
35.075
21
-41.5775
0
LINE
8
0
10
22.075
20
-55.5775
11
35.075
21
-55.5775
0
LINE
8
0
10
21.575
20
-42.0775
11
21.575
21
-55.0775
0
LINE
8
0
10
35.575
20
-42.0775
11
35.575
21
-55.0775
0
ARC
8
0
10
22.075
20
-42.0775
40
0.5
50
90
51
180
0
ARC
8
0
10
35.075
20
-42.0775
40
0.5
50
0
51
90
0
ARC
8
0
10
22.075
20
-55.0775
40
0.5
50
180
51
270
0
ARC
8
0
10
35.075
20
-55.0775
40
0.5
50
270
51
0
0
LINE
8
0
10
55.88875
20
-41.5775
11
68.88875
21
-41.5775
0
LINE
8
0
10
55.88875
20
-55.5775
11
68.88875
21
-55.5775
0
LINE
8
0
10
55.38875
20
-42.0775
11
55.38875
21
-55.0775
0
LINE
8
0
10
69.38875
20
-42.0775
11
69.38875
21
-55.0775
0
ARC
8
0
10
55.88875
20
-42.0775
40
0.5
50
90
51
180
0
ARC
8
0
10
68.88875
20
-42.0775
40
0.5
50
0
51
90
0
ARC
8
0
10
55.88875
20
-55.0775
40
0.5
50
180
51
270
0
ARC
8
0
10
68.88875
20
-55.0775
40
0.5
50
270
51
0
0
LINE
8
0
10
82.0825
20
-41.5775
11
95.0825
21
-41.5775
0
LINE
8
0
10
82.0825
20
-55.5775
11
95.0825
21
-55.5775
0
LINE
8
0
10
81.5825
20
-42.0775
11
81.5825
21
-55.0775
0
LINE
8
0
10
95.5825
20
-42.0775
11
95.5825
21
-55.0775
0
ARC
8
0
10
82.0825
20
-42.0775
40
0.5
50
90
51
180
0
ARC
8
0
10
95.0825
20
-42.0775
40
0.5
50
0
51
90
0
ARC
8
0
10
82.0825
20
-55.0775
40
0.5
50
180
51
270
0
ARC
8
0
10
95.0825
20
-55.0775
40
0.5
50
270
51
0
0
LINE
8
0
10
300.205
20
-41.5775
11
313.205
21
-41.5775
0
LINE
8
0
10
300.205
20
-55.5775
11
313.205
21
-55.5775
0
LINE
8
0
10
299.705
20
-42.0775
11
299.705
21
-55.0775
0
LINE
8
0
10
313.705
20
-42.0775
11
313.705
21
-55.0775
0
ARC
8
0
10
300.205
20
-42.0775
40
0.5
50
90
51
180
0
ARC
8
0
10
313.205
20
-42.0775
40
0.5
50
0
51
90
0
ARC
8
0
10
300.205
20
-55.0775
40
0.5
50
180
51
270
0
ARC
8
0
10
313.205
20
-55.0775
40
0.5
50
270
51
0
0
LINE
8
0
10
319.255
20
-41.5775
11
332.255
21
-41.5775
0
LINE
8
0
10
319.255
20
-55.5775
11
332.255
21
-55.5775
0
LINE
8
0
10
318.755
20
-42.0775
11
318.755
21
-55.0775
0
LINE
8
0
10
332.755
20
-42.0775
11
332.755
21
-55.0775
0
ARC
8
0
10
319.255
20
-42.0775
40
0.5
50
90
51
180
0
ARC
8
0
10
332.255
20
-42.0775
40
0.5
50
0
51
90
0
ARC
8
0
10
319.255
20
-55.0775
40
0.5
50
180
51
270
0
ARC
8
0
10
332.255
20
-55.0775
40
0.5
50
270
51
0
0
LINE
8
0
10
350.21125
20
-41.5775
11
363.21125
21
-41.5775
0
LINE
8
0
10
350.21125
20
-55.5775
11
363.21125
21
-55.5775
0
LINE
8
0
10
349.71125
20
-42.0775
11
349.71125
21
-55.0775
0
LINE
8
0
10
363.71125
20
-42.0775
11
363.71125
21
-55.0775
0
ARC
8
0
10
350.21125
20
-42.0775
40
0.5
50
90
51
180
0
ARC
8
0
10
363.21125
20
-42.0775
40
0.5
50
0
51
90
0
ARC
8
0
10
350.21125
20
-55.0775
40
0.5
50
180
51
270
0
ARC
8
0
10
363.21125
20
-55.0775
40
0.5
50
270
51
0
0
LINE
8
0
10
341.77325
20
-42.5775
11
347.77325
21
-42.5775
0
LINE
8
0
10
341.77325
20
-57.5775
11
347.77325
21
-57.5775
0
LINE
8
0
10
341.27325
20
-43.0775
11
341.27325
21
-57.0775
0
LINE
8
0
10
348.27325
20
-43.0775
11
348.27325
21
-57.0775
0
ARC
8
0
10
341.77325
20
-43.0775
40
0.5
50
90
51
180
0
ARC
8
0
10
347.77325
20
-43.0775
40
0.5
50
0
51
90
0
ARC
8
0
10
341.77325
20
-57.0775
40
0.5
50
180
51
270
0
ARC
8
0
10
347.77325
20
-57.0775
40
0.5
50
270
51
0
0
LINE
8
0
10
365.64925
20
-42.5775
11
371.64925
21
-42.5775
0
LINE
8
0
10
365.64925
20
-57.5775
11
371.64925
21
-57.5775
0
LINE
8
0
10
365.14925
20
-43.0775
11
365.14925
21
-57.0775
0
LINE
8
0
10
372.14925
20
-43.0775
11
372.14925
21
-57.0775
0
ARC
8
0
10
365.64925
20
-43.0775
40
0.5
50
90
51
180
0
ARC
8
0
10
371.64925
20
-43.0775
40
0.5
50
0
51
90
0
ARC
8
0
10
365.64925
20
-57.0775
40
0.5
50
180
51
270
0
ARC
8
0
10
371.64925
20
-57.0775
40
0.5
50
270
51
0
0
LINE
8
0
10
384.025
20
-41.5775
11
397.025
21
-41.5775
0
LINE
8
0
10
384.025
20
-55.5775
11
397.025
21
-55.5775
0
LINE
8
0
10
383.525
20
-42.0775
11
383.525
21
-55.0775
0
LINE
8
0
10
397.525
20
-42.0775
11
397.525
21
-55.0775
0
ARC
8
0
10
384.025
20
-42.0775
40
0.5
50
90
51
180
0
ARC
8
0
10
397.025
20
-42.0775
40
0.5
50
0
51
90
0
ARC
8
0
10
384.025
20
-55.0775
40
0.5
50
180
51
270
0
ARC
8
0
10
397.025
20
-55.0775
40
0.5
50
270
51
0
0
LINE
8
0
10
403.075
20
-41.5775
11
416.075
21
-41.5775
0
LINE
8
0
10
403.075
20
-55.5775
11
416.075
21
-55.5775
0
LINE
8
0
10
402.575
20
-42.0775
11
402.575
21
-55.0775
0
LINE
8
0
10
416.575
20
-42.0775
11
416.575
21
-55.0775
0
ARC
8
0
10
403.075
20
-42.0775
40
0.5
50
90
51
180
0
ARC
8
0
10
416.075
20
-42.0775
40
0.5
50
0
51
90
0
ARC
8
0
10
403.075
20
-55.0775
40
0.5
50
180
51
270
0
ARC
8
0
10
416.075
20
-55.0775
40
0.5
50
270
51
0
0
LINE
8
0
10
422.125
20
-41.5775
11
435.125
21
-41.5775
0
LINE
8
0
10
422.125
20
-55.5775
11
435.125
21
-55.5775
0
LINE
8
0
10
421.625
20
-42.0775
11
421.625
21
-55.0775
0
LINE
8
0
10
435.625
20
-42.0775
11
435.625
21
-55.0775
0
ARC
8
0
10
422.125
20
-42.0775
40
0.5
50
90
51
180
0
ARC
8
0
10
435.125
20
-42.0775
40
0.5
50
0
51
90
0
ARC
8
0
10
422.125
20
-55.0775
40
0.5
50
180
51
270
0
ARC
8
0
10
435.125
20
-55.0775
40
0.5
50
270
51
0
0
LINE
8
0
10
3.025
20
-60.6275
11
16.025
21
-60.6275
0
LINE
8
0
10
3.025
20
-74.6275
11
16.025
21
-74.6275
0
LINE
8
0
10
2.525
20
-61.1275
11
2.525
21
-74.1275
0
LINE
8
0
10
16.525
20
-61.1275
11
16.525
21
-74.1275
0
ARC
8
0
10
3.025
20
-61.1275
40
0.5
50
90
51
180
0
ARC
8
0
10
16.025
20
-61.1275
40
0.5
50
0
51
90
0
ARC
8
0
10
3.025
20
-74.1275
40
0.5
50
180
51
270
0
ARC
8
0
10
16.025
20
-74.1275
40
0.5
50
270
51
0
0
LINE
8
0
10
22.075
20
-60.6275
11
35.075
21
-60.6275
0
LINE
8
0
10
22.075
20
-74.6275
11
35.075
21
-74.6275
0
LINE
8
0
10
21.575
20
-61.1275
11
21.575
21
-74.1275
0
LINE
8
0
10
35.575
20
-61.1275
11
35.575
21
-74.1275
0
ARC
8
0
10
22.075
20
-61.1275
40
0.5
50
90
51
180
0
ARC
8
0
10
35.075
20
-61.1275
40
0.5
50
0
51
90
0
ARC
8
0
10
22.075
20
-74.1275
40
0.5
50
180
51
270
0
ARC
8
0
10
35.075
20
-74.1275
40
0.5
50
270
51
0
0
LINE
8
0
10
57.79375
20
-60.6275
11
70.79375
21
-60.6275
0
LINE
8
0
10
57.79375
20
-74.6275
11
70.79375
21
-74.6275
0
LINE
8
0
10
57.29375
20
-61.1275
11
57.29375
21
-74.1275
0
LINE
8
0
10
71.29375
20
-61.1275
11
71.29375
21
-74.1275
0
ARC
8
0
10
57.79375
20
-61.1275
40
0.5
50
90
51
180
0
ARC
8
0
10
70.79375
20
-61.1275
40
0.5
50
0
51
90
0
ARC
8
0
10
57.79375
20
-74.1275
40
0.5
50
180
51
270
0
ARC
8
0
10
70.79375
20
-74.1275
40
0.5
50
270
51
0
0
LINE
8
0
10
49.35575
20
-61.6275
11
55.35575
21
-61.6275
0
LINE
8
0
10
49.35575
20
-76.6275
11
55.35575
21
-76.6275
0
LINE
8
0
10
48.85575
20
-62.1275
11
48.85575
21
-76.1275
0
LINE
8
0
10
55.85575
20
-62.1275
11
55.85575
21
-76.1275
0
ARC
8
0
10
49.35575
20
-62.1275
40
0.5
50
90
51
180
0
ARC
8
0
10
55.35575
20
-62.1275
40
0.5
50
0
51
90
0
ARC
8
0
10
49.35575
20
-76.1275
40
0.5
50
180
51
270
0
ARC
8
0
10
55.35575
20
-76.1275
40
0.5
50
270
51
0
0
LINE
8
0
10
73.23175
20
-61.6275
11
79.23175
21
-61.6275
0
LINE
8
0
10
73.23175
20
-76.6275
11
79.23175
21
-76.6275
0
LINE
8
0
10
72.73175
20
-62.1275
11
72.73175
21
-76.1275
0
LINE
8
0
10
79.73175
20
-62.1275
11
79.73175
21
-76.1275
0
ARC
8
0
10
73.23175
20
-62.1275
40
0.5
50
90
51
180
0
ARC
8
0
10
79.23175
20
-62.1275
40
0.5
50
0
51
90
0
ARC
8
0
10
73.23175
20
-76.1275
40
0.5
50
180
51
270
0
ARC
8
0
10
79.23175
20
-76.1275
40
0.5
50
270
51
0
0
LINE
8
0
10
88.75
20
-60.6275
11
101.75
21
-60.6275
0
LINE
8
0
10
88.75
20
-74.6275
11
101.75
21
-74.6275
0
LINE
8
0
10
88.25
20
-61.1275
11
88.25
21
-74.1275
0
LINE
8
0
10
102.25
20
-61.1275
11
102.25
21
-74.1275
0
ARC
8
0
10
88.75
20
-61.1275
40
0.5
50
90
51
180
0
ARC
8
0
10
101.75
20
-61.1275
40
0.5
50
0
51
90
0
ARC
8
0
10
88.75
20
-74.1275
40
0.5
50
180
51
270
0
ARC
8
0
10
101.75
20
-74.1275
40
0.5
50
270
51
0
0
LINE
8
0
10
293.5375
20
-60.6275
11
306.5375
21
-60.6275
0
LINE
8
0
10
293.5375
20
-74.6275
11
306.5375
21
-74.6275
0
LINE
8
0
10
293.0375
20
-61.1275
11
293.0375
21
-74.1275
0
LINE
8
0
10
307.0375
20
-61.1275
11
307.0375
21
-74.1275
0
ARC
8
0
10
293.5375
20
-61.1275
40
0.5
50
90
51
180
0
ARC
8
0
10
306.5375
20
-61.1275
40
0.5
50
0
51
90
0
ARC
8
0
10
293.5375
20
-74.1275
40
0.5
50
180
51
270
0
ARC
8
0
10
306.5375
20
-74.1275
40
0.5
50
270
51
0
0
LINE
8
0
10
312.5875
20
-60.6275
11
325.5875
21
-60.6275
0
LINE
8
0
10
312.5875
20
-74.6275
11
325.5875
21
-74.6275
0
LINE
8
0
10
312.0875
20
-61.1275
11
312.0875
21
-74.1275
0
LINE
8
0
10
326.0875
20
-61.1275
11
326.0875
21
-74.1275
0
ARC
8
0
10
312.5875
20
-61.1275
40
0.5
50
90
51
180
0
ARC
8
0
10
325.5875
20
-61.1275
40
0.5
50
0
51
90
0
ARC
8
0
10
312.5875
20
-74.1275
40
0.5
50
180
51
270
0
ARC
8
0
10
325.5875
20
-74.1275
40
0.5
50
270
51
0
0
LINE
8
0
10
338.78125
20
-60.6275
11
351.78125
21
-60.6275
0
LINE
8
0
10
338.78125
20
-74.6275
11
351.78125
21
-74.6275
0
LINE
8
0
10
338.28125
20
-61.1275
11
338.28125
21
-74.1275
0
LINE
8
0
10
352.28125
20
-61.1275
11
352.28125
21
-74.1275
0
ARC
8
0
10
338.78125
20
-61.1275
40
0.5
50
90
51
180
0
ARC
8
0
10
351.78125
20
-61.1275
40
0.5
50
0
51
90
0
ARC
8
0
10
338.78125
20
-74.1275
40
0.5
50
180
51
270
0
ARC
8
0
10
351.78125
20
-74.1275
40
0.5
50
270
51
0
0
LINE
8
0
10
384.025
20
-60.6275
11
397.025
21
-60.6275
0
LINE
8
0
10
384.025
20
-74.6275
11
397.025
21
-74.6275
0
LINE
8
0
10
383.525
20
-61.1275
11
383.525
21
-74.1275
0
LINE
8
0
10
397.525
20
-61.1275
11
397.525
21
-74.1275
0
ARC
8
0
10
384.025
20
-61.1275
40
0.5
50
90
51
180
0
ARC
8
0
10
397.025
20
-61.1275
40
0.5
50
0
51
90
0
ARC
8
0
10
384.025
20
-74.1275
40
0.5
50
180
51
270
0
ARC
8
0
10
397.025
20
-74.1275
40
0.5
50
270
51
0
0
LINE
8
0
10
403.075
20
-60.6275
11
416.075
21
-60.6275
0
LINE
8
0
10
403.075
20
-74.6275
11
416.075
21
-74.6275
0
LINE
8
0
10
402.575
20
-61.1275
11
402.575
21
-74.1275
0
LINE
8
0
10
416.575
20
-61.1275
11
416.575
21
-74.1275
0
ARC
8
0
10
403.075
20
-61.1275
40
0.5
50
90
51
180
0
ARC
8
0
10
416.075
20
-61.1275
40
0.5
50
0
51
90
0
ARC
8
0
10
403.075
20
-74.1275
40
0.5
50
180
51
270
0
ARC
8
0
10
416.075
20
-74.1275
40
0.5
50
270
51
0
0
LINE
8
0
10
422.125
20
-60.6275
11
435.125
21
-60.6275
0
LINE
8
0
10
422.125
20
-74.6275
11
435.125
21
-74.6275
0
LINE
8
0
10
421.625
20
-61.1275
11
421.625
21
-74.1275
0
LINE
8
0
10
435.625
20
-61.1275
11
435.625
21
-74.1275
0
ARC
8
0
10
422.125
20
-61.1275
40
0.5
50
90
51
180
0
ARC
8
0
10
435.125
20
-61.1275
40
0.5
50
0
51
90
0
ARC
8
0
10
422.125
20
-74.1275
40
0.5
50
180
51
270
0
ARC
8
0
10
435.125
20
-74.1275
40
0.5
50
270
51
0
0
LINE
8
0
10
454.675
20
-70.6525
11
454.675
21
-83.6525
0
LINE
8
0
10
440.675
20
-70.6525
11
440.675
21
-83.6525
0
LINE
8
0
10
454.175
20
-70.1525
11
441.175
21
-70.1525
0
LINE
8
0
10
454.175
20
-84.1525
11
441.175
21
-84.1525
0
ARC
8
0
10
454.175
20
-70.6525
40
0.5
50
0
51
90
0
ARC
8
0
10
454.175
20
-83.6525
40
0.5
50
270
51
0
0
ARC
8
0
10
441.175
20
-70.6525
40
0.5
50
90
51
180
0
ARC
8
0
10
441.175
20
-83.6525
40
0.5
50
180
51
270
0
LINE
8
0
10
453.675
20
-62.2145
11
453.675
21
-68.2145
0
LINE
8
0
10
438.675
20
-62.2145
11
438.675
21
-68.2145
0
LINE
8
0
10
453.175
20
-61.7145
11
439.175
21
-61.7145
0
LINE
8
0
10
453.175
20
-68.7145
11
439.175
21
-68.7145
0
ARC
8
0
10
453.175
20
-62.2145
40
0.5
50
0
51
90
0
ARC
8
0
10
453.175
20
-68.2145
40
0.5
50
270
51
0
0
ARC
8
0
10
439.175
20
-62.2145
40
0.5
50
90
51
180
0
ARC
8
0
10
439.175
20
-68.2145
40
0.5
50
180
51
270
0
LINE
8
0
10
453.675
20
-86.0905
11
453.675
21
-92.0905
0
LINE
8
0
10
438.675
20
-86.0905
11
438.675
21
-92.0905
0
LINE
8
0
10
453.175
20
-85.5905
11
439.175
21
-85.5905
0
LINE
8
0
10
453.175
20
-92.5905
11
439.175
21
-92.5905
0
ARC
8
0
10
453.175
20
-86.0905
40
0.5
50
0
51
90
0
ARC
8
0
10
453.175
20
-92.0905
40
0.5
50
270
51
0
0
ARC
8
0
10
439.175
20
-86.0905
40
0.5
50
90
51
180
0
ARC
8
0
10
439.175
20
-92.0905
40
0.5
50
180
51
270
0
LINE
8
0
10
3.025
20
-79.6775
11
16.025
21
-79.6775
0
LINE
8
0
10
3.025
20
-93.6775
11
16.025
21
-93.6775
0
LINE
8
0
10
2.525
20
-80.1775
11
2.525
21
-93.1775
0
LINE
8
0
10
16.525
20
-80.1775
11
16.525
21
-93.1775
0
ARC
8
0
10
3.025
20
-80.1775
40
0.5
50
90
51
180
0
ARC
8
0
10
16.025
20
-80.1775
40
0.5
50
0
51
90
0
ARC
8
0
10
3.025
20
-93.1775
40
0.5
50
180
51
270
0
ARC
8
0
10
16.025
20
-93.1775
40
0.5
50
270
51
0
0
LINE
8
0
10
22.075
20
-79.6775
11
35.075
21
-79.6775
0
LINE
8
0
10
22.075
20
-93.6775
11
35.075
21
-93.6775
0
LINE
8
0
10
21.575
20
-80.1775
11
21.575
21
-93.1775
0
LINE
8
0
10
35.575
20
-80.1775
11
35.575
21
-93.1775
0
ARC
8
0
10
22.075
20
-80.1775
40
0.5
50
90
51
180
0
ARC
8
0
10
35.075
20
-80.1775
40
0.5
50
0
51
90
0
ARC
8
0
10
22.075
20
-93.1775
40
0.5
50
180
51
270
0
ARC
8
0
10
35.075
20
-93.1775
40
0.5
50
270
51
0
0
LINE
8
0
10
50.65
20
-79.6775
11
63.65
21
-79.6775
0
LINE
8
0
10
50.65
20
-93.6775
11
63.65
21
-93.6775
0
LINE
8
0
10
50.15
20
-80.1775
11
50.15
21
-93.1775
0
LINE
8
0
10
64.15
20
-80.1775
11
64.15
21
-93.1775
0
ARC
8
0
10
50.65
20
-80.1775
40
0.5
50
90
51
180
0
ARC
8
0
10
63.65
20
-80.1775
40
0.5
50
0
51
90
0
ARC
8
0
10
50.65
20
-93.1775
40
0.5
50
180
51
270
0
ARC
8
0
10
63.65
20
-93.1775
40
0.5
50
270
51
0
0
LINE
8
0
10
345.925
20
-79.6775
11
358.925
21
-79.6775
0
LINE
8
0
10
345.925
20
-93.6775
11
358.925
21
-93.6775
0
LINE
8
0
10
345.425
20
-80.1775
11
345.425
21
-93.1775
0
LINE
8
0
10
359.425
20
-80.1775
11
359.425
21
-93.1775
0
ARC
8
0
10
345.925
20
-80.1775
40
0.5
50
90
51
180
0
ARC
8
0
10
358.925
20
-80.1775
40
0.5
50
0
51
90
0
ARC
8
0
10
345.925
20
-93.1775
40
0.5
50
180
51
270
0
ARC
8
0
10
358.925
20
-93.1775
40
0.5
50
270
51
0
0
LINE
8
0
10
393.55
20
-79.6775
11
406.55
21
-79.6775
0
LINE
8
0
10
393.55
20
-93.6775
11
406.55
21
-93.6775
0
LINE
8
0
10
393.05
20
-80.1775
11
393.05
21
-93.1775
0
LINE
8
0
10
407.05
20
-80.1775
11
407.05
21
-93.1775
0
ARC
8
0
10
393.55
20
-80.1775
40
0.5
50
90
51
180
0
ARC
8
0
10
406.55
20
-80.1775
40
0.5
50
0
51
90
0
ARC
8
0
10
393.55
20
-93.1775
40
0.5
50
180
51
270
0
ARC
8
0
10
406.55
20
-93.1775
40
0.5
50
270
51
0
0
LINE
8
0
10
385.112
20
-80.6775
11
391.112
21
-80.6775
0
LINE
8
0
10
385.112
20
-95.6775
11
391.112
21
-95.6775
0
LINE
8
0
10
384.612
20
-81.1775
11
384.612
21
-95.1775
0
LINE
8
0
10
391.612
20
-81.1775
11
391.612
21
-95.1775
0
ARC
8
0
10
385.112
20
-81.1775
40
0.5
50
90
51
180
0
ARC
8
0
10
391.112
20
-81.1775
40
0.5
50
0
51
90
0
ARC
8
0
10
385.112
20
-95.1775
40
0.5
50
180
51
270
0
ARC
8
0
10
391.112
20
-95.1775
40
0.5
50
270
51
0
0
LINE
8
0
10
408.988
20
-80.6775
11
414.988
21
-80.6775
0
LINE
8
0
10
408.988
20
-95.6775
11
414.988
21
-95.6775
0
LINE
8
0
10
408.488
20
-81.1775
11
408.488
21
-95.1775
0
LINE
8
0
10
415.488
20
-81.1775
11
415.488
21
-95.1775
0
ARC
8
0
10
408.988
20
-81.1775
40
0.5
50
90
51
180
0
ARC
8
0
10
414.988
20
-81.1775
40
0.5
50
0
51
90
0
ARC
8
0
10
408.988
20
-95.1775
40
0.5
50
180
51
270
0
ARC
8
0
10
414.988
20
-95.1775
40
0.5
50
270
51
0
0
LINE
8
0
10
422.125
20
-79.6775
11
435.125
21
-79.6775
0
LINE
8
0
10
422.125
20
-93.6775
11
435.125
21
-93.6775
0
LINE
8
0
10
421.625
20
-80.1775
11
421.625
21
-93.1775
0
LINE
8
0
10
435.625
20
-80.1775
11
435.625
21
-93.1775
0
ARC
8
0
10
422.125
20
-80.1775
40
0.5
50
90
51
180
0
ARC
8
0
10
435.125
20
-80.1775
40
0.5
50
0
51
90
0
ARC
8
0
10
422.125
20
-93.1775
40
0.5
50
180
51
270
0
ARC
8
0
10
435.125
20
-93.1775
40
0.5
50
270
51
0
0
LINE
8
0
10
106.8339823
20
-80.9471707
11
119.6911885
21
-82.868693
0
LINE
8
0
10
104.7646505
20
-94.7933928
11
117.6218567
21
-96.7149151
0
LINE
8
0
10
106.2655696
20
-81.3677739
11
104.3440473
21
-94.2249801
0
LINE
8
0
10
120.1117917
20
-83.4371057
11
118.1902694
21
-96.2943119
0
ARC
8
0
10
106.7600776
20
-81.4416786
40
0.5
50
81.5
51
171.5
0
ARC
8
0
10
119.6172838
20
-83.363201
40
0.5
50
351.5
51
81.5
0
ARC
8
0
10
104.8385552
20
-94.2988848
40
0.5
50
171.5
51
261.5
0
ARC
8
0
10
117.6957614
20
-96.2204072
40
0.5
50
261.5
51
351.5
0
LINE
8
0
10
96.5305756
20
-1.0683641
11
109.3330764
21
-3.3257904
0
LINE
8
0
10
94.0995012
20
-14.8556726
11
106.902002
21
-17.1130989
0
LINE
8
0
10
95.9513477
20
-1.4739439
11
93.6939214
21
-14.2764447
0
LINE
8
0
10
109.7386562
20
-3.9050183
11
107.4812299
21
-16.7075191
0
ARC
8
0
10
96.4437516
20
-1.560768
40
0.5
50
80
51
170
0
ARC
8
0
10
109.2462523
20
-3.8181943
40
0.5
50
350
51
80
0
ARC
8
0
10
94.1863253
20
-14.3632687
40
0.5
50
170
51
260
0
ARC
8
0
10
106.988826
20
-16.620695
40
0.5
50
260
51
350
0
LINE
8
0
10
115.2911633
20
-4.3763619
11
128.0936641
21
-6.6337882
0
LINE
8
0
10
112.8600889
20
-18.1636704
11
125.6625897
21
-20.4210967
0
LINE
8
0
10
114.7119354
20
-4.7819417
11
112.4545091
21
-17.5844425
0
LINE
8
0
10
128.4992439
20
-7.2130161
11
126.2418176
21
-20.0155169
0
ARC
8
0
10
115.2043393
20
-4.8687658
40
0.5
50
80
51
170
0
ARC
8
0
10
128.00684
20
-7.1261921
40
0.5
50
350
51
80
0
ARC
8
0
10
112.946913
20
-17.6712665
40
0.5
50
170
51
260
0
ARC
8
0
10
125.7494137
20
-19.9286928
40
0.5
50
260
51
350
0
LINE
8
0
10
134.051751
20
-7.6843597
11
146.8542518
21
-9.941786
0
LINE
8
0
10
131.6206766
20
-21.4716682
11
144.4231774
21
-23.7290945
0
LINE
8
0
10
133.4725231
20
-8.0899395
11
131.2150968
21
-20.8924403
0
LINE
8
0
10
147.2598316
20
-10.5210139
11
145.0024053
21
-23.3235147
0
ARC
8
0
10
133.964927
20
-8.1767636
40
0.5
50
80
51
170
0
ARC
8
0
10
146.7674277
20
-10.4341899
40
0.5
50
350
51
80
0
ARC
8
0
10
131.7075007
20
-20.9792643
40
0.5
50
170
51
260
0
ARC
8
0
10
144.5100014
20
-23.2366906
40
0.5
50
260
51
350
0
LINE
8
0
10
152.8123387
20
-10.9923575
11
165.6148395
21
-13.2497838
0
LINE
8
0
10
150.3812643
20
-24.779666
11
163.1837651
21
-27.0370923
0
LINE
8
0
10
152.2331108
20
-11.3979373
11
149.9756845
21
-24.2004381
0
LINE
8
0
10
166.0204193
20
-13.8290117
11
163.762993
21
-26.6315125
0
ARC
8
0
10
152.7255147
20
-11.4847614
40
0.5
50
80
51
170
0
ARC
8
0
10
165.5280154
20
-13.7421877
40
0.5
50
350
51
80
0
ARC
8
0
10
150.4680884
20
-24.2872621
40
0.5
50
170
51
260
0
ARC
8
0
10
163.2705891
20
-26.5446884
40
0.5
50
260
51
350
0
LINE
8
0
10
171.5729263
20
-14.3003553
11
184.3754271
21
-16.5577816
0
LINE
8
0
10
169.1418519
20
-28.0876638
11
181.9443527
21
-30.3450901
0
LINE
8
0
10
170.9936984
20
-14.7059351
11
168.7362721
21
-27.5084359
0
LINE
8
0
10
184.7810069
20
-17.1370095
11
182.5235806
21
-29.9395103
0
ARC
8
0
10
171.4861023
20
-14.7927592
40
0.5
50
80
51
170
0
ARC
8
0
10
184.288603
20
-17.0501855
40
0.5
50
350
51
80
0
ARC
8
0
10
169.228676
20
-27.5952599
40
0.5
50
170
51
260
0
ARC
8
0
10
182.0311767
20
-29.8526862
40
0.5
50
260
51
350
0
LINE
8
0
10
102.6028716
20
-21.4829507
11
115.4053724
21
-23.740377
0
LINE
8
0
10
100.1717972
20
-35.2702592
11
112.974298
21
-37.5276855
0
LINE
8
0
10
102.0236437
20
-21.8885305
11
99.7662174
21
-34.6910313
0
LINE
8
0
10
115.8109522
20
-24.3196049
11
113.5535259
21
-37.1221057
0
ARC
8
0
10
102.5160476
20
-21.9753546
40
0.5
50
80
51
170
0
ARC
8
0
10
115.3185483
20
-24.2327809
40
0.5
50
350
51
80
0
ARC
8
0
10
100.2586213
20
-34.7778553
40
0.5
50
170
51
260
0
ARC
8
0
10
113.061122
20
-37.0352816
40
0.5
50
260
51
350
0
LINE
8
0
10
121.3634593
20
-24.7909485
11
134.1659601
21
-27.0483748
0
LINE
8
0
10
118.9323849
20
-38.578257
11
131.7348857
21
-40.8356833
0
LINE
8
0
10
120.7842314
20
-25.1965283
11
118.5268051
21
-37.9990291
0
LINE
8
0
10
134.5715399
20
-27.6276027
11
132.3141136
21
-40.4301035
0
ARC
8
0
10
121.2766353
20
-25.2833524
40
0.5
50
80
51
170
0
ARC
8
0
10
134.079136
20
-27.5407787
40
0.5
50
350
51
80
0
ARC
8
0
10
119.019209
20
-38.0858531
40
0.5
50
170
51
260
0
ARC
8
0
10
131.8217097
20
-40.3432794
40
0.5
50
260
51
350
0
LINE
8
0
10
140.124047
20
-28.0989463
11
152.9265478
21
-30.3563726
0
LINE
8
0
10
137.6929726
20
-41.8862548
11
150.4954734
21
-44.1436811
0
LINE
8
0
10
139.5448191
20
-28.5045261
11
137.2873928
21
-41.3070269
0
LINE
8
0
10
153.3321276
20
-30.9356005
11
151.0747013
21
-43.7381013
0
ARC
8
0
10
140.037223
20
-28.5913502
40
0.5
50
80
51
170
0
ARC
8
0
10
152.8397237
20
-30.8487765
40
0.5
50
350
51
80
0
ARC
8
0
10
137.7797967
20
-41.3938509
40
0.5
50
170
51
260
0
ARC
8
0
10
150.5822974
20
-43.6512772
40
0.5
50
260
51
350
0
LINE
8
0
10
158.8846347
20
-31.4069441
11
171.6871355
21
-33.6643704
0
LINE
8
0
10
156.4535603
20
-45.1942526
11
169.2560611
21
-47.4516789
0
LINE
8
0
10
158.3054068
20
-31.8125239
11
156.0479805
21
-44.6150247
0
LINE
8
0
10
172.0927153
20
-34.2435983
11
169.835289
21
-47.0460991
0
ARC
8
0
10
158.7978107
20
-31.899348
40
0.5
50
80
51
170
0
ARC
8
0
10
171.6003114
20
-34.1567743
40
0.5
50
350
51
80
0
ARC
8
0
10
156.5403844
20
-44.7018487
40
0.5
50
170
51
260
0
ARC
8
0
10
169.3428851
20
-46.959275
40
0.5
50
260
51
350
0
LINE
8
0
10
103.9850208
20
-41.0705379
11
116.7875216
21
-43.3279642
0
LINE
8
0
10
101.5539464
20
-54.8578464
11
114.3564472
21
-57.1152727
0
LINE
8
0
10
103.4057929
20
-41.4761177
11
101.1483666
21
-54.2786185
0
LINE
8
0
10
117.1931014
20
-43.9071921
11
114.9356751
21
-56.7096929
0
ARC
8
0
10
103.8981968
20
-41.5629418
40
0.5
50
80
51
170
0
ARC
8
0
10
116.7006975
20
-43.8203681
40
0.5
50
350
51
80
0
ARC
8
0
10
101.6407705
20
-54.3654425
40
0.5
50
170
51
260
0
ARC
8
0
10
114.4432712
20
-56.6228688
40
0.5
50
260
51
350
0
LINE
8
0
10
122.7456085
20
-44.3785357
11
135.5481093
21
-46.635962
0
LINE
8
0
10
120.3145341
20
-58.1658442
11
133.1170349
21
-60.4232705
0
LINE
8
0
10
122.1663806
20
-44.7841155
11
119.9089543
21
-57.5866163
0
LINE
8
0
10
135.9536891
20
-47.2151899
11
133.6962628
21
-60.0176907
0
ARC
8
0
10
122.6587845
20
-44.8709396
40
0.5
50
80
51
170
0
ARC
8
0
10
135.4612852
20
-47.1283659
40
0.5
50
350
51
80
0
ARC
8
0
10
120.4013582
20
-57.6734403
40
0.5
50
170
51
260
0
ARC
8
0
10
133.2038589
20
-59.9308666
40
0.5
50
260
51
350
0
LINE
8
0
10
141.5061962
20
-47.6865334
11
154.308697
21
-49.9439597
0
LINE
8
0
10
139.0751218
20
-61.4738419
11
151.8776226
21
-63.7312682
0
LINE
8
0
10
140.9269683
20
-48.0921132
11
138.669542
21
-60.894614
0
LINE
8
0
10
154.7142768
20
-50.5231876
11
152.4568505
21
-63.3256884
0
ARC
8
0
10
141.4193722
20
-48.1789373
40
0.5
50
80
51
170
0
ARC
8
0
10
154.2218729
20
-50.4363636
40
0.5
50
350
51
80
0
ARC
8
0
10
139.1619459
20
-60.981438
40
0.5
50
170
51
260
0
ARC
8
0
10
151.9644466
20
-63.2388643
40
0.5
50
260
51
350
0
LINE
8
0
10
160.2667839
20
-50.9945312
11
173.0692847
21
-53.2519575
0
LINE
8
0
10
157.8357095
20
-64.7818397
11
170.6382103
21
-67.039266
0
LINE
8
0
10
159.687556
20
-51.400111
11
157.4301297
21
-64.2026118
0
LINE
8
0
10
173.4748645
20
-53.8311854
11
171.2174382
21
-66.6336862
0
ARC
8
0
10
160.1799599
20
-51.4869351
40
0.5
50
80
51
170
0
ARC
8
0
10
172.9824606
20
-53.7443614
40
0.5
50
350
51
80
0
ARC
8
0
10
157.9225336
20
-64.2894358
40
0.5
50
170
51
260
0
ARC
8
0
10
170.7250343
20
-66.5468621
40
0.5
50
260
51
350
0
LINE
8
0
10
110.9953462
20
-61.6505243
11
123.797847
21
-63.9079506
0
LINE
8
0
10
108.5642718
20
-75.4378328
11
121.3667726
21
-77.6952591
0
LINE
8
0
10
110.4161183
20
-62.0561041
11
108.158692
21
-74.8586049
0
LINE
8
0
10
124.2034268
20
-64.4871785
11
121.9460005
21
-77.2896793
0
ARC
8
0
10
110.9085222
20
-62.1429282
40
0.5
50
80
51
170
0
ARC
8
0
10
123.7110229
20
-64.4003545
40
0.5
50
350
51
80
0
ARC
8
0
10
108.6510959
20
-74.9454289
40
0.5
50
170
51
260
0
ARC
8
0
10
121.4535966
20
-77.2028552
40
0.5
50
260
51
350
0
LINE
8
0
10
129.7559339
20
-64.9585221
11
142.5584347
21
-67.2159484
0
LINE
8
0
10
127.3248595
20
-78.7458306
11
140.1273603
21
-81.0032569
0
LINE
8
0
10
129.176706
20
-65.3641019
11
126.9192797
21
-78.1666027
0
LINE
8
0
10
142.9640145
20
-67.7951763
11
140.7065882
21
-80.5976771
0
ARC
8
0
10
129.6691099
20
-65.450926
40
0.5
50
80
51
170
0
ARC
8
0
10
142.4716106
20
-67.7083523
40
0.5
50
350
51
80
0
ARC
8
0
10
127.4116836
20
-78.2534267
40
0.5
50
170
51
260
0
ARC
8
0
10
140.2141843
20
-80.510853
40
0.5
50
260
51
350
0
LINE
8
0
10
148.5165216
20
-68.2665199
11
161.3190224
21
-70.5239462
0
LINE
8
0
10
146.0854472
20
-82.0538284
11
158.887948
21
-84.3112547
0
LINE
8
0
10
147.9372937
20
-68.6720997
11
145.6798674
21
-81.4746005
0
LINE
8
0
10
161.7246022
20
-71.1031741
11
159.4671759
21
-83.9056749
0
ARC
8
0
10
148.4296976
20
-68.7589238
40
0.5
50
80
51
170
0
ARC
8
0
10
161.2321983
20
-71.0163501
40
0.5
50
350
51
80
0
ARC
8
0
10
146.1722713
20
-81.5614245
40
0.5
50
170
51
260
0
ARC
8
0
10
158.974772
20
-83.8188508
40
0.5
50
260
51
350
0
LINE
8
0
10
167.2771093
20
-71.5745177
11
180.0796101
21
-73.831944
0
LINE
8
0
10
164.8460349
20
-85.3618262
11
177.6485357
21
-87.6192525
0
LINE
8
0
10
166.6978814
20
-71.9800975
11
164.4404551
21
-84.7825983
0
LINE
8
0
10
180.4851899
20
-74.4111719
11
178.2277636
21
-87.2136727
0
ARC
8
0
10
167.1902853
20
-72.0669216
40
0.5
50
80
51
170
0
ARC
8
0
10
179.992786
20
-74.3243479
40
0.5
50
350
51
80
0
ARC
8
0
10
164.932859
20
-84.8694223
40
0.5
50
170
51
260
0
ARC
8
0
10
177.7353597
20
-87.1268486
40
0.5
50
260
51
350
0
LINE
8
0
10
147.5535973
20
-87.4406073
11
160.3560981
21
-89.6980336
0
LINE
8
0
10
145.1225229
20
-101.2279158
11
157.9250237
21
-103.4853421
0
LINE
8
0
10
146.9743694
20
-87.8461871
11
144.7169431
21
-100.6486879
0
LINE
8
0
10
160.7616779
20
-90.2772615
11
158.5042516
21
-103.0797623
0
ARC
8
0
10
147.4667733
20
-87.9330112
40
0.5
50
80
51
170
0
ARC
8
0
10
160.269274
20
-90.1904375
40
0.5
50
350
51
80
0
ARC
8
0
10
145.209347
20
-100.7355119
40
0.5
50
170
51
260
0
ARC
8
0
10
158.0118477
20
-102.9929382
40
0.5
50
260
51
350
0
LINE
8
0
10
139.0701414
20
-86.9601717
11
144.9789879
21
-88.0020608
0
LINE
8
0
10
136.4654187
20
-101.732288
11
142.3742652
21
-102.7741771
0
LINE
8
0
10
138.4909134
20
-87.3657515
11
136.0598389
21
-101.15306
0
LINE
8
0
10
145.3845677
20
-88.5812887
11
142.9534932
21
-102.3685973
0
ARC
8
0
10
138.9833173
20
-87.4525756
40
0.5
50
80
51
170
0
ARC
8
0
10
144.8921638
20
-88.4944646
40
0.5
50
350
51
80
0
ARC
8
0
10
136.5522428
20
-101.2398841
40
0.5
50
170
51
260
0
ARC
8
0
10
142.4610893
20
-102.2817732
40
0.5
50
260
51
350
0
LINE
8
0
10
162.5834113
20
-91.1061956
11
168.4922578
21
-92.1480847
0
LINE
8
0
10
159.9786886
20
-105.8783119
11
165.8875351
21
-106.920201
0
LINE
8
0
10
162.0041833
20
-91.5117754
11
159.5731088
21
-105.2990839
0
LINE
8
0
10
168.8978376
20
-92.7273126
11
166.4667631
21
-106.5146212
0
ARC
8
0
10
162.4965872
20
-91.5985995
40
0.5
50
80
51
170
0
ARC
8
0
10
168.4054337
20
-92.6404885
40
0.5
50
350
51
80
0
ARC
8
0
10
160.0655127
20
-105.385908
40
0.5
50
170
51
260
0
ARC
8
0
10
165.9743592
20
-106.4277971
40
0.5
50
260
51
350
0
LINE
8
0
10
220.2923667
20
-14.9037827
11
233.0948675
21
-12.6463564
0
LINE
8
0
10
222.7234411
20
-28.6910912
11
235.5259419
21
-26.4336649
0
LINE
8
0
10
219.8867869
20
-15.4830106
11
222.1442132
21
-28.2855114
0
LINE
8
0
10
233.6740954
20
-13.0519362
11
235.9315217
21
-25.854437
0
ARC
8
0
10
220.3791908
20
-15.3961866
40
0.5
50
100
51
190
0
ARC
8
0
10
233.1816915
20
-13.1387603
40
0.5
50
10
51
100
0
ARC
8
0
10
222.6366171
20
-28.1986873
40
0.5
50
190
51
280
0
ARC
8
0
10
235.4391178
20
-25.941261
40
0.5
50
280
51
10
0
LINE
8
0
10
239.0529544
20
-11.5957849
11
251.8554552
21
-9.3383586
0
LINE
8
0
10
241.4840288
20
-25.3830934
11
254.2865296
21
-23.1256671
0
LINE
8
0
10
238.6473746
20
-12.1750128
11
240.9048009
21
-24.9775136
0
LINE
8
0
10
252.4346831
20
-9.7439384
11
254.6921094
21
-22.5464392
0
ARC
8
0
10
239.1397785
20
-12.0881888
40
0.5
50
100
51
190
0
ARC
8
0
10
251.9422792
20
-9.8307625
40
0.5
50
10
51
100
0
ARC
8
0
10
241.3972048
20
-24.8906895
40
0.5
50
190
51
280
0
ARC
8
0
10
254.1997055
20
-22.6332632
40
0.5
50
280
51
10
0
LINE
8
0
10
257.8135421
20
-8.2877871
11
270.6160429
21
-6.0303608
0
LINE
8
0
10
260.2446165
20
-22.0750956
11
273.0471173
21
-19.8176693
0
LINE
8
0
10
257.4079623
20
-8.867015
11
259.6653886
21
-21.6695158
0
LINE
8
0
10
271.1952708
20
-6.4359406
11
273.4526971
21
-19.2384414
0
ARC
8
0
10
257.9003662
20
-8.780191
40
0.5
50
100
51
190
0
ARC
8
0
10
270.7028669
20
-6.5227647
40
0.5
50
10
51
100
0
ARC
8
0
10
260.1577925
20
-21.5826917
40
0.5
50
190
51
280
0
ARC
8
0
10
272.9602932
20
-19.3252654
40
0.5
50
280
51
10
0
LINE
8
0
10
276.5741298
20
-4.9797893
11
289.3766306
21
-2.722363
0
LINE
8
0
10
279.0052042
20
-18.7670978
11
291.807705
21
-16.5096715
0
LINE
8
0
10
276.16855
20
-5.5590172
11
278.4259763
21
-18.361518
0
LINE
8
0
10
289.9558585
20
-3.1279428
11
292.2132848
21
-15.9304436
0
ARC
8
0
10
276.6609539
20
-5.4721932
40
0.5
50
100
51
190
0
ARC
8
0
10
289.4634546
20
-3.2147669
40
0.5
50
10
51
100
0
ARC
8
0
10
278.9183802
20
-18.2746939
40
0.5
50
190
51
280
0
ARC
8
0
10
291.7208809
20
-16.0172676
40
0.5
50
280
51
10
0
LINE
8
0
10
214.2200706
20
-35.3183693
11
227.0225714
21
-33.060943
0
LINE
8
0
10
216.651145
20
-49.1056778
11
229.4536458
21
-46.8482515
0
LINE
8
0
10
213.8144908
20
-35.8975972
11
216.0719171
21
-48.700098
0
LINE
8
0
10
227.6017993
20
-33.4665228
11
229.8592256
21
-46.2690236
0
ARC
8
0
10
214.3068947
20
-35.8107732
40
0.5
50
100
51
190
0
ARC
8
0
10
227.1093954
20
-33.5533469
40
0.5
50
10
51
100
0
ARC
8
0
10
216.564321
20
-48.6132739
40
0.5
50
190
51
280
0
ARC
8
0
10
229.3668217
20
-46.3558476
40
0.5
50
280
51
10
0
LINE
8
0
10
232.9806583
20
-32.0103715
11
245.7831591
21
-29.7529452
0
LINE
8
0
10
235.4117327
20
-45.79768
11
248.2142335
21
-43.5402537
0
LINE
8
0
10
232.5750785
20
-32.5895994
11
234.8325048
21
-45.3921002
0
LINE
8
0
10
246.362387
20
-30.158525
11
248.6198133
21
-42.9610258
0
ARC
8
0
10
233.0674824
20
-32.5027754
40
0.5
50
100
51
190
0
ARC
8
0
10
245.8699831
20
-30.2453491
40
0.5
50
10
51
100
0
ARC
8
0
10
235.3249087
20
-45.3052761
40
0.5
50
190
51
280
0
ARC
8
0
10
248.1274094
20
-43.0478498
40
0.5
50
280
51
10
0
LINE
8
0
10
251.741246
20
-28.7023737
11
264.5437468
21
-26.4449474
0
LINE
8
0
10
254.1723204
20
-42.4896822
11
266.9748212
21
-40.2322559
0
LINE
8
0
10
251.3356662
20
-29.2816016
11
253.5930925
21
-42.0841024
0
LINE
8
0
10
265.1229747
20
-26.8505272
11
267.380401
21
-39.653028
0
ARC
8
0
10
251.8280701
20
-29.1947776
40
0.5
50
100
51
190
0
ARC
8
0
10
264.6305708
20
-26.9373513
40
0.5
50
10
51
100
0
ARC
8
0
10
254.0854964
20
-41.9972783
40
0.5
50
190
51
280
0
ARC
8
0
10
266.8879971
20
-39.739852
40
0.5
50
280
51
10
0
LINE
8
0
10
270.5018337
20
-25.3943759
11
283.3043345
21
-23.1369496
0
LINE
8
0
10
272.9329081
20
-39.1816844
11
285.7354089
21
-36.9242581
0
LINE
8
0
10
270.0962539
20
-25.9736038
11
272.3536802
21
-38.7761046
0
LINE
8
0
10
283.8835624
20
-23.5425294
11
286.1409887
21
-36.3450302
0
ARC
8
0
10
270.5886578
20
-25.8867798
40
0.5
50
100
51
190
0
ARC
8
0
10
283.3911585
20
-23.6293535
40
0.5
50
10
51
100
0
ARC
8
0
10
272.8460841
20
-38.6892805
40
0.5
50
190
51
280
0
ARC
8
0
10
285.6485848
20
-36.4318542
40
0.5
50
280
51
10
0
LINE
8
0
10
222.2182153
20
-53.2519575
11
235.0207161
21
-50.9945312
0
LINE
8
0
10
224.6492897
20
-67.039266
11
237.4517905
21
-64.7818397
0
LINE
8
0
10
221.8126355
20
-53.8311854
11
224.0700618
21
-66.6336862
0
LINE
8
0
10
235.599944
20
-51.400111
11
237.8573703
21
-64.2026118
0
ARC
8
0
10
222.3050394
20
-53.7443614
40
0.5
50
100
51
190
0
ARC
8
0
10
235.1075401
20
-51.4869351
40
0.5
50
10
51
100
0
ARC
8
0
10
224.5624657
20
-66.5468621
40
0.5
50
190
51
280
0
ARC
8
0
10
237.3649664
20
-64.2894358
40
0.5
50
280
51
10
0
LINE
8
0
10
240.978803
20
-49.9439597
11
253.7813038
21
-47.6865334
0
LINE
8
0
10
243.4098774
20
-63.7312682
11
256.2123782
21
-61.4738419
0
LINE
8
0
10
240.5732232
20
-50.5231876
11
242.8306495
21
-63.3256884
0
LINE
8
0
10
254.3605317
20
-48.0921132
11
256.617958
21
-60.894614
0
ARC
8
0
10
241.0656271
20
-50.4363636
40
0.5
50
100
51
190
0
ARC
8
0
10
253.8681278
20
-48.1789373
40
0.5
50
10
51
100
0
ARC
8
0
10
243.3230534
20
-63.2388643
40
0.5
50
190
51
280
0
ARC
8
0
10
256.1255541
20
-60.981438
40
0.5
50
280
51
10
0
LINE
8
0
10
259.7393907
20
-46.635962
11
272.5418915
21
-44.3785357
0
LINE
8
0
10
262.1704651
20
-60.4232705
11
274.9729659
21
-58.1658442
0
LINE
8
0
10
259.3338109
20
-47.2151899
11
261.5912372
21
-60.0176907
0
LINE
8
0
10
273.1211194
20
-44.7841155
11
275.3785457
21
-57.5866163
0
ARC
8
0
10
259.8262148
20
-47.1283659
40
0.5
50
100
51
190
0
ARC
8
0
10
272.6287155
20
-44.8709396
40
0.5
50
10
51
100
0
ARC
8
0
10
262.0836411
20
-59.9308666
40
0.5
50
190
51
280
0
ARC
8
0
10
274.8861418
20
-57.6734403
40
0.5
50
280
51
10
0
LINE
8
0
10
278.4999784
20
-43.3279642
11
291.3024792
21
-41.0705379
0
LINE
8
0
10
280.9310528
20
-57.1152727
11
293.7335536
21
-54.8578464
0
LINE
8
0
10
278.0943986
20
-43.9071921
11
280.3518249
21
-56.7096929
0
LINE
8
0
10
291.8817071
20
-41.4761177
11
294.1391334
21
-54.2786185
0
ARC
8
0
10
278.5868025
20
-43.8203681
40
0.5
50
100
51
190
0
ARC
8
0
10
291.3893032
20
-41.5629418
40
0.5
50
10
51
100
0
ARC
8
0
10
280.8442288
20
-56.6228688
40
0.5
50
190
51
280
0
ARC
8
0
10
293.6467295
20
-54.3654425
40
0.5
50
280
51
10
0
LINE
8
0
10
215.2078899
20
-73.831944
11
228.0103907
21
-71.5745177
0
LINE
8
0
10
217.6389643
20
-87.6192525
11
230.4414651
21
-85.3618262
0
LINE
8
0
10
214.8023101
20
-74.4111719
11
217.0597364
21
-87.2136727
0
LINE
8
0
10
228.5896186
20
-71.9800975
11
230.8470449
21
-84.7825983
0
ARC
8
0
10
215.294714
20
-74.3243479
40
0.5
50
100
51
190
0
ARC
8
0
10
228.0972147
20
-72.0669216
40
0.5
50
10
51
100
0
ARC
8
0
10
217.5521403
20
-87.1268486
40
0.5
50
190
51
280
0
ARC
8
0
10
230.354641
20
-84.8694223
40
0.5
50
280
51
10
0
LINE
8
0
10
233.9684776
20
-70.5239462
11
246.7709784
21
-68.2665199
0
LINE
8
0
10
236.399552
20
-84.3112547
11
249.2020528
21
-82.0538284
0
LINE
8
0
10
233.5628978
20
-71.1031741
11
235.8203241
21
-83.9056749
0
LINE
8
0
10
247.3502063
20
-68.6720997
11
249.6076326
21
-81.4746005
0
ARC
8
0
10
234.0553017
20
-71.0163501
40
0.5
50
100
51
190
0
ARC
8
0
10
246.8578024
20
-68.7589238
40
0.5
50
10
51
100
0
ARC
8
0
10
236.312728
20
-83.8188508
40
0.5
50
190
51
280
0
ARC
8
0
10
249.1152287
20
-81.5614245
40
0.5
50
280
51
10
0
LINE
8
0
10
252.7290653
20
-67.2159484
11
265.5315661
21
-64.9585221
0
LINE
8
0
10
255.1601397
20
-81.0032569
11
267.9626405
21
-78.7458306
0
LINE
8
0
10
252.3234855
20
-67.7951763
11
254.5809118
21
-80.5976771
0
LINE
8
0
10
266.110794
20
-65.3641019
11
268.3682203
21
-78.1666027
0
ARC
8
0
10
252.8158894
20
-67.7083523
40
0.5
50
100
51
190
0
ARC
8
0
10
265.6183901
20
-65.450926
40
0.5
50
10
51
100
0
ARC
8
0
10
255.0733157
20
-80.510853
40
0.5
50
190
51
280
0
ARC
8
0
10
267.8758164
20
-78.2534267
40
0.5
50
280
51
10
0
LINE
8
0
10
271.489653
20
-63.9079506
11
284.2921538
21
-61.6505243
0
LINE
8
0
10
273.9207274
20
-77.6952591
11
286.7232282
21
-75.4378328
0
LINE
8
0
10
271.0840732
20
-64.4871785
11
273.3414995
21
-77.2896793
0
LINE
8
0
10
284.8713817
20
-62.0561041
11
287.128808
21
-74.8586049
0
ARC
8
0
10
271.5764771
20
-64.4003545
40
0.5
50
100
51
190
0
ARC
8
0
10
284.3789778
20
-62.1429282
40
0.5
50
10
51
100
0
ARC
8
0
10
273.8339034
20
-77.2028552
40
0.5
50
190
51
280
0
ARC
8
0
10
286.6364041
20
-74.9454289
40
0.5
50
280
51
10
0
LINE
8
0
10
209.1355938
20
-94.2465306
11
221.9380946
21
-91.9891043
0
LINE
8
0
10
211.5666682
20
-108.0338391
11
224.369169
21
-105.7764128
0
LINE
8
0
10
208.730014
20
-94.8257585
11
210.9874403
21
-107.6282593
0
LINE
8
0
10
222.5173225
20
-92.3946841
11
224.7747488
21
-105.1971849
0
ARC
8
0
10
209.2224179
20
-94.7389345
40
0.5
50
100
51
190
0
ARC
8
0
10
222.0249186
20
-92.4815082
40
0.5
50
10
51
100
0
ARC
8
0
10
211.4798442
20
-107.5414352
40
0.5
50
190
51
280
0
ARC
8
0
10
224.2823449
20
-105.2840089
40
0.5
50
280
51
10
0
LINE
8
0
10
239.6215488
20
-88.8710342
11
252.4240496
21
-86.6136079
0
LINE
8
0
10
242.0526232
20
-102.6583427
11
254.855124
21
-100.4009164
0
LINE
8
0
10
239.215969
20
-89.4502621
11
241.4733953
21
-102.2527629
0
LINE
8
0
10
253.0032775
20
-87.0191877
11
255.2607038
21
-99.8216885
0
ARC
8
0
10
239.7083729
20
-89.3634381
40
0.5
50
100
51
190
0
ARC
8
0
10
252.5108736
20
-87.1060118
40
0.5
50
10
51
100
0
ARC
8
0
10
241.9657992
20
-102.1659388
40
0.5
50
190
51
280
0
ARC
8
0
10
254.7682999
20
-99.9085125
40
0.5
50
280
51
10
0
LINE
8
0
10
231.4853891
20
-91.3210853
11
237.3942356
21
-90.2791962
0
LINE
8
0
10
234.0901118
20
-106.0932016
11
239.9989583
21
-105.0513125
0
LINE
8
0
10
231.0798093
20
-91.9003132
11
233.5108838
21
-105.6876218
0
LINE
8
0
10
237.9734636
20
-90.684776
11
240.4045381
21
-104.4720845
0
ARC
8
0
10
231.5722132
20
-91.8134891
40
0.5
50
100
51
190
0
ARC
8
0
10
237.4810597
20
-90.7716001
40
0.5
50
10
51
100
0
ARC
8
0
10
234.0032877
20
-105.6007977
40
0.5
50
190
51
280
0
ARC
8
0
10
239.9121342
20
-104.5589086
40
0.5
50
280
51
10
0
LINE
8
0
10
254.998659
20
-87.1750614
11
260.9075055
21
-86.1331723
0
LINE
8
0
10
257.6033817
20
-101.9471777
11
263.5122282
21
-100.9052886
0
LINE
8
0
10
254.5930792
20
-87.7542893
11
257.0241537
21
-101.5415979
0
LINE
8
0
10
261.4867335
20
-86.5387521
11
263.917808
21
-100.3260606
0
ARC
8
0
10
255.0854831
20
-87.6674652
40
0.5
50
100
51
190
0
ARC
8
0
10
260.9943296
20
-86.6255762
40
0.5
50
10
51
100
0
ARC
8
0
10
257.5165576
20
-101.4547738
40
0.5
50
190
51
280
0
ARC
8
0
10
263.4254041
20
-100.4128847
40
0.5
50
280
51
10
0
LINE
8
0
10
276.1482476
20
-83.1527357
11
289.0770323
21
-81.7938657
0
LINE
8
0
10
277.6116461
20
-97.0760423
11
290.5404308
21
-95.7171723
0
LINE
8
0
10
275.7032509
20
-83.7022609
11
277.0621209
21
-96.6310456
0
LINE
8
0
10
289.6265575
20
-82.2388624
11
290.9854275
21
-95.1676471
0
ARC
8
0
10
276.2005119
20
-83.6499967
40
0.5
50
96
51
186
0
ARC
8
0
10
289.1292965
20
-82.2911267
40
0.5
50
6
51
96
0
ARC
8
0
10
277.5593819
20
-96.5787813
40
0.5
50
186
51
276
0
ARC
8
0
10
290.4881665
20
-95.2199113
40
0.5
50
276
51
6
0
LINE
8
0
10
0
20
-109.5364717
11
457.2
21
-109.5364717
0
LINE
8
0
10
0
20
0.4342685
11
457.2
21
0.4342685
0
LINE
8
0
10
0
20
-109.5364717
11
0
21
0.4342685
0
LINE
8
0
10
457.2
20
-109.5364717
11
457.2
21
0.4342685
0
ENDSEC
0
EOF