0
SECTION
2
HEADER
9
$INSUNITS
70
4
0
ENDSEC
0
SECTION
2
TABLES
0
TABLE
2
LTYPE
0
LTYPE
72
65
70
64
2
CONTINUOUS
3
______
73
0
40
0
0
ENDTAB
0
TABLE
2
LAYER
0
ENDTAB
0
ENDSEC
0
SECTION
2
ENTITIES
0
LINE
8
0
10
297.8
20
-2.525
11
311.8
21
-2.525
0
LINE
8
0
10
297.8
20
-16.525
11
311.8
21
-16.525
0
LINE
8
0
10
297.8
20
-2.525
11
297.8
21
-16.525
0
LINE
8
0
10
311.8
20
-2.525
11
311.8
21
-16.525
0
LINE
8
0
10
2.525
20
-3.4775
11
16.525
21
-3.4775
0
LINE
8
0
10
2.525
20
-17.4775
11
16.525
21
-17.4775
0
LINE
8
0
10
2.525
20
-3.4775
11
2.525
21
-17.4775
0
LINE
8
0
10
16.525
20
-3.4775
11
16.525
21
-17.4775
0
LINE
8
0
10
21.575
20
-3.4775
11
35.575
21
-3.4775
0
LINE
8
0
10
21.575
20
-17.4775
11
35.575
21
-17.4775
0
LINE
8
0
10
21.575
20
-3.4775
11
21.575
21
-17.4775
0
LINE
8
0
10
35.575
20
-3.4775
11
35.575
21
-17.4775
0
LINE
8
0
10
54.9125
20
-3.4775
11
68.9125
21
-3.4775
0
LINE
8
0
10
54.9125
20
-17.4775
11
68.9125
21
-17.4775
0
LINE
8
0
10
54.9125
20
-3.4775
11
54.9125
21
-17.4775
0
LINE
8
0
10
68.9125
20
-3.4775
11
68.9125
21
-17.4775
0
LINE
8
0
10
73.9625
20
-3.4775
11
87.9625
21
-3.4775
0
LINE
8
0
10
73.9625
20
-17.4775
11
87.9625
21
-17.4775
0
LINE
8
0
10
73.9625
20
-3.4775
11
73.9625
21
-17.4775
0
LINE
8
0
10
87.9625
20
-3.4775
11
87.9625
21
-17.4775
0
LINE
8
0
10
316.85
20
-3.4775
11
330.85
21
-3.4775
0
LINE
8
0
10
316.85
20
-17.4775
11
330.85
21
-17.4775
0
LINE
8
0
10
316.85
20
-3.4775
11
316.85
21
-17.4775
0
LINE
8
0
10
330.85
20
-3.4775
11
330.85
21
-17.4775
0
LINE
8
0
10
345.425
20
-3.4775
11
359.425
21
-3.4775
0
LINE
8
0
10
345.425
20
-17.4775
11
359.425
21
-17.4775
0
LINE
8
0
10
345.425
20
-3.4775
11
345.425
21
-17.4775
0
LINE
8
0
10
359.425
20
-3.4775
11
359.425
21
-17.4775
0
LINE
8
0
10
336.987
20
-4.4775
11
343.987
21
-4.4775
0
LINE
8
0
10
336.987
20
-19.4775
11
343.987
21
-19.4775
0
LINE
8
0
10
336.987
20
-4.4775
11
336.987
21
-19.4775
0
LINE
8
0
10
343.987
20
-4.4775
11
343.987
21
-19.4775
0
LINE
8
0
10
360.863
20
-4.4775
11
367.863
21
-4.4775
0
LINE
8
0
10
360.863
20
-19.4775
11
367.863
21
-19.4775
0
LINE
8
0
10
360.863
20
-4.4775
11
360.863
21
-19.4775
0
LINE
8
0
10
367.863
20
-4.4775
11
367.863
21
-19.4775
0
LINE
8
0
10
383.525
20
-3.4775
11
397.525
21
-3.4775
0
LINE
8
0
10
383.525
20
-17.4775
11
397.525
21
-17.4775
0
LINE
8
0
10
383.525
20
-3.4775
11
383.525
21
-17.4775
0
LINE
8
0
10
397.525
20
-3.4775
11
397.525
21
-17.4775
0
LINE
8
0
10
402.575
20
-3.4775
11
416.575
21
-3.4775
0
LINE
8
0
10
402.575
20
-17.4775
11
416.575
21
-17.4775
0
LINE
8
0
10
402.575
20
-3.4775
11
402.575
21
-17.4775
0
LINE
8
0
10
416.575
20
-3.4775
11
416.575
21
-17.4775
0
LINE
8
0
10
421.625
20
-3.4775
11
435.625
21
-3.4775
0
LINE
8
0
10
421.625
20
-17.4775
11
435.625
21
-17.4775
0
LINE
8
0
10
421.625
20
-3.4775
11
421.625
21
-17.4775
0
LINE
8
0
10
435.625
20
-3.4775
11
435.625
21
-17.4775
0
LINE
8
0
10
440.675
20
-3.4775
11
454.675
21
-3.4775
0
LINE
8
0
10
440.675
20
-17.4775
11
454.675
21
-17.4775
0
LINE
8
0
10
440.675
20
-3.4775
11
440.675
21
-17.4775
0
LINE
8
0
10
454.675
20
-3.4775
11
454.675
21
-17.4775
0
LINE
8
0
10
293.0375
20
-21.575
11
307.0375
21
-21.575
0
LINE
8
0
10
293.0375
20
-35.575
11
307.0375
21
-35.575
0
LINE
8
0
10
293.0375
20
-21.575
11
293.0375
21
-35.575
0
LINE
8
0
10
307.0375
20
-21.575
11
307.0375
21
-35.575
0
LINE
8
0
10
2.525
20
-22.5275
11
16.525
21
-22.5275
0
LINE
8
0
10
2.525
20
-36.5275
11
16.525
21
-36.5275
0
LINE
8
0
10
2.525
20
-22.5275
11
2.525
21
-36.5275
0
LINE
8
0
10
16.525
20
-22.5275
11
16.525
21
-36.5275
0
LINE
8
0
10
21.575
20
-22.5275
11
35.575
21
-22.5275
0
LINE
8
0
10
21.575
20
-36.5275
11
35.575
21
-36.5275
0
LINE
8
0
10
21.575
20
-22.5275
11
21.575
21
-36.5275
0
LINE
8
0
10
35.575
20
-22.5275
11
35.575
21
-36.5275
0
LINE
8
0
10
54.9125
20
-22.5275
11
68.9125
21
-22.5275
0
LINE
8
0
10
54.9125
20
-36.5275
11
68.9125
21
-36.5275
0
LINE
8
0
10
54.9125
20
-22.5275
11
54.9125
21
-36.5275
0
LINE
8
0
10
68.9125
20
-22.5275
11
68.9125
21
-36.5275
0
LINE
8
0
10
78.725
20
-22.5275
11
92.725
21
-22.5275
0
LINE
8
0
10
78.725
20
-36.5275
11
92.725
21
-36.5275
0
LINE
8
0
10
78.725
20
-22.5275
11
78.725
21
-36.5275
0
LINE
8
0
10
92.725
20
-22.5275
11
92.725
21
-36.5275
0
LINE
8
0
10
312.0875
20
-22.5275
11
326.0875
21
-22.5275
0
LINE
8
0
10
312.0875
20
-36.5275
11
326.0875
21
-36.5275
0
LINE
8
0
10
312.0875
20
-22.5275
11
312.0875
21
-36.5275
0
LINE
8
0
10
326.0875
20
-22.5275
11
326.0875
21
-36.5275
0
LINE
8
0
10
331.1375
20
-22.5275
11
345.1375
21
-22.5275
0
LINE
8
0
10
331.1375
20
-36.5275
11
345.1375
21
-36.5275
0
LINE
8
0
10
331.1375
20
-22.5275
11
331.1375
21
-36.5275
0
LINE
8
0
10
345.1375
20
-22.5275
11
345.1375
21
-36.5275
0
LINE
8
0
10
354.95
20
-22.5275
11
368.95
21
-22.5275
0
LINE
8
0
10
354.95
20
-36.5275
11
368.95
21
-36.5275
0
LINE
8
0
10
354.95
20
-22.5275
11
354.95
21
-36.5275
0
LINE
8
0
10
368.95
20
-22.5275
11
368.95
21
-36.5275
0
LINE
8
0
10
383.525
20
-22.5275
11
397.525
21
-22.5275
0
LINE
8
0
10
383.525
20
-36.5275
11
397.525
21
-36.5275
0
LINE
8
0
10
383.525
20
-22.5275
11
383.525
21
-36.5275
0
LINE
8
0
10
397.525
20
-22.5275
11
397.525
21
-36.5275
0
LINE
8
0
10
402.575
20
-22.5275
11
416.575
21
-22.5275
0
LINE
8
0
10
402.575
20
-36.5275
11
416.575
21
-36.5275
0
LINE
8
0
10
402.575
20
-22.5275
11
402.575
21
-36.5275
0
LINE
8
0
10
416.575
20
-22.5275
11
416.575
21
-36.5275
0
LINE
8
0
10
421.625
20
-22.5275
11
435.625
21
-22.5275
0
LINE
8
0
10
421.625
20
-36.5275
11
435.625
21
-36.5275
0
LINE
8
0
10
421.625
20
-22.5275
11
421.625
21
-36.5275
0
LINE
8
0
10
435.625
20
-22.5275
11
435.625
21
-36.5275
0
LINE
8
0
10
454.675
20
-32.0525
11
454.675
21
-46.0525
0
LINE
8
0
10
440.675
20
-32.0525
11
440.675
21
-46.0525
0
LINE
8
0
10
454.675
20
-32.0525
11
440.675
21
-32.0525
0
LINE
8
0
10
454.675
20
-46.0525
11
440.675
21
-46.0525
0
LINE
8
0
10
453.675
20
-23.6145
11
453.675
21
-30.6145
0
LINE
8
0
10
438.675
20
-23.6145
11
438.675
21
-30.6145
0
LINE
8
0
10
453.675
20
-23.6145
11
438.675
21
-23.6145
0
LINE
8
0
10
453.675
20
-30.6145
11
438.675
21
-30.6145
0
LINE
8
0
10
453.675
20
-47.4905
11
453.675
21
-54.4905
0
LINE
8
0
10
438.675
20
-47.4905
11
438.675
21
-54.4905
0
LINE
8
0
10
453.675
20
-47.4905
11
438.675
21
-47.4905
0
LINE
8
0
10
453.675
20
-54.4905
11
438.675
21
-54.4905
0
LINE
8
0
10
2.525
20
-41.5775
11
16.525
21
-41.5775
0
LINE
8
0
10
2.525
20
-55.5775
11
16.525
21
-55.5775
0
LINE
8
0
10
2.525
20
-41.5775
11
2.525
21
-55.5775
0
LINE
8
0
10
16.525
20
-41.5775
11
16.525
21
-55.5775
0
LINE
8
0
10
21.575
20
-41.5775
11
35.575
21
-41.5775
0
LINE
8
0
10
21.575
20
-55.5775
11
35.575
21
-55.5775
0
LINE
8
0
10
21.575
20
-41.5775
11
21.575
21
-55.5775
0
LINE
8
0
10
35.575
20
-41.5775
11
35.575
21
-55.5775
0
LINE
8
0
10
55.38875
20
-41.5775
11
69.38875
21
-41.5775
0
LINE
8
0
10
55.38875
20
-55.5775
11
69.38875
21
-55.5775
0
LINE
8
0
10
55.38875
20
-41.5775
11
55.38875
21
-55.5775
0
LINE
8
0
10
69.38875
20
-41.5775
11
69.38875
21
-55.5775
0
LINE
8
0
10
81.5825
20
-41.5775
11
95.5825
21
-41.5775
0
LINE
8
0
10
81.5825
20
-55.5775
11
95.5825
21
-55.5775
0
LINE
8
0
10
81.5825
20
-41.5775
11
81.5825
21
-55.5775
0
LINE
8
0
10
95.5825
20
-41.5775
11
95.5825
21
-55.5775
0
LINE
8
0
10
299.705
20
-41.5775
11
313.705
21
-41.5775
0
LINE
8
0
10
299.705
20
-55.5775
11
313.705
21
-55.5775
0
LINE
8
0
10
299.705
20
-41.5775
11
299.705
21
-55.5775
0
LINE
8
0
10
313.705
20
-41.5775
11
313.705
21
-55.5775
0
LINE
8
0
10
318.755
20
-41.5775
11
332.755
21
-41.5775
0
LINE
8
0
10
318.755
20
-55.5775
11
332.755
21
-55.5775
0
LINE
8
0
10
318.755
20
-41.5775
11
318.755
21
-55.5775
0
LINE
8
0
10
332.755
20
-41.5775
11
332.755
21
-55.5775
0
LINE
8
0
10
349.71125
20
-41.5775
11
363.71125
21
-41.5775
0
LINE
8
0
10
349.71125
20
-55.5775
11
363.71125
21
-55.5775
0
LINE
8
0
10
349.71125
20
-41.5775
11
349.71125
21
-55.5775
0
LINE
8
0
10
363.71125
20
-41.5775
11
363.71125
21
-55.5775
0
LINE
8
0
10
341.27325
20
-42.5775
11
348.27325
21
-42.5775
0
LINE
8
0
10
341.27325
20
-57.5775
11
348.27325
21
-57.5775
0
LINE
8
0
10
341.27325
20
-42.5775
11
341.27325
21
-57.5775
0
LINE
8
0
10
348.27325
20
-42.5775
11
348.27325
21
-57.5775
0
LINE
8
0
10
365.14925
20
-42.5775
11
372.14925
21
-42.5775
0
LINE
8
0
10
365.14925
20
-57.5775
11
372.14925
21
-57.5775
0
LINE
8
0
10
365.14925
20
-42.5775
11
365.14925
21
-57.5775
0
LINE
8
0
10
372.14925
20
-42.5775
11
372.14925
21
-57.5775
0
LINE
8
0
10
383.525
20
-41.5775
11
397.525
21
-41.5775
0
LINE
8
0
10
383.525
20
-55.5775
11
397.525
21
-55.5775
0
LINE
8
0
10
383.525
20
-41.5775
11
383.525
21
-55.5775
0
LINE
8
0
10
397.525
20
-41.5775
11
397.525
21
-55.5775
0
LINE
8
0
10
402.575
20
-41.5775
11
416.575
21
-41.5775
0
LINE
8
0
10
402.575
20
-55.5775
11
416.575
21
-55.5775
0
LINE
8
0
10
402.575
20
-41.5775
11
402.575
21
-55.5775
0
LINE
8
0
10
416.575
20
-41.5775
11
416.575
21
-55.5775
0
LINE
8
0
10
421.625
20
-41.5775
11
435.625
21
-41.5775
0
LINE
8
0
10
421.625
20
-55.5775
11
435.625
21
-55.5775
0
LINE
8
0
10
421.625
20
-41.5775
11
421.625
21
-55.5775
0
LINE
8
0
10
435.625
20
-41.5775
11
435.625
21
-55.5775
0
LINE
8
0
10
2.525
20
-60.6275
11
16.525
21
-60.6275
0
LINE
8
0
10
2.525
20
-74.6275
11
16.525
21
-74.6275
0
LINE
8
0
10
2.525
20
-60.6275
11
2.525
21
-74.6275
0
LINE
8
0
10
16.525
20
-60.6275
11
16.525
21
-74.6275
0
LINE
8
0
10
21.575
20
-60.6275
11
35.575
21
-60.6275
0
LINE
8
0
10
21.575
20
-74.6275
11
35.575
21
-74.6275
0
LINE
8
0
10
21.575
20
-60.6275
11
21.575
21
-74.6275
0
LINE
8
0
10
35.575
20
-60.6275
11
35.575
21
-74.6275
0
LINE
8
0
10
57.29375
20
-60.6275
11
71.29375
21
-60.6275
0
LINE
8
0
10
57.29375
20
-74.6275
11
71.29375
21
-74.6275
0
LINE
8
0
10
57.29375
20
-60.6275
11
57.29375
21
-74.6275
0
LINE
8
0
10
71.29375
20
-60.6275
11
71.29375
21
-74.6275
0
LINE
8
0
10
48.85575
20
-61.6275
11
55.85575
21
-61.6275
0
LINE
8
0
10
48.85575
20
-76.6275
11
55.85575
21
-76.6275
0
LINE
8
0
10
48.85575
20
-61.6275
11
48.85575
21
-76.6275
0
LINE
8
0
10
55.85575
20
-61.6275
11
55.85575
21
-76.6275
0
LINE
8
0
10
72.73175
20
-61.6275
11
79.73175
21
-61.6275
0
LINE
8
0
10
72.73175
20
-76.6275
11
79.73175
21
-76.6275
0
LINE
8
0
10
72.73175
20
-61.6275
11
72.73175
21
-76.6275
0
LINE
8
0
10
79.73175
20
-61.6275
11
79.73175
21
-76.6275
0
LINE
8
0
10
88.25
20
-60.6275
11
102.25
21
-60.6275
0
LINE
8
0
10
88.25
20
-74.6275
11
102.25
21
-74.6275
0
LINE
8
0
10
88.25
20
-60.6275
11
88.25
21
-74.6275
0
LINE
8
0
10
102.25
20
-60.6275
11
102.25
21
-74.6275
0
LINE
8
0
10
293.0375
20
-60.6275
11
307.0375
21
-60.6275
0
LINE
8
0
10
293.0375
20
-74.6275
11
307.0375
21
-74.6275
0
LINE
8
0
10
293.0375
20
-60.6275
11
293.0375
21
-74.6275
0
LINE
8
0
10
307.0375
20
-60.6275
11
307.0375
21
-74.6275
0
LINE
8
0
10
312.0875
20
-60.6275
11
326.0875
21
-60.6275
0
LINE
8
0
10
312.0875
20
-74.6275
11
326.0875
21
-74.6275
0
LINE
8
0
10
312.0875
20
-60.6275
11
312.0875
21
-74.6275
0
LINE
8
0
10
326.0875
20
-60.6275
11
326.0875
21
-74.6275
0
LINE
8
0
10
338.28125
20
-60.6275
11
352.28125
21
-60.6275
0
LINE
8
0
10
338.28125
20
-74.6275
11
352.28125
21
-74.6275
0
LINE
8
0
10
338.28125
20
-60.6275
11
338.28125
21
-74.6275
0
LINE
8
0
10
352.28125
20
-60.6275
11
352.28125
21
-74.6275
0
LINE
8
0
10
383.525
20
-60.6275
11
397.525
21
-60.6275
0
LINE
8
0
10
383.525
20
-74.6275
11
397.525
21
-74.6275
0
LINE
8
0
10
383.525
20
-60.6275
11
383.525
21
-74.6275
0
LINE
8
0
10
397.525
20
-60.6275
11
397.525
21
-74.6275
0
LINE
8
0
10
402.575
20
-60.6275
11
416.575
21
-60.6275
0
LINE
8
0
10
402.575
20
-74.6275
11
416.575
21
-74.6275
0
LINE
8
0
10
402.575
20
-60.6275
11
402.575
21
-74.6275
0
LINE
8
0
10
416.575
20
-60.6275
11
416.575
21
-74.6275
0
LINE
8
0
10
421.625
20
-60.6275
11
435.625
21
-60.6275
0
LINE
8
0
10
421.625
20
-74.6275
11
435.625
21
-74.6275
0
LINE
8
0
10
421.625
20
-60.6275
11
421.625
21
-74.6275
0
LINE
8
0
10
435.625
20
-60.6275
11
435.625
21
-74.6275
0
LINE
8
0
10
454.675
20
-70.1525
11
454.675
21
-84.1525
0
LINE
8
0
10
440.675
20
-70.1525
11
440.675
21
-84.1525
0
LINE
8
0
10
454.675
20
-70.1525
11
440.675
21
-70.1525
0
LINE
8
0
10
454.675
20
-84.1525
11
440.675
21
-84.1525
0
LINE
8
0
10
453.675
20
-61.7145
11
453.675
21
-68.7145
0
LINE
8
0
10
438.675
20
-61.7145
11
438.675
21
-68.7145
0
LINE
8
0
10
453.675
20
-61.7145
11
438.675
21
-61.7145
0
LINE
8
0
10
453.675
20
-68.7145
11
438.675
21
-68.7145
0
LINE
8
0
10
453.675
20
-85.5905
11
453.675
21
-92.5905
0
LINE
8
0
10
438.675
20
-85.5905
11
438.675
21
-92.5905
0
LINE
8
0
10
453.675
20
-85.5905
11
438.675
21
-85.5905
0
LINE
8
0
10
453.675
20
-92.5905
11
438.675
21
-92.5905
0
LINE
8
0
10
2.525
20
-79.6775
11
16.525
21
-79.6775
0
LINE
8
0
10
2.525
20
-93.6775
11
16.525
21
-93.6775
0
LINE
8
0
10
2.525
20
-79.6775
11
2.525
21
-93.6775
0
LINE
8
0
10
16.525
20
-79.6775
11
16.525
21
-93.6775
0
LINE
8
0
10
21.575
20
-79.6775
11
35.575
21
-79.6775
0
LINE
8
0
10
21.575
20
-93.6775
11
35.575
21
-93.6775
0
LINE
8
0
10
21.575
20
-79.6775
11
21.575
21
-93.6775
0
LINE
8
0
10
35.575
20
-79.6775
11
35.575
21
-93.6775
0
LINE
8
0
10
50.15
20
-79.6775
11
64.15
21
-79.6775
0
LINE
8
0
10
50.15
20
-93.6775
11
64.15
21
-93.6775
0
LINE
8
0
10
50.15
20
-79.6775
11
50.15
21
-93.6775
0
LINE
8
0
10
64.15
20
-79.6775
11
64.15
21
-93.6775
0
LINE
8
0
10
345.425
20
-79.6775
11
359.425
21
-79.6775
0
LINE
8
0
10
345.425
20
-93.6775
11
359.425
21
-93.6775
0
LINE
8
0
10
345.425
20
-79.6775
11
345.425
21
-93.6775
0
LINE
8
0
10
359.425
20
-79.6775
11
359.425
21
-93.6775
0
LINE
8
0
10
393.05
20
-79.6775
11
407.05
21
-79.6775
0
LINE
8
0
10
393.05
20
-93.6775
11
407.05
21
-93.6775
0
LINE
8
0
10
393.05
20
-79.6775
11
393.05
21
-93.6775
0
LINE
8
0
10
407.05
20
-79.6775
11
407.05
21
-93.6775
0
LINE
8
0
10
384.612
20
-80.6775
11
391.612
21
-80.6775
0
LINE
8
0
10
384.612
20
-95.6775
11
391.612
21
-95.6775
0
LINE
8
0
10
384.612
20
-80.6775
11
384.612
21
-95.6775
0
LINE
8
0
10
391.612
20
-80.6775
11
391.612
21
-95.6775
0
LINE
8
0
10
408.488
20
-80.6775
11
415.488
21
-80.6775
0
LINE
8
0
10
408.488
20
-95.6775
11
415.488
21
-95.6775
0
LINE
8
0
10
408.488
20
-80.6775
11
408.488
21
-95.6775
0
LINE
8
0
10
415.488
20
-80.6775
11
415.488
21
-95.6775
0
LINE
8
0
10
421.625
20
-79.6775
11
435.625
21
-79.6775
0
LINE
8
0
10
421.625
20
-93.6775
11
435.625
21
-93.6775
0
LINE
8
0
10
421.625
20
-79.6775
11
421.625
21
-93.6775
0
LINE
8
0
10
435.625
20
-79.6775
11
435.625
21
-93.6775
0
LINE
8
0
10
106.3394743
20
-80.873266
11
120.1856964
21
-82.9425977
0
LINE
8
0
10
104.2701426
20
-94.7194881
11
118.1163647
21
-96.7888198
0
LINE
8
0
10
106.3394743
20
-80.873266
11
104.2701426
21
-94.7194881
0
LINE
8
0
10
120.1856964
20
-82.9425977
11
118.1163647
21
-96.7888198
0
LINE
8
0
10
96.0381718
20
-0.98154
11
109.8254803
21
-3.4126145
0
LINE
8
0
10
93.6070973
20
-14.7688485
11
107.3944058
21
-17.199923
0
LINE
8
0
10
96.0381718
20
-0.98154
11
93.6070973
21
-14.7688485
0
LINE
8
0
10
109.8254803
20
-3.4126145
11
107.3944058
21
-17.199923
0
LINE
8
0
10
114.7987595
20
-4.2895378
11
128.586068
21
-6.7206123
0
LINE
8
0
10
112.367685
20
-18.0768463
11
126.1549935
21
-20.5079208
0
LINE
8
0
10
114.7987595
20
-4.2895378
11
112.367685
21
-18.0768463
0
LINE
8
0
10
128.586068
20
-6.7206123
11
126.1549935
21
-20.5079208
0
LINE
8
0
10
133.5593472
20
-7.5975356
11
147.3466557
21
-10.0286101
0
LINE
8
0
10
131.1282727
20
-21.3848441
11
144.9155812
21
-23.8159186
0
LINE
8
0
10
133.5593472
20
-7.5975356
11
131.1282727
21
-21.3848441
0
LINE
8
0
10
147.3466557
20
-10.0286101
11
144.9155812
21
-23.8159186
0
LINE
8
0
10
152.3199349
20
-10.9055334
11
166.1072434
21
-13.3366079
0
LINE
8
0
10
149.8888604
20
-24.6928419
11
163.6761689
21
-27.1239164
0
LINE
8
0
10
152.3199349
20
-10.9055334
11
149.8888604
21
-24.6928419
0
LINE
8
0
10
166.1072434
20
-13.3366079
11
163.6761689
21
-27.1239164
0
LINE
8
0
10
171.0805225
20
-14.2135312
11
184.867831
21
-16.6446057
0
LINE
8
0
10
168.649448
20
-28.0008397
11
182.4367565
21
-30.4319142
0
LINE
8
0
10
171.0805225
20
-14.2135312
11
168.649448
21
-28.0008397
0
LINE
8
0
10
184.867831
20
-16.6446057
11
182.4367565
21
-30.4319142
0
LINE
8
0
10
102.1104678
20
-21.3961266
11
115.8977763
21
-23.8272011
0
LINE
8
0
10
99.6793933
20
-35.1834351
11
113.4667018
21
-37.6145096
0
LINE
8
0
10
102.1104678
20
-21.3961266
11
99.6793933
21
-35.1834351
0
LINE
8
0
10
115.8977763
20
-23.8272011
11
113.4667018
21
-37.6145096
0
LINE
8
0
10
120.8710555
20
-24.7041244
11
134.658364
21
-27.1351989
0
LINE
8
0
10
118.439981
20
-38.4914329
11
132.2272895
21
-40.9225074
0
LINE
8
0
10
120.8710555
20
-24.7041244
11
118.439981
21
-38.4914329
0
LINE
8
0
10
134.658364
20
-27.1351989
11
132.2272895
21
-40.9225074
0
LINE
8
0
10
139.6316432
20
-28.0121222
11
153.4189517
21
-30.4431967
0
LINE
8
0
10
137.2005687
20
-41.7994307
11
150.9878772
21
-44.2305052
0
LINE
8
0
10
139.6316432
20
-28.0121222
11
137.2005687
21
-41.7994307
0
LINE
8
0
10
153.4189517
20
-30.4431967
11
150.9878772
21
-44.2305052
0
LINE
8
0
10
158.3922309
20
-31.32012
11
172.1795394
21
-33.7511945
0
LINE
8
0
10
155.9611564
20
-45.1074285
11
169.7484649
21
-47.538503
0
LINE
8
0
10
158.3922309
20
-31.32012
11
155.9611564
21
-45.1074285
0
LINE
8
0
10
172.1795394
20
-33.7511945
11
169.7484649
21
-47.538503
0
LINE
8
0
10
103.492617
20
-40.9837138
11
117.2799255
21
-43.4147883
0
LINE
8
0
10
101.0615425
20
-54.7710223
11
114.848851
21
-57.2020968
0
LINE
8
0
10
103.492617
20
-40.9837138
11
101.0615425
21
-54.7710223
0
LINE
8
0
10
117.2799255
20
-43.4147883
11
114.848851
21
-57.2020968
0
LINE
8
0
10
122.2532047
20
-44.2917116
11
136.0405132
21
-46.7227861
0
LINE
8
0
10
119.8221302
20
-58.0790201
11
133.6094387
21
-60.5100946
0
LINE
8
0
10
122.2532047
20
-44.2917116
11
119.8221302
21
-58.0790201
0
LINE
8
0
10
136.0405132
20
-46.7227861
11
133.6094387
21
-60.5100946
0
LINE
8
0
10
141.0137924
20
-47.5997093
11
154.8011009
21
-50.0307838
0
LINE
8
0
10
138.5827179
20
-61.3870178
11
152.3700264
21
-63.8180923
0
LINE
8
0
10
141.0137924
20
-47.5997093
11
138.5827179
21
-61.3870178
0
LINE
8
0
10
154.8011009
20
-50.0307838
11
152.3700264
21
-63.8180923
0
LINE
8
0
10
159.7743801
20
-50.9077071
11
173.5616886
21
-53.3387816
0
LINE
8
0
10
157.3433056
20
-64.6950156
11
171.1306141
21
-67.1260901
0
LINE
8
0
10
159.7743801
20
-50.9077071
11
157.3433056
21
-64.6950156
0
LINE
8
0
10
173.5616886
20
-53.3387816
11
171.1306141
21
-67.1260901
0
LINE
8
0
10
110.5029424
20
-61.5637002
11
124.2902509
21
-63.9947747
0
LINE
8
0
10
108.0718679
20
-75.3510087
11
121.8591764
21
-77.7820832
0
LINE
8
0
10
110.5029424
20
-61.5637002
11
108.0718679
21
-75.3510087
0
LINE
8
0
10
124.2902509
20
-63.9947747
11
121.8591764
21
-77.7820832
0
LINE
8
0
10
129.2635301
20
-64.871698
11
143.0508386
21
-67.3027725
0
LINE
8
0
10
126.8324556
20
-78.6590065
11
140.6197641
21
-81.090081
0
LINE
8
0
10
129.2635301
20
-64.871698
11
126.8324556
21
-78.6590065
0
LINE
8
0
10
143.0508386
20
-67.3027725
11
140.6197641
21
-81.090081
0
LINE
8
0
10
148.0241178
20
-68.1796958
11
161.8114263
21
-70.6107703
0
LINE
8
0
10
145.5930433
20
-81.9670043
11
159.3803518
21
-84.3980788
0
LINE
8
0
10
148.0241178
20
-68.1796958
11
145.5930433
21
-81.9670043
0
LINE
8
0
10
161.8114263
20
-70.6107703
11
159.3803518
21
-84.3980788
0
LINE
8
0
10
166.7847055
20
-71.4876936
11
180.572014
21
-73.9187681
0
LINE
8
0
10
164.353631
20
-85.2750021
11
178.1409395
21
-87.7060766
0
LINE
8
0
10
166.7847055
20
-71.4876936
11
164.353631
21
-85.2750021
0
LINE
8
0
10
180.572014
20
-73.9187681
11
178.1409395
21
-87.7060766
0
LINE
8
0
10
147.0611935
20
-87.3537832
11
160.848502
21
-89.7848577
0
LINE
8
0
10
144.630119
20
-101.1410917
11
158.4174275
21
-103.5721662
0
LINE
8
0
10
147.0611935
20
-87.3537832
11
144.630119
21
-101.1410917
0
LINE
8
0
10
160.848502
20
-89.7848577
11
158.4174275
21
-103.5721662
0
LINE
8
0
10
138.5777375
20
-86.8733476
11
145.4713917
21
-88.0888849
0
LINE
8
0
10
135.9730148
20
-101.6454639
11
142.8666691
21
-102.8610012
0
LINE
8
0
10
138.5777375
20
-86.8733476
11
135.9730148
21
-101.6454639
0
LINE
8
0
10
145.4713917
20
-88.0888849
11
142.8666691
21
-102.8610012
0
LINE
8
0
10
162.0910074
20
-91.0193715
11
168.9846617
21
-92.2349087
0
LINE
8
0
10
159.4862847
20
-105.7914878
11
166.379939
21
-107.007025
0
LINE
8
0
10
162.0910074
20
-91.0193715
11
159.4862847
21
-105.7914878
0
LINE
8
0
10
168.9846617
20
-92.2349087
11
166.379939
21
-107.007025
0
LINE
8
0
10
219.7999628
20
-14.9906068
11
233.5872713
21
-12.5595323
0
LINE
8
0
10
222.2310373
20
-28.7779153
11
236.0183458
21
-26.3468408
0
LINE
8
0
10
219.7999628
20
-14.9906068
11
222.2310373
21
-28.7779153
0
LINE
8
0
10
233.5872713
20
-12.5595323
11
236.0183458
21
-26.3468408
0
LINE
8
0
10
238.5605505
20
-11.682609
11
252.347859
21
-9.2515345
0
LINE
8
0
10
240.991625
20
-25.4699175
11
254.7789335
21
-23.038843
0
LINE
8
0
10
238.5605505
20
-11.682609
11
240.991625
21
-25.4699175
0
LINE
8
0
10
252.347859
20
-9.2515345
11
254.7789335
21
-23.038843
0
LINE
8
0
10
257.3211382
20
-8.3746112
11
271.1084467
21
-5.9435367
0
LINE
8
0
10
259.7522127
20
-22.1619197
11
273.5395212
21
-19.7308452
0
LINE
8
0
10
257.3211382
20
-8.3746112
11
259.7522127
21
-22.1619197
0
LINE
8
0
10
271.1084467
20
-5.9435367
11
273.5395212
21
-19.7308452
0
LINE
8
0
10
276.0817259
20
-5.0666134
11
289.8690344
21
-2.6355389
0
LINE
8
0
10
278.5128004
20
-18.8539219
11
292.3001089
21
-16.4228474
0
LINE
8
0
10
276.0817259
20
-5.0666134
11
278.5128004
21
-18.8539219
0
LINE
8
0
10
289.8690344
20
-2.6355389
11
292.3001089
21
-16.4228474
0
LINE
8
0
10
213.7276667
20
-35.4051934
11
227.5149752
21
-32.9741189
0
LINE
8
0
10
216.1587412
20
-49.1925019
11
229.9460497
21
-46.7614274
0
LINE
8
0
10
213.7276667
20
-35.4051934
11
216.1587412
21
-49.1925019
0
LINE
8
0
10
227.5149752
20
-32.9741189
11
229.9460497
21
-46.7614274
0
LINE
8
0
10
232.4882544
20
-32.0971956
11
246.2755629
21
-29.6661211
0
LINE
8
0
10
234.9193289
20
-45.8845041
11
248.7066374
21
-43.4534296
0
LINE
8
0
10
232.4882544
20
-32.0971956
11
234.9193289
21
-45.8845041
0
LINE
8
0
10
246.2755629
20
-29.6661211
11
248.7066374
21
-43.4534296
0
LINE
8
0
10
251.2488421
20
-28.7891978
11
265.0361506
21
-26.3581233
0
LINE
8
0
10
253.6799166
20
-42.5765063
11
267.4672251
21
-40.1454318
0
LINE
8
0
10
251.2488421
20
-28.7891978
11
253.6799166
21
-42.5765063
0
LINE
8
0
10
265.0361506
20
-26.3581233
11
267.4672251
21
-40.1454318
0
LINE
8
0
10
270.0094298
20
-25.4812
11
283.7967383
21
-23.0501255
0
LINE
8
0
10
272.4405043
20
-39.2685085
11
286.2278128
21
-36.837434
0
LINE
8
0
10
270.0094298
20
-25.4812
11
272.4405043
21
-39.2685085
0
LINE
8
0
10
283.7967383
20
-23.0501255
11
286.2278128
21
-36.837434
0
LINE
8
0
10
221.7258114
20
-53.3387816
11
235.5131199
21
-50.9077071
0
LINE
8
0
10
224.1568859
20
-67.1260901
11
237.9441944
21
-64.6950156
0
LINE
8
0
10
221.7258114
20
-53.3387816
11
224.1568859
21
-67.1260901
0
LINE
8
0
10
235.5131199
20
-50.9077071
11
237.9441944
21
-64.6950156
0
LINE
8
0
10
240.4863991
20
-50.0307838
11
254.2737076
21
-47.5997093
0
LINE
8
0
10
242.9174736
20
-63.8180923
11
256.7047821
21
-61.3870178
0
LINE
8
0
10
240.4863991
20
-50.0307838
11
242.9174736
21
-63.8180923
0
LINE
8
0
10
254.2737076
20
-47.5997093
11
256.7047821
21
-61.3870178
0
LINE
8
0
10
259.2469868
20
-46.7227861
11
273.0342953
21
-44.2917116
0
LINE
8
0
10
261.6780613
20
-60.5100946
11
275.4653698
21
-58.0790201
0
LINE
8
0
10
259.2469868
20
-46.7227861
11
261.6780613
21
-60.5100946
0
LINE
8
0
10
273.0342953
20
-44.2917116
11
275.4653698
21
-58.0790201
0
LINE
8
0
10
278.0075745
20
-43.4147883
11
291.794883
21
-40.9837138
0
LINE
8
0
10
280.438649
20
-57.2020968
11
294.2259575
21
-54.7710223
0
LINE
8
0
10
278.0075745
20
-43.4147883
11
280.438649
21
-57.2020968
0
LINE
8
0
10
291.794883
20
-40.9837138
11
294.2259575
21
-54.7710223
0
LINE
8
0
10
214.715486
20
-73.9187681
11
228.5027945
21
-71.4876936
0
LINE
8
0
10
217.1465605
20
-87.7060766
11
230.933869
21
-85.2750021
0
LINE
8
0
10
214.715486
20
-73.9187681
11
217.1465605
21
-87.7060766
0
LINE
8
0
10
228.5027945
20
-71.4876936
11
230.933869
21
-85.2750021
0
LINE
8
0
10
233.4760737
20
-70.6107703
11
247.2633822
21
-68.1796958
0
LINE
8
0
10
235.9071482
20
-84.3980788
11
249.6944567
21
-81.9670043
0
LINE
8
0
10
233.4760737
20
-70.6107703
11
235.9071482
21
-84.3980788
0
LINE
8
0
10
247.2633822
20
-68.1796958
11
249.6944567
21
-81.9670043
0
LINE
8
0
10
252.2366614
20
-67.3027725
11
266.0239699
21
-64.871698
0
LINE
8
0
10
254.6677359
20
-81.090081
11
268.4550444
21
-78.6590065
0
LINE
8
0
10
252.2366614
20
-67.3027725
11
254.6677359
21
-81.090081
0
LINE
8
0
10
266.0239699
20
-64.871698
11
268.4550444
21
-78.6590065
0
LINE
8
0
10
270.9972491
20
-63.9947747
11
284.7845576
21
-61.5637002
0
LINE
8
0
10
273.4283236
20
-77.7820832
11
287.2156321
21
-75.3510087
0
LINE
8
0
10
270.9972491
20
-63.9947747
11
273.4283236
21
-77.7820832
0
LINE
8
0
10
284.7845576
20
-61.5637002
11
287.2156321
21
-75.3510087
0
LINE
8
0
10
208.6431899
20
-94.3333547
11
222.4304984
21
-91.9022802
0
LINE
8
0
10
211.0742644
20
-108.1206632
11
224.8615729
21
-105.6895887
0
LINE
8
0
10
208.6431899
20
-94.3333547
11
211.0742644
21
-108.1206632
0
LINE
8
0
10
222.4304984
20
-91.9022802
11
224.8615729
21
-105.6895887
0
LINE
8
0
10
239.1291449
20
-88.9578583
11
252.9164534
21
-86.5267838
0
LINE
8
0
10
241.5602194
20
-102.7451668
11
255.3475279
21
-100.3140923
0
LINE
8
0
10
239.1291449
20
-88.9578583
11
241.5602194
21
-102.7451668
0
LINE
8
0
10
252.9164534
20
-86.5267838
11
255.3475279
21
-100.3140923
0
LINE
8
0
10
230.9929852
20
-91.4079093
11
237.8866395
21
-90.1923721
0
LINE
8
0
10
233.5977079
20
-106.1800256
11
240.4913622
21
-104.9644884
0
LINE
8
0
10
230.9929852
20
-91.4079093
11
233.5977079
21
-106.1800256
0
LINE
8
0
10
237.8866395
20
-90.1923721
11
240.4913622
21
-104.9644884
0
LINE
8
0
10
254.5062552
20
-87.2618855
11
261.3999094
21
-86.0463482
0
LINE
8
0
10
257.1109778
20
-102.0340018
11
264.0046321
21
-100.8184645
0
LINE
8
0
10
254.5062552
20
-87.2618855
11
257.1109778
21
-102.0340018
0
LINE
8
0
10
261.3999094
20
-86.0463482
11
264.0046321
21
-100.8184645
0
LINE
8
0
10
275.6509867
20
-83.205
11
289.5742932
21
-81.7416015
0
LINE
8
0
10
277.1143852
20
-97.1283065
11
291.0376917
21
-95.664908
0
LINE
8
0
10
275.6509867
20
-83.205
11
277.1143852
21
-97.1283065
0
LINE
8
0
10
289.5742932
20
-81.7416015
11
291.0376917
21
-95.664908
0
LINE
8
0
10
0
20
-109.5364717
11
457.2
21
-109.5364717
0
LINE
8
0
10
0
20
0.4342685
11
457.2
21
0.4342685
0
LINE
8
0
10
0
20
-109.5364717
11
0
21
0.4342685
0
LINE
8
0
10
457.2
20
-109.5364717
11
457.2
21
0.4342685
0
ENDSEC
0
EOF